<svg width="393" height="216" viewBox="0 0 393 216" fill="none" xmlns="http://www.w3.org/2000/svg">
<path d="M17.9893 165.571L149.707 192.843L220.498 119.151L349.895 165.571L370.204 22.8281" stroke="white" stroke-width="1.6"/>
<g filter="url(#filter0_f_99_7692)">
<circle cx="21.6998" cy="164.7" r="9.51331" fill="#FAFFB3"/>
<circle cx="21.6998" cy="164.7" r="8.71331" stroke="white" stroke-width="1.6"/>
</g>
<circle cx="21.7006" cy="164.7" r="5.54221" fill="#D9D9D9" stroke="white" stroke-width="1.6"/>
<g filter="url(#filter1_f_99_7692)">
<circle cx="147.187" cy="193.186" r="10" fill="#FAFFB3"/>
<circle cx="147.187" cy="193.186" r="9.2" stroke="white" stroke-width="1.6"/>
</g>
<circle cx="147.185" cy="193.186" r="5.86667" fill="#D9D9D9" stroke="white" stroke-width="1.6"/>
<g filter="url(#filter2_f_99_7692)">
<ellipse cx="222.157" cy="118.957" rx="8.97092" ry="8.771" fill="#FAFFB3"/>
<path d="M222.157 110.986C226.687 110.986 230.328 114.572 230.328 118.958C230.328 123.343 226.687 126.928 222.157 126.928C217.628 126.928 213.987 123.343 213.986 118.958C213.986 114.572 217.628 110.986 222.157 110.986Z" stroke="white" stroke-width="1.6"/>
</g>
<path d="M222.157 113.91C225.036 113.91 227.339 116.188 227.339 118.959C227.339 121.73 225.036 124.007 222.157 124.007C219.279 124.007 216.976 121.73 216.976 118.959C216.976 116.188 219.278 113.91 222.157 113.91Z" fill="#D9D9D9" stroke="white" stroke-width="1.6"/>
<g filter="url(#filter3_f_99_7692)">
<circle cx="349.314" cy="162.699" r="7.51331" fill="#FAFFB3"/>
<circle cx="349.314" cy="162.699" r="6.71331" stroke="white" stroke-width="1.6"/>
</g>
<circle cx="349.315" cy="162.7" r="4.20888" fill="#D9D9D9" stroke="white" stroke-width="1.6"/>
<g filter="url(#filter4_f_99_7692)">
<circle cx="369.806" cy="22.806" r="10.6198" fill="#FAFFB3"/>
<circle cx="369.806" cy="22.806" r="9.81976" stroke="white" stroke-width="1.6"/>
</g>
<circle cx="369.806" cy="22.8059" r="6.27984" fill="#D9D9D9" stroke="white" stroke-width="1.6"/>
<defs>
<filter id="filter0_f_99_7692" x="0.000169754" y="143" width="43.3996" height="43.3993" filterUnits="userSpaceOnUse" color-interpolation-filters="sRGB">
<feFlood flood-opacity="0" result="BackgroundImageFix"/>
<feBlend mode="normal" in="SourceGraphic" in2="BackgroundImageFix" result="shape"/>
<feGaussianBlur stdDeviation="6.09318" result="effect1_foregroundBlur_99_7692"/>
</filter>
<filter id="filter1_f_99_7692" x="125" y="171" width="44.3727" height="44.3727" filterUnits="userSpaceOnUse" color-interpolation-filters="sRGB">
<feFlood flood-opacity="0" result="BackgroundImageFix"/>
<feBlend mode="normal" in="SourceGraphic" in2="BackgroundImageFix" result="shape"/>
<feGaussianBlur stdDeviation="6.09318" result="effect1_foregroundBlur_99_7692"/>
</filter>
<filter id="filter2_f_99_7692" x="201" y="97.9999" width="42.3146" height="41.9147" filterUnits="userSpaceOnUse" color-interpolation-filters="sRGB">
<feFlood flood-opacity="0" result="BackgroundImageFix"/>
<feBlend mode="normal" in="SourceGraphic" in2="BackgroundImageFix" result="shape"/>
<feGaussianBlur stdDeviation="6.09318" result="effect1_foregroundBlur_99_7692"/>
</filter>
<filter id="filter3_f_99_7692" x="329.614" y="142.999" width="39.3996" height="39.3993" filterUnits="userSpaceOnUse" color-interpolation-filters="sRGB">
<feFlood flood-opacity="0" result="BackgroundImageFix"/>
<feBlend mode="normal" in="SourceGraphic" in2="BackgroundImageFix" result="shape"/>
<feGaussianBlur stdDeviation="6.09318" result="effect1_foregroundBlur_99_7692"/>
</filter>
<filter id="filter4_f_99_7692" x="347" y="-7.43866e-05" width="45.6125" height="45.6122" filterUnits="userSpaceOnUse" color-interpolation-filters="sRGB">
<feFlood flood-opacity="0" result="BackgroundImageFix"/>
<feBlend mode="normal" in="SourceGraphic" in2="BackgroundImageFix" result="shape"/>
<feGaussianBlur stdDeviation="6.09318" result="effect1_foregroundBlur_99_7692"/>
</filter>
</defs>
</svg>
