<svg width="412" height="414" viewBox="0 0 412 414" fill="none" xmlns="http://www.w3.org/2000/svg">
<path d="M24.7373 132.964L78.5986 131.381L104.821 153.788L142.89 178.659M142.89 178.659L143.732 216.008M142.89 178.659L225.702 189.575M143.732 216.008L125.224 259.306L152.934 308.463M143.732 216.008L207.432 226.297M152.934 308.463L209.303 361.239M152.934 308.463L221.548 352.741M207.432 226.297L276.186 271.546M207.432 226.297L225.702 189.575M276.186 271.546L300.778 297.756M276.186 271.546L285.16 232.194L368.736 219.607L307.074 201.492L225.702 189.575M300.778 297.756L331.798 335.533M300.778 297.756L340.801 329.285" stroke="white" stroke-width="1.6"/>
<g filter="url(#filter0_f_115_65)">
<ellipse cx="33.4602" cy="133.441" rx="8.38988" ry="8.38988" fill="#FAFFB3"/>
</g>
<ellipse cx="33.4604" cy="133.442" rx="5.59326" ry="5.59325" fill="#D9D9D9"/>
<g filter="url(#filter1_f_115_65)">
<ellipse cx="82.9416" cy="132.583" rx="7.53147" ry="7.53147" fill="#FAFFB3"/>
</g>
<ellipse cx="82.9429" cy="132.583" rx="5.02098" ry="5.02098" fill="#D9D9D9"/>
<g filter="url(#filter2_f_115_65)">
<ellipse cx="108.362" cy="154.618" rx="4.16449" ry="4.16449" fill="#FAFFB3"/>
</g>
<ellipse cx="108.361" cy="154.618" rx="2.77633" ry="2.77633" fill="#D9D9D9"/>
<g filter="url(#filter3_f_115_65)">
<ellipse cx="131.709" cy="170.163" rx="5.95854" ry="5.95854" fill="#FAFFB3"/>
</g>
<ellipse cx="131.709" cy="170.163" rx="3.97236" ry="3.97236" fill="#D9D9D9"/>
<g filter="url(#filter4_f_115_65)">
<ellipse cx="147.923" cy="179.605" rx="6.24674" ry="6.24674" fill="#FAFFB3"/>
</g>
<ellipse cx="147.923" cy="179.605" rx="4.16449" ry="4.16449" fill="#D9D9D9"/>
<g filter="url(#filter5_f_115_65)">
<ellipse cx="229.131" cy="192.098" rx="6.24674" ry="6.24674" fill="#FAFFB3"/>
</g>
<ellipse cx="229.129" cy="192.098" rx="4.16449" ry="4.16449" fill="#D9D9D9"/>
<g filter="url(#filter6_f_115_65)">
<ellipse cx="212.472" cy="227.496" rx="6.24674" ry="6.24674" fill="#FAFFB3"/>
</g>
<ellipse cx="212.471" cy="227.496" rx="4.16449" ry="4.16449" fill="#D9D9D9"/>
<g filter="url(#filter7_f_115_65)">
<ellipse cx="147.923" cy="217.085" rx="6.24674" ry="6.24674" fill="#FAFFB3"/>
</g>
<ellipse cx="147.923" cy="217.085" rx="4.16449" ry="4.16449" fill="#D9D9D9"/>
<g filter="url(#filter8_f_115_65)">
<ellipse cx="131.264" cy="260.812" rx="6.24674" ry="6.24674" fill="#FAFFB3"/>
</g>
<ellipse cx="131.264" cy="260.812" rx="4.16449" ry="4.16449" fill="#D9D9D9"/>
<g filter="url(#filter9_f_115_65)">
<ellipse cx="158.334" cy="310.786" rx="6.24674" ry="6.24674" fill="#FAFFB3"/>
</g>
<ellipse cx="158.332" cy="310.786" rx="4.16449" ry="4.16449" fill="#D9D9D9"/>
<g filter="url(#filter10_f_115_65)">
<ellipse cx="212.472" cy="362.842" rx="6.24674" ry="6.24674" fill="#FAFFB3"/>
</g>
<ellipse cx="212.471" cy="362.842" rx="4.16449" ry="4.16449" fill="#D9D9D9"/>
<g filter="url(#filter11_f_115_65)">
<ellipse cx="224.965" cy="354.513" rx="6.24674" ry="6.24674" fill="#FAFFB3"/>
</g>
<ellipse cx="224.965" cy="354.513" rx="4.16449" ry="4.16449" fill="#D9D9D9"/>
<g filter="url(#filter12_f_115_65)">
<ellipse cx="335.325" cy="337.855" rx="6.24674" ry="6.24674" fill="#FAFFB3"/>
</g>
<ellipse cx="335.326" cy="337.855" rx="4.16449" ry="4.16449" fill="#D9D9D9"/>
<g filter="url(#filter13_f_115_65)">
<ellipse cx="345.738" cy="329.526" rx="6.24674" ry="6.24674" fill="#FAFFB3"/>
</g>
<ellipse cx="345.738" cy="329.526" rx="4.16449" ry="4.16449" fill="#D9D9D9"/>
<g filter="url(#filter14_f_115_65)">
<ellipse cx="281.187" cy="273.306" rx="6.24674" ry="6.24674" fill="#FAFFB3"/>
</g>
<ellipse cx="281.187" cy="273.306" rx="4.16449" ry="4.16449" fill="#D9D9D9"/>
<g filter="url(#filter15_f_115_65)">
<ellipse cx="291.599" cy="233.743" rx="6.24674" ry="6.24674" fill="#FAFFB3"/>
</g>
<ellipse cx="291.596" cy="233.743" rx="4.16449" ry="4.16449" fill="#D9D9D9"/>
<g filter="url(#filter16_f_115_65)">
<ellipse cx="372.805" cy="221.249" rx="6.24674" ry="6.24674" fill="#FAFFB3"/>
</g>
<ellipse cx="372.806" cy="221.249" rx="4.16449" ry="4.16449" fill="#D9D9D9"/>
<g filter="url(#filter17_f_115_65)">
<ellipse cx="312.42" cy="204.591" rx="6.24674" ry="6.24674" fill="#FAFFB3"/>
</g>
<ellipse cx="312.42" cy="204.592" rx="4.16449" ry="4.16449" fill="#D9D9D9"/>
<defs>
<filter id="filter0_f_115_65" x="6.67572e-05" y="99.981" width="66.9198" height="66.9203" filterUnits="userSpaceOnUse" color-interpolation-filters="sRGB">
<feFlood flood-opacity="0" result="BackgroundImageFix"/>
<feBlend mode="normal" in="SourceGraphic" in2="BackgroundImageFix" result="shape"/>
<feGaussianBlur stdDeviation="12.5351" result="effect1_foregroundBlur_115_65"/>
</filter>
<filter id="filter1_f_115_65" x="50.3399" y="99.981" width="65.203" height="65.2035" filterUnits="userSpaceOnUse" color-interpolation-filters="sRGB">
<feFlood flood-opacity="0" result="BackgroundImageFix"/>
<feBlend mode="normal" in="SourceGraphic" in2="BackgroundImageFix" result="shape"/>
<feGaussianBlur stdDeviation="12.5351" result="effect1_foregroundBlur_115_65"/>
</filter>
<filter id="filter2_f_115_65" x="87.484" y="133.74" width="41.7556" height="41.7556" filterUnits="userSpaceOnUse" color-interpolation-filters="sRGB">
<feFlood flood-opacity="0" result="BackgroundImageFix"/>
<feBlend mode="normal" in="SourceGraphic" in2="BackgroundImageFix" result="shape"/>
<feGaussianBlur stdDeviation="8.35662" result="effect1_foregroundBlur_115_65"/>
</filter>
<filter id="filter3_f_115_65" x="109.037" y="147.491" width="45.344" height="45.344" filterUnits="userSpaceOnUse" color-interpolation-filters="sRGB">
<feFlood flood-opacity="0" result="BackgroundImageFix"/>
<feBlend mode="normal" in="SourceGraphic" in2="BackgroundImageFix" result="shape"/>
<feGaussianBlur stdDeviation="8.35675" result="effect1_foregroundBlur_115_65"/>
</filter>
<filter id="filter4_f_115_65" x="116.607" y="148.288" width="62.6337" height="62.6339" filterUnits="userSpaceOnUse" color-interpolation-filters="sRGB">
<feFlood flood-opacity="0" result="BackgroundImageFix"/>
<feBlend mode="normal" in="SourceGraphic" in2="BackgroundImageFix" result="shape"/>
<feGaussianBlur stdDeviation="12.5351" result="effect1_foregroundBlur_115_65"/>
</filter>
<filter id="filter5_f_115_65" x="197.814" y="160.781" width="62.6337" height="62.6339" filterUnits="userSpaceOnUse" color-interpolation-filters="sRGB">
<feFlood flood-opacity="0" result="BackgroundImageFix"/>
<feBlend mode="normal" in="SourceGraphic" in2="BackgroundImageFix" result="shape"/>
<feGaussianBlur stdDeviation="12.5351" result="effect1_foregroundBlur_115_65"/>
</filter>
<filter id="filter6_f_115_65" x="181.155" y="196.18" width="62.6337" height="62.6339" filterUnits="userSpaceOnUse" color-interpolation-filters="sRGB">
<feFlood flood-opacity="0" result="BackgroundImageFix"/>
<feBlend mode="normal" in="SourceGraphic" in2="BackgroundImageFix" result="shape"/>
<feGaussianBlur stdDeviation="12.5351" result="effect1_foregroundBlur_115_65"/>
</filter>
<filter id="filter7_f_115_65" x="116.607" y="185.768" width="62.6337" height="62.6339" filterUnits="userSpaceOnUse" color-interpolation-filters="sRGB">
<feFlood flood-opacity="0" result="BackgroundImageFix"/>
<feBlend mode="normal" in="SourceGraphic" in2="BackgroundImageFix" result="shape"/>
<feGaussianBlur stdDeviation="12.5351" result="effect1_foregroundBlur_115_65"/>
</filter>
<filter id="filter8_f_115_65" x="99.9473" y="229.495" width="62.6337" height="62.6339" filterUnits="userSpaceOnUse" color-interpolation-filters="sRGB">
<feFlood flood-opacity="0" result="BackgroundImageFix"/>
<feBlend mode="normal" in="SourceGraphic" in2="BackgroundImageFix" result="shape"/>
<feGaussianBlur stdDeviation="12.5351" result="effect1_foregroundBlur_115_65"/>
</filter>
<filter id="filter9_f_115_65" x="127.017" y="279.469" width="62.6337" height="62.6339" filterUnits="userSpaceOnUse" color-interpolation-filters="sRGB">
<feFlood flood-opacity="0" result="BackgroundImageFix"/>
<feBlend mode="normal" in="SourceGraphic" in2="BackgroundImageFix" result="shape"/>
<feGaussianBlur stdDeviation="12.5351" result="effect1_foregroundBlur_115_65"/>
</filter>
<filter id="filter10_f_115_65" x="181.155" y="331.525" width="62.6337" height="62.6339" filterUnits="userSpaceOnUse" color-interpolation-filters="sRGB">
<feFlood flood-opacity="0" result="BackgroundImageFix"/>
<feBlend mode="normal" in="SourceGraphic" in2="BackgroundImageFix" result="shape"/>
<feGaussianBlur stdDeviation="12.5351" result="effect1_foregroundBlur_115_65"/>
</filter>
<filter id="filter11_f_115_65" x="193.648" y="323.196" width="62.6337" height="62.6339" filterUnits="userSpaceOnUse" color-interpolation-filters="sRGB">
<feFlood flood-opacity="0" result="BackgroundImageFix"/>
<feBlend mode="normal" in="SourceGraphic" in2="BackgroundImageFix" result="shape"/>
<feGaussianBlur stdDeviation="12.5351" result="effect1_foregroundBlur_115_65"/>
</filter>
<filter id="filter12_f_115_65" x="304.008" y="306.538" width="62.6337" height="62.6339" filterUnits="userSpaceOnUse" color-interpolation-filters="sRGB">
<feFlood flood-opacity="0" result="BackgroundImageFix"/>
<feBlend mode="normal" in="SourceGraphic" in2="BackgroundImageFix" result="shape"/>
<feGaussianBlur stdDeviation="12.5351" result="effect1_foregroundBlur_115_65"/>
</filter>
<filter id="filter13_f_115_65" x="314.421" y="298.209" width="62.6337" height="62.6339" filterUnits="userSpaceOnUse" color-interpolation-filters="sRGB">
<feFlood flood-opacity="0" result="BackgroundImageFix"/>
<feBlend mode="normal" in="SourceGraphic" in2="BackgroundImageFix" result="shape"/>
<feGaussianBlur stdDeviation="12.5351" result="effect1_foregroundBlur_115_65"/>
</filter>
<filter id="filter14_f_115_65" x="249.87" y="241.989" width="62.6337" height="62.6339" filterUnits="userSpaceOnUse" color-interpolation-filters="sRGB">
<feFlood flood-opacity="0" result="BackgroundImageFix"/>
<feBlend mode="normal" in="SourceGraphic" in2="BackgroundImageFix" result="shape"/>
<feGaussianBlur stdDeviation="12.5351" result="effect1_foregroundBlur_115_65"/>
</filter>
<filter id="filter15_f_115_65" x="260.282" y="202.426" width="62.6337" height="62.6339" filterUnits="userSpaceOnUse" color-interpolation-filters="sRGB">
<feFlood flood-opacity="0" result="BackgroundImageFix"/>
<feBlend mode="normal" in="SourceGraphic" in2="BackgroundImageFix" result="shape"/>
<feGaussianBlur stdDeviation="12.5351" result="effect1_foregroundBlur_115_65"/>
</filter>
<filter id="filter16_f_115_65" x="341.488" y="189.932" width="62.6337" height="62.6339" filterUnits="userSpaceOnUse" color-interpolation-filters="sRGB">
<feFlood flood-opacity="0" result="BackgroundImageFix"/>
<feBlend mode="normal" in="SourceGraphic" in2="BackgroundImageFix" result="shape"/>
<feGaussianBlur stdDeviation="12.5351" result="effect1_foregroundBlur_115_65"/>
</filter>
<filter id="filter17_f_115_65" x="281.103" y="173.274" width="62.6337" height="62.6339" filterUnits="userSpaceOnUse" color-interpolation-filters="sRGB">
<feFlood flood-opacity="0" result="BackgroundImageFix"/>
<feBlend mode="normal" in="SourceGraphic" in2="BackgroundImageFix" result="shape"/>
<feGaussianBlur stdDeviation="12.5351" result="effect1_foregroundBlur_115_65"/>
</filter>
</defs>
</svg>
