<svg width="307" height="333" viewBox="0 0 307 333" fill="none" xmlns="http://www.w3.org/2000/svg">
<path d="M68.886 38.0873L67.9081 81.406L99.6122 123.988M99.6122 123.988L120.072 142.581M99.6122 123.988L84.9901 78.1037L100.525 33.554M120.072 142.581L170.452 229.127M120.072 142.581L165.858 111.405L196.472 144.171M170.452 229.127L164.924 305.821L241.4 278.355L188.191 209.274M170.452 229.127L179.266 218.868M188.191 209.274L196.472 144.171M188.191 209.274L179.266 218.868M196.472 144.171L280.106 121.11M260.151 91.6089L276.885 101.791L280.106 121.11M280.106 121.11L276.035 134.402L275.119 168.258L263.822 174.28M179.266 218.868L186.217 254.817L187.194 259.857L188.482 265.941" stroke="white" stroke-width="1.6"/>
<g filter="url(#filter0_f_99_7856)">
<circle cx="67.7845" cy="37.4889" r="7.97152" transform="rotate(2.02824 67.7845 37.4889)" fill="#FAFFB3"/>
<circle cx="67.7845" cy="37.4889" r="7.17152" transform="rotate(2.02824 67.7845 37.4889)" stroke="white" stroke-width="1.6"/>
</g>
<circle cx="67.7855" cy="37.4891" r="4.51435" transform="rotate(2.02824 67.7855 37.4891)" fill="#D9D9D9" stroke="white" stroke-width="1.6"/>
<g filter="url(#filter1_f_99_7856)">
<circle cx="100.81" cy="32.8803" r="9.06982" transform="rotate(2.02824 100.81 32.8803)" fill="#FAFFB3"/>
<circle cx="100.81" cy="32.8803" r="8.26982" transform="rotate(2.02824 100.81 32.8803)" stroke="white" stroke-width="1.6"/>
</g>
<circle cx="100.813" cy="32.8805" r="5.24655" transform="rotate(2.02824 100.813 32.8805)" fill="#D9D9D9" stroke="white" stroke-width="1.6"/>
<g filter="url(#filter2_f_99_7856)">
<circle cx="119.571" cy="144.826" r="9.10525" transform="rotate(2.02824 119.571 144.826)" fill="#FAFFB3"/>
<circle cx="119.571" cy="144.826" r="8.30525" transform="rotate(2.02824 119.571 144.826)" stroke="white" stroke-width="1.6"/>
</g>
<circle cx="119.573" cy="144.826" r="5.27017" transform="rotate(2.02824 119.573 144.826)" fill="#D9D9D9" stroke="white" stroke-width="1.6"/>
<g filter="url(#filter3_f_99_7856)">
<circle cx="164.921" cy="113.533" r="7.97152" transform="rotate(2.02824 164.921 113.533)" fill="#FAFFB3"/>
<circle cx="164.921" cy="113.533" r="7.17152" transform="rotate(2.02824 164.921 113.533)" stroke="white" stroke-width="1.6"/>
</g>
<circle cx="164.923" cy="113.533" r="4.51435" transform="rotate(2.02824 164.923 113.533)" fill="#D9D9D9" stroke="white" stroke-width="1.6"/>
<g filter="url(#filter4_f_99_7856)">
<circle cx="196.708" cy="142.949" r="9.10525" transform="rotate(2.02824 196.708 142.949)" fill="#FAFFB3"/>
<circle cx="196.708" cy="142.949" r="8.30525" transform="rotate(2.02824 196.708 142.949)" stroke="white" stroke-width="1.6"/>
</g>
<circle cx="196.708" cy="142.949" r="5.27017" transform="rotate(2.02824 196.708 142.949)" fill="#D9D9D9" stroke="white" stroke-width="1.6"/>
<g filter="url(#filter5_f_99_7856)">
<circle cx="260.947" cy="91.8695" r="7.9361" transform="rotate(2.02824 260.947 91.8695)" fill="#FAFFB3"/>
<circle cx="260.947" cy="91.8695" r="7.1361" transform="rotate(2.02824 260.947 91.8695)" stroke="white" stroke-width="1.6"/>
</g>
<circle cx="260.947" cy="91.8689" r="4.49073" transform="rotate(2.02824 260.947 91.8689)" fill="#D9D9D9" stroke="white" stroke-width="1.6"/>
<g filter="url(#filter6_f_99_7856)">
<circle cx="278.754" cy="101.576" r="7.9361" transform="rotate(2.02824 278.754 101.576)" fill="#FAFFB3"/>
<circle cx="278.754" cy="101.576" r="7.1361" transform="rotate(2.02824 278.754 101.576)" stroke="white" stroke-width="1.6"/>
</g>
<circle cx="278.756" cy="101.575" r="4.49073" transform="rotate(2.02824 278.756 101.575)" fill="#D9D9D9" stroke="white" stroke-width="1.6"/>
<g filter="url(#filter7_f_99_7856)">
<circle cx="280.378" cy="119.785" r="7.9361" transform="rotate(2.02824 280.378 119.785)" fill="#FAFFB3"/>
<circle cx="280.378" cy="119.785" r="7.1361" transform="rotate(2.02824 280.378 119.785)" stroke="white" stroke-width="1.6"/>
</g>
<circle cx="280.38" cy="119.785" r="4.49073" transform="rotate(2.02824 280.38 119.785)" fill="#D9D9D9" stroke="white" stroke-width="1.6"/>
<g filter="url(#filter8_f_99_7856)">
<circle cx="276.507" cy="165.025" r="7.9361" transform="rotate(2.02824 276.507 165.025)" fill="#FAFFB3"/>
<circle cx="276.507" cy="165.025" r="7.1361" transform="rotate(2.02824 276.507 165.025)" stroke="white" stroke-width="1.6"/>
</g>
<circle cx="276.509" cy="165.025" r="4.49073" transform="rotate(2.02824 276.509 165.025)" fill="#D9D9D9" stroke="white" stroke-width="1.6"/>
<g filter="url(#filter9_f_99_7856)">
<circle cx="276.457" cy="134.393" r="6.80237" transform="rotate(2.02824 276.457 134.393)" fill="#FAFFB3"/>
<circle cx="276.457" cy="134.393" r="6.00237" transform="rotate(2.02824 276.457 134.393)" stroke="white" stroke-width="1.6"/>
</g>
<circle cx="276.458" cy="134.393" r="3.73491" transform="rotate(2.02824 276.458 134.393)" fill="#D9D9D9" stroke="white" stroke-width="1.6"/>
<g filter="url(#filter10_f_99_7856)">
<circle cx="260.325" cy="173.527" r="7.9361" transform="rotate(2.02824 260.325 173.527)" fill="#FAFFB3"/>
<circle cx="260.325" cy="173.527" r="7.1361" transform="rotate(2.02824 260.325 173.527)" stroke="white" stroke-width="1.6"/>
</g>
<circle cx="260.325" cy="173.528" r="4.49073" transform="rotate(2.02824 260.325 173.528)" fill="#D9D9D9" stroke="white" stroke-width="1.6"/>
<g filter="url(#filter11_f_99_7856)">
<circle cx="169.863" cy="229.315" r="7.9361" transform="rotate(2.02824 169.863 229.315)" fill="#FAFFB3"/>
<circle cx="169.863" cy="229.315" r="7.1361" transform="rotate(2.02824 169.863 229.315)" stroke="white" stroke-width="1.6"/>
</g>
<circle cx="169.863" cy="229.315" r="4.49073" transform="rotate(2.02824 169.863 229.315)" fill="#D9D9D9" stroke="white" stroke-width="1.6"/>
<g filter="url(#filter12_f_99_7856)">
<circle cx="178.154" cy="219.398" r="4.53491" transform="rotate(2.02824 178.154 219.398)" fill="#FAFFB3"/>
<circle cx="178.154" cy="219.398" r="3.73491" transform="rotate(2.02824 178.154 219.398)" stroke="white" stroke-width="1.6"/>
</g>
<circle cx="178.154" cy="219.398" r="2.22327" transform="rotate(2.02824 178.154 219.398)" fill="#D9D9D9" stroke="white" stroke-width="1.6"/>
<g filter="url(#filter13_f_99_7856)">
<circle cx="187.107" cy="254.883" r="3.40118" transform="rotate(2.02824 187.107 254.883)" fill="#FAFFB3"/>
<circle cx="187.107" cy="254.883" r="2.60118" transform="rotate(2.02824 187.107 254.883)" stroke="white" stroke-width="1.6"/>
</g>
<circle cx="187.107" cy="254.883" r="1.46746" transform="rotate(2.02824 187.107 254.883)" fill="#D9D9D9" stroke="white" stroke-width="1.6"/>
<g filter="url(#filter14_f_99_7856)">
<circle cx="189.212" cy="259.495" r="3.40118" transform="rotate(2.02824 189.212 259.495)" fill="#FAFFB3"/>
<circle cx="189.212" cy="259.495" r="2.60118" transform="rotate(2.02824 189.212 259.495)" stroke="white" stroke-width="1.6"/>
</g>
<circle cx="189.213" cy="259.495" r="1.46746" transform="rotate(2.02824 189.213 259.495)" fill="#D9D9D9" stroke="white" stroke-width="1.6"/>
<g filter="url(#filter15_f_99_7856)">
<circle cx="188.972" cy="266.293" r="3.40118" transform="rotate(2.02824 188.972 266.293)" fill="#FAFFB3"/>
<circle cx="188.972" cy="266.293" r="2.60118" transform="rotate(2.02824 188.972 266.293)" stroke="white" stroke-width="1.6"/>
</g>
<circle cx="188.972" cy="266.293" r="1.46746" transform="rotate(2.02824 188.972 266.293)" fill="#D9D9D9" stroke="white" stroke-width="1.6"/>
<g filter="url(#filter16_f_99_7856)">
<circle cx="188.632" cy="211.828" r="7.9361" transform="rotate(2.02824 188.632 211.828)" fill="#FAFFB3"/>
<circle cx="188.632" cy="211.828" r="7.1361" transform="rotate(2.02824 188.632 211.828)" stroke="white" stroke-width="1.6"/>
</g>
<circle cx="188.634" cy="211.828" r="4.49073" transform="rotate(2.02824 188.634 211.828)" fill="#D9D9D9" stroke="white" stroke-width="1.6"/>
<g filter="url(#filter17_f_99_7856)">
<circle cx="240.771" cy="277.203" r="7.9361" transform="rotate(2.02824 240.771 277.203)" fill="#FAFFB3"/>
<circle cx="240.771" cy="277.203" r="7.1361" transform="rotate(2.02824 240.771 277.203)" stroke="white" stroke-width="1.6"/>
</g>
<circle cx="240.772" cy="277.203" r="4.49073" transform="rotate(2.02824 240.772 277.203)" fill="#D9D9D9" stroke="white" stroke-width="1.6"/>
<g filter="url(#filter18_f_99_7856)">
<circle cx="162.601" cy="306.199" r="7.9361" transform="rotate(2.02824 162.601 306.199)" fill="#FAFFB3"/>
<circle cx="162.601" cy="306.199" r="7.1361" transform="rotate(2.02824 162.601 306.199)" stroke="white" stroke-width="1.6"/>
</g>
<circle cx="162.602" cy="306.199" r="4.49073" transform="rotate(2.02824 162.602 306.199)" fill="#D9D9D9" stroke="white" stroke-width="1.6"/>
<g filter="url(#filter19_f_99_7856)">
<circle cx="68.5295" cy="80.5533" r="7.97145" transform="rotate(2.02824 68.5295 80.5533)" fill="#FAFFB3"/>
<circle cx="68.5295" cy="80.5533" r="7.17145" transform="rotate(2.02824 68.5295 80.5533)" stroke="white" stroke-width="1.6"/>
</g>
<circle cx="68.5306" cy="80.5535" r="4.5143" transform="rotate(2.02824 68.5306 80.5535)" fill="#D9D9D9" stroke="white" stroke-width="1.6"/>
<g filter="url(#filter20_f_99_7856)">
<circle cx="85.6437" cy="77.7559" r="6.83772" transform="rotate(2.02824 85.6437 77.7559)" fill="#FAFFB3"/>
<circle cx="85.6437" cy="77.7559" r="6.03772" transform="rotate(2.02824 85.6437 77.7559)" stroke="white" stroke-width="1.6"/>
</g>
<circle cx="85.6438" cy="77.756" r="3.75848" transform="rotate(2.02824 85.6438 77.756)" fill="#D9D9D9" stroke="white" stroke-width="1.6"/>
<g filter="url(#filter21_f_99_7856)">
<circle cx="98.7738" cy="122.429" r="7.9361" transform="rotate(2.02824 98.7738 122.429)" fill="#FAFFB3"/>
<circle cx="98.7738" cy="122.429" r="7.1361" transform="rotate(2.02824 98.7738 122.429)" stroke="white" stroke-width="1.6"/>
</g>
<circle cx="98.7745" cy="122.429" r="4.49073" transform="rotate(2.02824 98.7745 122.429)" fill="#D9D9D9" stroke="white" stroke-width="1.6"/>
<defs>
<filter id="filter0_f_99_7856" x="36.0028" y="5.70711" width="63.5638" height="63.5636" filterUnits="userSpaceOnUse" color-interpolation-filters="sRGB">
<feFlood flood-opacity="0" result="BackgroundImageFix"/>
<feBlend mode="normal" in="SourceGraphic" in2="BackgroundImageFix" result="shape"/>
<feGaussianBlur stdDeviation="11.9051" result="effect1_foregroundBlur_99_7856"/>
</filter>
<filter id="filter1_f_99_7856" x="67.9295" y="7.62939e-05" width="65.7611" height="65.7603" filterUnits="userSpaceOnUse" color-interpolation-filters="sRGB">
<feFlood flood-opacity="0" result="BackgroundImageFix"/>
<feBlend mode="normal" in="SourceGraphic" in2="BackgroundImageFix" result="shape"/>
<feGaussianBlur stdDeviation="11.9051" result="effect1_foregroundBlur_99_7856"/>
</filter>
<filter id="filter2_f_99_7856" x="86.6551" y="111.91" width="65.8314" height="65.8311" filterUnits="userSpaceOnUse" color-interpolation-filters="sRGB">
<feFlood flood-opacity="0" result="BackgroundImageFix"/>
<feBlend mode="normal" in="SourceGraphic" in2="BackgroundImageFix" result="shape"/>
<feGaussianBlur stdDeviation="11.9051" result="effect1_foregroundBlur_99_7856"/>
</filter>
<filter id="filter3_f_99_7856" x="133.139" y="81.7513" width="63.5638" height="63.5636" filterUnits="userSpaceOnUse" color-interpolation-filters="sRGB">
<feFlood flood-opacity="0" result="BackgroundImageFix"/>
<feBlend mode="normal" in="SourceGraphic" in2="BackgroundImageFix" result="shape"/>
<feGaussianBlur stdDeviation="11.9051" result="effect1_foregroundBlur_99_7856"/>
</filter>
<filter id="filter4_f_99_7856" x="163.793" y="110.033" width="65.8314" height="65.8311" filterUnits="userSpaceOnUse" color-interpolation-filters="sRGB">
<feFlood flood-opacity="0" result="BackgroundImageFix"/>
<feBlend mode="normal" in="SourceGraphic" in2="BackgroundImageFix" result="shape"/>
<feGaussianBlur stdDeviation="11.9051" result="effect1_foregroundBlur_99_7856"/>
</filter>
<filter id="filter5_f_99_7856" x="234.49" y="65.4127" width="52.9144" height="52.9137" filterUnits="userSpaceOnUse" color-interpolation-filters="sRGB">
<feFlood flood-opacity="0" result="BackgroundImageFix"/>
<feBlend mode="normal" in="SourceGraphic" in2="BackgroundImageFix" result="shape"/>
<feGaussianBlur stdDeviation="9.26034" result="effect1_foregroundBlur_99_7856"/>
</filter>
<filter id="filter6_f_99_7856" x="252.297" y="75.119" width="52.9144" height="52.9137" filterUnits="userSpaceOnUse" color-interpolation-filters="sRGB">
<feFlood flood-opacity="0" result="BackgroundImageFix"/>
<feBlend mode="normal" in="SourceGraphic" in2="BackgroundImageFix" result="shape"/>
<feGaussianBlur stdDeviation="9.26034" result="effect1_foregroundBlur_99_7856"/>
</filter>
<filter id="filter7_f_99_7856" x="253.921" y="93.3277" width="52.9144" height="52.9137" filterUnits="userSpaceOnUse" color-interpolation-filters="sRGB">
<feFlood flood-opacity="0" result="BackgroundImageFix"/>
<feBlend mode="normal" in="SourceGraphic" in2="BackgroundImageFix" result="shape"/>
<feGaussianBlur stdDeviation="9.26034" result="effect1_foregroundBlur_99_7856"/>
</filter>
<filter id="filter8_f_99_7856" x="250.05" y="138.568" width="52.9144" height="52.9137" filterUnits="userSpaceOnUse" color-interpolation-filters="sRGB">
<feFlood flood-opacity="0" result="BackgroundImageFix"/>
<feBlend mode="normal" in="SourceGraphic" in2="BackgroundImageFix" result="shape"/>
<feGaussianBlur stdDeviation="9.26034" result="effect1_foregroundBlur_99_7856"/>
</filter>
<filter id="filter9_f_99_7856" x="251.134" y="109.07" width="50.6459" height="50.6463" filterUnits="userSpaceOnUse" color-interpolation-filters="sRGB">
<feFlood flood-opacity="0" result="BackgroundImageFix"/>
<feBlend mode="normal" in="SourceGraphic" in2="BackgroundImageFix" result="shape"/>
<feGaussianBlur stdDeviation="9.26034" result="effect1_foregroundBlur_99_7856"/>
</filter>
<filter id="filter10_f_99_7856" x="233.867" y="147.07" width="52.9144" height="52.9137" filterUnits="userSpaceOnUse" color-interpolation-filters="sRGB">
<feFlood flood-opacity="0" result="BackgroundImageFix"/>
<feBlend mode="normal" in="SourceGraphic" in2="BackgroundImageFix" result="shape"/>
<feGaussianBlur stdDeviation="9.26034" result="effect1_foregroundBlur_99_7856"/>
</filter>
<filter id="filter11_f_99_7856" x="143.406" y="202.858" width="52.9144" height="52.9137" filterUnits="userSpaceOnUse" color-interpolation-filters="sRGB">
<feFlood flood-opacity="0" result="BackgroundImageFix"/>
<feBlend mode="normal" in="SourceGraphic" in2="BackgroundImageFix" result="shape"/>
<feGaussianBlur stdDeviation="9.26034" result="effect1_foregroundBlur_99_7856"/>
</filter>
<filter id="filter12_f_99_7856" x="155.099" y="196.343" width="46.1107" height="46.1112" filterUnits="userSpaceOnUse" color-interpolation-filters="sRGB">
<feFlood flood-opacity="0" result="BackgroundImageFix"/>
<feBlend mode="normal" in="SourceGraphic" in2="BackgroundImageFix" result="shape"/>
<feGaussianBlur stdDeviation="9.26034" result="effect1_foregroundBlur_99_7856"/>
</filter>
<filter id="filter13_f_99_7856" x="165.186" y="232.961" width="43.8431" height="43.8438" filterUnits="userSpaceOnUse" color-interpolation-filters="sRGB">
<feFlood flood-opacity="0" result="BackgroundImageFix"/>
<feBlend mode="normal" in="SourceGraphic" in2="BackgroundImageFix" result="shape"/>
<feGaussianBlur stdDeviation="9.26034" result="effect1_foregroundBlur_99_7856"/>
</filter>
<filter id="filter14_f_99_7856" x="167.29" y="237.573" width="43.8431" height="43.8438" filterUnits="userSpaceOnUse" color-interpolation-filters="sRGB">
<feFlood flood-opacity="0" result="BackgroundImageFix"/>
<feBlend mode="normal" in="SourceGraphic" in2="BackgroundImageFix" result="shape"/>
<feGaussianBlur stdDeviation="9.26034" result="effect1_foregroundBlur_99_7856"/>
</filter>
<filter id="filter15_f_99_7856" x="167.05" y="244.371" width="43.8431" height="43.8438" filterUnits="userSpaceOnUse" color-interpolation-filters="sRGB">
<feFlood flood-opacity="0" result="BackgroundImageFix"/>
<feBlend mode="normal" in="SourceGraphic" in2="BackgroundImageFix" result="shape"/>
<feGaussianBlur stdDeviation="9.26034" result="effect1_foregroundBlur_99_7856"/>
</filter>
<filter id="filter16_f_99_7856" x="162.175" y="185.371" width="52.9144" height="52.9137" filterUnits="userSpaceOnUse" color-interpolation-filters="sRGB">
<feFlood flood-opacity="0" result="BackgroundImageFix"/>
<feBlend mode="normal" in="SourceGraphic" in2="BackgroundImageFix" result="shape"/>
<feGaussianBlur stdDeviation="9.26034" result="effect1_foregroundBlur_99_7856"/>
</filter>
<filter id="filter17_f_99_7856" x="214.314" y="250.746" width="52.9144" height="52.9137" filterUnits="userSpaceOnUse" color-interpolation-filters="sRGB">
<feFlood flood-opacity="0" result="BackgroundImageFix"/>
<feBlend mode="normal" in="SourceGraphic" in2="BackgroundImageFix" result="shape"/>
<feGaussianBlur stdDeviation="9.26034" result="effect1_foregroundBlur_99_7856"/>
</filter>
<filter id="filter18_f_99_7856" x="136.144" y="279.742" width="52.9144" height="52.9137" filterUnits="userSpaceOnUse" color-interpolation-filters="sRGB">
<feFlood flood-opacity="0" result="BackgroundImageFix"/>
<feBlend mode="normal" in="SourceGraphic" in2="BackgroundImageFix" result="shape"/>
<feGaussianBlur stdDeviation="9.26034" result="effect1_foregroundBlur_99_7856"/>
</filter>
<filter id="filter19_f_99_7856" x="42.0371" y="54.0608" width="52.9854" height="52.9851" filterUnits="userSpaceOnUse" color-interpolation-filters="sRGB">
<feFlood flood-opacity="0" result="BackgroundImageFix"/>
<feBlend mode="normal" in="SourceGraphic" in2="BackgroundImageFix" result="shape"/>
<feGaussianBlur stdDeviation="9.2605" result="effect1_foregroundBlur_99_7856"/>
</filter>
<filter id="filter20_f_99_7856" x="60.2851" y="52.397" width="50.7178" height="50.7178" filterUnits="userSpaceOnUse" color-interpolation-filters="sRGB">
<feFlood flood-opacity="0" result="BackgroundImageFix"/>
<feBlend mode="normal" in="SourceGraphic" in2="BackgroundImageFix" result="shape"/>
<feGaussianBlur stdDeviation="9.2605" result="effect1_foregroundBlur_99_7856"/>
</filter>
<filter id="filter21_f_99_7856" x="72.3164" y="95.9714" width="52.9151" height="52.9143" filterUnits="userSpaceOnUse" color-interpolation-filters="sRGB">
<feFlood flood-opacity="0" result="BackgroundImageFix"/>
<feBlend mode="normal" in="SourceGraphic" in2="BackgroundImageFix" result="shape"/>
<feGaussianBlur stdDeviation="9.2605" result="effect1_foregroundBlur_99_7856"/>
</filter>
</defs>
</svg>
