<svg width="340" height="317" viewBox="0 0 340 317" fill="none" xmlns="http://www.w3.org/2000/svg">
<path d="M58.9703 208.363L39.0139 223.412L26.1689 241.337L49.2851 277.453L106.399 285.46L144.392 275.757L152.011 221.406L165.726 183.878L212.793 122.846L231.294 104.775M231.294 104.775L303.879 42.6237M231.294 104.775L313.582 80.6166M231.294 104.775L307.642 122.992" stroke="white" stroke-width="1.6"/>
<g filter="url(#filter0_f_99_7539)">
<circle cx="57.1276" cy="208.104" r="8.37186" transform="rotate(7.97987 57.1276 208.104)" fill="#FAFFB3"/>
<circle cx="57.1276" cy="208.104" r="7.57186" transform="rotate(7.97987 57.1276 208.104)" stroke="white" stroke-width="1.6"/>
</g>
<circle cx="57.1274" cy="208.105" r="4.78124" transform="rotate(7.97987 57.1274 208.105)" fill="#D9D9D9" stroke="white" stroke-width="1.6"/>
<g filter="url(#filter1_f_99_7539)">
<circle cx="36.6552" cy="226.839" r="5.58124" transform="rotate(7.97987 36.6552 226.839)" fill="#FAFFB3"/>
<circle cx="36.6552" cy="226.839" r="4.78124" transform="rotate(7.97987 36.6552 226.839)" stroke="white" stroke-width="1.6"/>
</g>
<circle cx="36.6556" cy="226.839" r="2.92083" transform="rotate(7.97987 36.6556 226.839)" fill="#D9D9D9" stroke="white" stroke-width="1.6"/>
<g filter="url(#filter2_f_99_7539)">
<circle cx="25.1181" cy="242.129" r="5.58124" transform="rotate(7.97987 25.1181 242.129)" fill="#FAFFB3"/>
<circle cx="25.1181" cy="242.129" r="4.78124" transform="rotate(7.97987 25.1181 242.129)" stroke="white" stroke-width="1.6"/>
</g>
<circle cx="25.1175" cy="242.129" r="2.92083" transform="rotate(7.97987 25.1175 242.129)" fill="#D9D9D9" stroke="white" stroke-width="1.6"/>
<g filter="url(#filter3_f_99_7539)">
<circle cx="47.8301" cy="274.431" r="6.51145" transform="rotate(7.97987 47.8301 274.431)" fill="#FAFFB3"/>
<circle cx="47.8301" cy="274.431" r="5.71145" transform="rotate(7.97987 47.8301 274.431)" stroke="white" stroke-width="1.6"/>
</g>
<circle cx="47.8306" cy="274.432" r="3.54097" transform="rotate(7.97987 47.8306 274.432)" fill="#D9D9D9" stroke="white" stroke-width="1.6"/>
<g filter="url(#filter4_f_99_7539)">
<circle cx="104.686" cy="284.28" r="6.51145" transform="rotate(7.97987 104.686 284.28)" fill="#FAFFB3"/>
<circle cx="104.686" cy="284.28" r="5.71145" transform="rotate(7.97987 104.686 284.28)" stroke="white" stroke-width="1.6"/>
</g>
<circle cx="104.687" cy="284.28" r="3.54097" transform="rotate(7.97987 104.687 284.28)" fill="#D9D9D9" stroke="white" stroke-width="1.6"/>
<g filter="url(#filter5_f_99_7539)">
<circle cx="143.6" cy="274.706" r="6.51145" transform="rotate(7.97987 143.6 274.706)" fill="#FAFFB3"/>
<circle cx="143.6" cy="274.706" r="5.71145" transform="rotate(7.97987 143.6 274.706)" stroke="white" stroke-width="1.6"/>
</g>
<circle cx="143.601" cy="274.707" r="3.54097" transform="rotate(7.97987 143.601 274.707)" fill="#D9D9D9" stroke="white" stroke-width="1.6"/>
<g filter="url(#filter6_f_99_7539)">
<circle cx="165.726" cy="183.878" r="6.51145" transform="rotate(7.97987 165.726 183.878)" fill="#FAFFB3"/>
<circle cx="165.726" cy="183.878" r="5.71145" transform="rotate(7.97987 165.726 183.878)" stroke="white" stroke-width="1.6"/>
</g>
<circle cx="165.727" cy="183.878" r="3.54097" transform="rotate(7.97987 165.727 183.878)" fill="#D9D9D9" stroke="white" stroke-width="1.6"/>
<g filter="url(#filter7_f_99_7539)">
<circle cx="213.714" cy="122.975" r="6.51145" transform="rotate(7.97987 213.714 122.975)" fill="#FAFFB3"/>
<circle cx="213.714" cy="122.975" r="5.71145" transform="rotate(7.97987 213.714 122.975)" stroke="white" stroke-width="1.6"/>
</g>
<circle cx="213.715" cy="122.975" r="3.54097" transform="rotate(7.97987 213.715 122.975)" fill="#D9D9D9" stroke="white" stroke-width="1.6"/>
<g filter="url(#filter8_f_99_7539)">
<circle cx="304.008" cy="41.7024" r="6.51145" transform="rotate(7.97987 304.008 41.7024)" fill="#FAFFB3"/>
<circle cx="304.008" cy="41.7024" r="5.71145" transform="rotate(7.97987 304.008 41.7024)" stroke="white" stroke-width="1.6"/>
</g>
<circle cx="304.008" cy="41.7026" r="3.54097" transform="rotate(7.97987 304.008 41.7026)" fill="#D9D9D9" stroke="white" stroke-width="1.6"/>
<g filter="url(#filter9_f_99_7539)">
<circle cx="313.84" cy="78.774" r="6.51145" transform="rotate(7.97987 313.84 78.774)" fill="#FAFFB3"/>
<circle cx="313.84" cy="78.774" r="5.71145" transform="rotate(7.97987 313.84 78.774)" stroke="white" stroke-width="1.6"/>
</g>
<circle cx="313.84" cy="78.7741" r="3.54097" transform="rotate(7.97987 313.84 78.7741)" fill="#D9D9D9" stroke="white" stroke-width="1.6"/>
<g filter="url(#filter10_f_99_7539)">
<circle cx="307.642" cy="122.992" r="6.51145" transform="rotate(7.97987 307.642 122.992)" fill="#FAFFB3"/>
<circle cx="307.642" cy="122.992" r="5.71145" transform="rotate(7.97987 307.642 122.992)" stroke="white" stroke-width="1.6"/>
</g>
<circle cx="307.641" cy="122.992" r="3.54097" transform="rotate(7.97987 307.641 122.992)" fill="#D9D9D9" stroke="white" stroke-width="1.6"/>
<g filter="url(#filter11_f_99_7539)">
<circle cx="231.294" cy="104.774" r="8.37186" transform="rotate(7.97987 231.294 104.774)" fill="#FAFFB3"/>
<circle cx="231.294" cy="104.774" r="7.57186" transform="rotate(7.97987 231.294 104.774)" stroke="white" stroke-width="1.6"/>
</g>
<circle cx="231.295" cy="104.775" r="4.78124" transform="rotate(7.97987 231.295 104.775)" fill="#D9D9D9" stroke="white" stroke-width="1.6"/>
<g filter="url(#filter12_f_99_7539)">
<circle cx="151.366" cy="226.012" r="5.58124" transform="rotate(7.97987 151.366 226.012)" fill="#FAFFB3"/>
<circle cx="151.366" cy="226.012" r="4.78124" transform="rotate(7.97987 151.366 226.012)" stroke="white" stroke-width="1.6"/>
</g>
<circle cx="151.367" cy="226.013" r="2.92083" transform="rotate(7.97987 151.367 226.013)" fill="#D9D9D9" stroke="white" stroke-width="1.6"/>
<defs>
<filter id="filter0_f_99_7539" x="29.2189" y="180.196" width="55.8175" height="55.8177" filterUnits="userSpaceOnUse" color-interpolation-filters="sRGB">
<feFlood flood-opacity="0" result="BackgroundImageFix"/>
<feBlend mode="normal" in="SourceGraphic" in2="BackgroundImageFix" result="shape"/>
<feGaussianBlur stdDeviation="9.76797" result="effect1_foregroundBlur_99_7539"/>
</filter>
<filter id="filter1_f_99_7539" x="11.5373" y="201.721" width="50.2359" height="50.2359" filterUnits="userSpaceOnUse" color-interpolation-filters="sRGB">
<feFlood flood-opacity="0" result="BackgroundImageFix"/>
<feBlend mode="normal" in="SourceGraphic" in2="BackgroundImageFix" result="shape"/>
<feGaussianBlur stdDeviation="9.76797" result="effect1_foregroundBlur_99_7539"/>
</filter>
<filter id="filter2_f_99_7539" x="0.000192642" y="217.011" width="50.2359" height="50.2359" filterUnits="userSpaceOnUse" color-interpolation-filters="sRGB">
<feFlood flood-opacity="0" result="BackgroundImageFix"/>
<feBlend mode="normal" in="SourceGraphic" in2="BackgroundImageFix" result="shape"/>
<feGaussianBlur stdDeviation="9.76797" result="effect1_foregroundBlur_99_7539"/>
</filter>
<filter id="filter3_f_99_7539" x="21.7819" y="248.383" width="52.0963" height="52.0963" filterUnits="userSpaceOnUse" color-interpolation-filters="sRGB">
<feFlood flood-opacity="0" result="BackgroundImageFix"/>
<feBlend mode="normal" in="SourceGraphic" in2="BackgroundImageFix" result="shape"/>
<feGaussianBlur stdDeviation="9.76797" result="effect1_foregroundBlur_99_7539"/>
</filter>
<filter id="filter4_f_99_7539" x="78.6379" y="258.232" width="52.0963" height="52.0963" filterUnits="userSpaceOnUse" color-interpolation-filters="sRGB">
<feFlood flood-opacity="0" result="BackgroundImageFix"/>
<feBlend mode="normal" in="SourceGraphic" in2="BackgroundImageFix" result="shape"/>
<feGaussianBlur stdDeviation="9.76797" result="effect1_foregroundBlur_99_7539"/>
</filter>
<filter id="filter5_f_99_7539" x="117.552" y="248.658" width="52.0963" height="52.0963" filterUnits="userSpaceOnUse" color-interpolation-filters="sRGB">
<feFlood flood-opacity="0" result="BackgroundImageFix"/>
<feBlend mode="normal" in="SourceGraphic" in2="BackgroundImageFix" result="shape"/>
<feGaussianBlur stdDeviation="9.76797" result="effect1_foregroundBlur_99_7539"/>
</filter>
<filter id="filter6_f_99_7539" x="139.678" y="157.83" width="52.0963" height="52.0963" filterUnits="userSpaceOnUse" color-interpolation-filters="sRGB">
<feFlood flood-opacity="0" result="BackgroundImageFix"/>
<feBlend mode="normal" in="SourceGraphic" in2="BackgroundImageFix" result="shape"/>
<feGaussianBlur stdDeviation="9.76797" result="effect1_foregroundBlur_99_7539"/>
</filter>
<filter id="filter7_f_99_7539" x="187.666" y="96.9265" width="52.0963" height="52.0963" filterUnits="userSpaceOnUse" color-interpolation-filters="sRGB">
<feFlood flood-opacity="0" result="BackgroundImageFix"/>
<feBlend mode="normal" in="SourceGraphic" in2="BackgroundImageFix" result="shape"/>
<feGaussianBlur stdDeviation="9.76797" result="effect1_foregroundBlur_99_7539"/>
</filter>
<filter id="filter8_f_99_7539" x="277.96" y="15.6542" width="52.0963" height="52.0963" filterUnits="userSpaceOnUse" color-interpolation-filters="sRGB">
<feFlood flood-opacity="0" result="BackgroundImageFix"/>
<feBlend mode="normal" in="SourceGraphic" in2="BackgroundImageFix" result="shape"/>
<feGaussianBlur stdDeviation="9.76797" result="effect1_foregroundBlur_99_7539"/>
</filter>
<filter id="filter9_f_99_7539" x="287.792" y="52.7258" width="52.0963" height="52.0963" filterUnits="userSpaceOnUse" color-interpolation-filters="sRGB">
<feFlood flood-opacity="0" result="BackgroundImageFix"/>
<feBlend mode="normal" in="SourceGraphic" in2="BackgroundImageFix" result="shape"/>
<feGaussianBlur stdDeviation="9.76797" result="effect1_foregroundBlur_99_7539"/>
</filter>
<filter id="filter10_f_99_7539" x="281.593" y="96.9433" width="52.0963" height="52.0963" filterUnits="userSpaceOnUse" color-interpolation-filters="sRGB">
<feFlood flood-opacity="0" result="BackgroundImageFix"/>
<feBlend mode="normal" in="SourceGraphic" in2="BackgroundImageFix" result="shape"/>
<feGaussianBlur stdDeviation="9.76797" result="effect1_foregroundBlur_99_7539"/>
</filter>
<filter id="filter11_f_99_7539" x="203.385" y="76.8654" width="55.8175" height="55.8177" filterUnits="userSpaceOnUse" color-interpolation-filters="sRGB">
<feFlood flood-opacity="0" result="BackgroundImageFix"/>
<feBlend mode="normal" in="SourceGraphic" in2="BackgroundImageFix" result="shape"/>
<feGaussianBlur stdDeviation="9.76797" result="effect1_foregroundBlur_99_7539"/>
</filter>
<filter id="filter12_f_99_7539" x="126.248" y="200.894" width="50.2359" height="50.2359" filterUnits="userSpaceOnUse" color-interpolation-filters="sRGB">
<feFlood flood-opacity="0" result="BackgroundImageFix"/>
<feBlend mode="normal" in="SourceGraphic" in2="BackgroundImageFix" result="shape"/>
<feGaussianBlur stdDeviation="9.76797" result="effect1_foregroundBlur_99_7539"/>
</filter>
</defs>
</svg>
