<svg width="377" height="349" viewBox="0 0 377 349" fill="none" xmlns="http://www.w3.org/2000/svg">
<path d="M75.815 39.0479L171.902 102.42L203.099 151.92L217.871 197.796M217.871 197.796L254.011 240.843L329.953 267.022L354.801 301.418M217.871 197.796L187.477 192.662L159.109 180.937L23.4285 114.112" stroke="white" stroke-width="1.6"/>
<g filter="url(#filter0_f_99_7577)">
<circle cx="23.7125" cy="116.249" r="8.62241" transform="rotate(-7.54425 23.7125 116.249)" fill="#FAFFB3"/>
<circle cx="23.7125" cy="116.249" r="7.82241" transform="rotate(-7.54425 23.7125 116.249)" stroke="white" stroke-width="1.6"/>
</g>
<circle cx="23.7129" cy="116.249" r="4.94775" transform="rotate(-7.54425 23.7129 116.249)" fill="#D9D9D9" stroke="white" stroke-width="1.6"/>
<g filter="url(#filter1_f_99_7577)">
<circle cx="75.9095" cy="39.7603" r="7.18469" transform="rotate(-7.54425 75.9095 39.7603)" fill="#FAFFB3"/>
<circle cx="75.9095" cy="39.7603" r="6.38469" transform="rotate(-7.54425 75.9095 39.7603)" stroke="white" stroke-width="1.6"/>
</g>
<circle cx="75.9089" cy="39.7603" r="3.98935" transform="rotate(-7.54425 75.9089 39.7603)" fill="#D9D9D9" stroke="white" stroke-width="1.6"/>
<g filter="url(#filter2_f_99_7577)">
<circle cx="171.19" cy="102.515" r="7.18469" transform="rotate(-7.54425 171.19 102.515)" fill="#FAFFB3"/>
<circle cx="171.19" cy="102.515" r="6.38469" transform="rotate(-7.54425 171.19 102.515)" stroke="white" stroke-width="1.6"/>
</g>
<circle cx="171.19" cy="102.515" r="3.98935" transform="rotate(-7.54425 171.19 102.515)" fill="#D9D9D9" stroke="white" stroke-width="1.6"/>
<g filter="url(#filter3_f_99_7577)">
<circle cx="202.198" cy="150.59" r="7.18469" transform="rotate(-7.54425 202.198 150.59)" fill="#FAFFB3"/>
<circle cx="202.198" cy="150.59" r="6.38469" transform="rotate(-7.54425 202.198 150.59)" stroke="white" stroke-width="1.6"/>
</g>
<circle cx="202.198" cy="150.59" r="3.98935" transform="rotate(-7.54425 202.198 150.59)" fill="#D9D9D9" stroke="white" stroke-width="1.6"/>
<g filter="url(#filter4_f_99_7577)">
<circle cx="158.586" cy="182.456" r="7.18469" transform="rotate(-7.54425 158.586 182.456)" fill="#FAFFB3"/>
<circle cx="158.586" cy="182.456" r="6.38469" transform="rotate(-7.54425 158.586 182.456)" stroke="white" stroke-width="1.6"/>
</g>
<circle cx="158.586" cy="182.456" r="3.98935" transform="rotate(-7.54425 158.586 182.456)" fill="#D9D9D9" stroke="white" stroke-width="1.6"/>
<g filter="url(#filter5_f_99_7577)">
<circle cx="215.735" cy="198.079" r="7.18469" transform="rotate(-7.54425 215.735 198.079)" fill="#FAFFB3"/>
<circle cx="215.735" cy="198.079" r="6.38469" transform="rotate(-7.54425 215.735 198.079)" stroke="white" stroke-width="1.6"/>
</g>
<circle cx="215.735" cy="198.079" r="3.98935" transform="rotate(-7.54425 215.735 198.079)" fill="#D9D9D9" stroke="white" stroke-width="1.6"/>
<g filter="url(#filter6_f_99_7577)">
<circle cx="254.723" cy="240.749" r="7.18469" transform="rotate(-7.54425 254.723 240.749)" fill="#FAFFB3"/>
<circle cx="254.723" cy="240.749" r="6.38469" transform="rotate(-7.54425 254.723 240.749)" stroke="white" stroke-width="1.6"/>
</g>
<circle cx="254.723" cy="240.749" r="3.98935" transform="rotate(-7.54425 254.723 240.749)" fill="#D9D9D9" stroke="white" stroke-width="1.6"/>
<g filter="url(#filter7_f_99_7577)">
<circle cx="330.853" cy="268.353" r="7.18469" transform="rotate(-7.54425 330.853 268.353)" fill="#FAFFB3"/>
<circle cx="330.853" cy="268.353" r="6.38469" transform="rotate(-7.54425 330.853 268.353)" stroke="white" stroke-width="1.6"/>
</g>
<circle cx="330.854" cy="268.352" r="3.98935" transform="rotate(-7.54425 330.854 268.352)" fill="#D9D9D9" stroke="white" stroke-width="1.6"/>
<g filter="url(#filter8_f_99_7577)">
<circle cx="353.9" cy="300.088" r="7.18469" transform="rotate(-7.54425 353.9 300.088)" fill="#FAFFB3"/>
<circle cx="353.9" cy="300.088" r="6.38469" transform="rotate(-7.54425 353.9 300.088)" stroke="white" stroke-width="1.6"/>
</g>
<circle cx="353.9" cy="300.087" r="3.98935" transform="rotate(-7.54425 353.9 300.087)" fill="#D9D9D9" stroke="white" stroke-width="1.6"/>
<g filter="url(#filter9_f_99_7577)">
<circle cx="187.537" cy="193.117" r="5.74775" transform="rotate(-7.54425 187.537 193.117)" fill="#FAFFB3"/>
<circle cx="187.537" cy="193.117" r="4.94775" transform="rotate(-7.54425 187.537 193.117)" stroke="white" stroke-width="1.6"/>
</g>
<circle cx="187.538" cy="193.116" r="3.03148" transform="rotate(-7.54425 187.538 193.116)" fill="#D9D9D9" stroke="white" stroke-width="1.6"/>
<defs>
<filter id="filter0_f_99_7577" x="0.00028801" y="92.5367" width="47.4247" height="47.425" filterUnits="userSpaceOnUse" color-interpolation-filters="sRGB">
<feFlood flood-opacity="0" result="BackgroundImageFix"/>
<feBlend mode="normal" in="SourceGraphic" in2="BackgroundImageFix" result="shape"/>
<feGaussianBlur stdDeviation="7.54453" result="effect1_foregroundBlur_99_7577"/>
</filter>
<filter id="filter1_f_99_7577" x="53.6351" y="17.4857" width="44.5492" height="44.5492" filterUnits="userSpaceOnUse" color-interpolation-filters="sRGB">
<feFlood flood-opacity="0" result="BackgroundImageFix"/>
<feBlend mode="normal" in="SourceGraphic" in2="BackgroundImageFix" result="shape"/>
<feGaussianBlur stdDeviation="7.54453" result="effect1_foregroundBlur_99_7577"/>
</filter>
<filter id="filter2_f_99_7577" x="148.915" y="80.2401" width="44.5492" height="44.5492" filterUnits="userSpaceOnUse" color-interpolation-filters="sRGB">
<feFlood flood-opacity="0" result="BackgroundImageFix"/>
<feBlend mode="normal" in="SourceGraphic" in2="BackgroundImageFix" result="shape"/>
<feGaussianBlur stdDeviation="7.54453" result="effect1_foregroundBlur_99_7577"/>
</filter>
<filter id="filter3_f_99_7577" x="179.924" y="128.315" width="44.5492" height="44.5492" filterUnits="userSpaceOnUse" color-interpolation-filters="sRGB">
<feFlood flood-opacity="0" result="BackgroundImageFix"/>
<feBlend mode="normal" in="SourceGraphic" in2="BackgroundImageFix" result="shape"/>
<feGaussianBlur stdDeviation="7.54453" result="effect1_foregroundBlur_99_7577"/>
</filter>
<filter id="filter4_f_99_7577" x="136.311" y="160.182" width="44.5492" height="44.5492" filterUnits="userSpaceOnUse" color-interpolation-filters="sRGB">
<feFlood flood-opacity="0" result="BackgroundImageFix"/>
<feBlend mode="normal" in="SourceGraphic" in2="BackgroundImageFix" result="shape"/>
<feGaussianBlur stdDeviation="7.54453" result="effect1_foregroundBlur_99_7577"/>
</filter>
<filter id="filter5_f_99_7577" x="193.461" y="175.805" width="44.5492" height="44.5492" filterUnits="userSpaceOnUse" color-interpolation-filters="sRGB">
<feFlood flood-opacity="0" result="BackgroundImageFix"/>
<feBlend mode="normal" in="SourceGraphic" in2="BackgroundImageFix" result="shape"/>
<feGaussianBlur stdDeviation="7.54453" result="effect1_foregroundBlur_99_7577"/>
</filter>
<filter id="filter6_f_99_7577" x="232.449" y="218.474" width="44.5492" height="44.5492" filterUnits="userSpaceOnUse" color-interpolation-filters="sRGB">
<feFlood flood-opacity="0" result="BackgroundImageFix"/>
<feBlend mode="normal" in="SourceGraphic" in2="BackgroundImageFix" result="shape"/>
<feGaussianBlur stdDeviation="7.54453" result="effect1_foregroundBlur_99_7577"/>
</filter>
<filter id="filter7_f_99_7577" x="308.579" y="246.078" width="44.5492" height="44.5492" filterUnits="userSpaceOnUse" color-interpolation-filters="sRGB">
<feFlood flood-opacity="0" result="BackgroundImageFix"/>
<feBlend mode="normal" in="SourceGraphic" in2="BackgroundImageFix" result="shape"/>
<feGaussianBlur stdDeviation="7.54453" result="effect1_foregroundBlur_99_7577"/>
</filter>
<filter id="filter8_f_99_7577" x="331.626" y="277.813" width="44.5492" height="44.5492" filterUnits="userSpaceOnUse" color-interpolation-filters="sRGB">
<feFlood flood-opacity="0" result="BackgroundImageFix"/>
<feBlend mode="normal" in="SourceGraphic" in2="BackgroundImageFix" result="shape"/>
<feGaussianBlur stdDeviation="7.54453" result="effect1_foregroundBlur_99_7577"/>
</filter>
<filter id="filter9_f_99_7577" x="166.7" y="172.279" width="41.6752" height="41.6747" filterUnits="userSpaceOnUse" color-interpolation-filters="sRGB">
<feFlood flood-opacity="0" result="BackgroundImageFix"/>
<feBlend mode="normal" in="SourceGraphic" in2="BackgroundImageFix" result="shape"/>
<feGaussianBlur stdDeviation="7.54453" result="effect1_foregroundBlur_99_7577"/>
</filter>
</defs>
</svg>
