<svg width="195" height="223" viewBox="0 0 195 223" fill="none" xmlns="http://www.w3.org/2000/svg">
<path d="M48.3776 195.111C48.0561 194.971 47.959 194.736 48.0863 194.408L53.0682 182.626C53.1754 182.352 53.3729 182.215 53.6608 182.215H53.7211C53.9956 182.221 54.1898 182.359 54.3037 182.626L59.2856 194.408C59.4195 194.736 59.3258 194.971 59.0044 195.111C58.6763 195.245 58.4486 195.152 58.3214 194.83L56.9855 191.666H50.4065L49.0706 194.83C48.9367 195.152 48.7057 195.245 48.3776 195.111ZM50.8384 190.612H56.5435L53.691 183.882L50.8384 190.612ZM62.0677 195.162C61.7128 195.162 61.5354 194.984 61.5354 194.629V186.192C61.5354 185.844 61.7128 185.67 62.0677 185.67C62.4159 185.67 62.59 185.844 62.59 186.192V187.156C63.2262 186.165 64.3779 185.67 66.0452 185.67H66.6077C67.8599 185.67 68.7739 185.961 69.3498 186.544C69.9324 187.12 70.2237 188.034 70.2237 189.286V194.629C70.2237 194.984 70.0496 195.162 69.7014 195.162C69.3465 195.162 69.169 194.984 69.169 194.629V189.286C69.169 188.328 68.9782 187.662 68.5965 187.287C68.2215 186.912 67.5586 186.724 66.6077 186.724H66.0452C65.0073 186.724 64.1904 186.889 63.5944 187.217C62.9985 187.545 62.6637 188.057 62.59 188.753V194.629C62.59 194.984 62.4159 195.162 62.0677 195.162ZM77.1512 195.162C75.899 195.162 74.9816 194.87 74.3991 194.288C73.8165 193.705 73.5252 192.788 73.5252 191.536V189.286C73.5252 188.034 73.8165 187.12 74.3991 186.544C74.9816 185.961 75.899 185.67 77.1512 185.67H81.3598V181.753C81.3598 181.404 81.5372 181.23 81.8921 181.23C82.2403 181.23 82.4144 181.404 82.4144 181.753V194.629C82.4144 194.984 82.2403 195.162 81.8921 195.162C81.5372 195.162 81.3598 194.984 81.3598 194.629V193.765C81.0718 194.228 80.65 194.576 80.0942 194.81C79.5384 195.044 78.8119 195.162 77.9146 195.162H77.1512ZM77.1512 194.107H77.9146C78.9592 194.107 79.7928 193.943 80.4156 193.615C81.045 193.28 81.3598 192.781 81.3598 192.118V186.724H77.1512C76.1937 186.724 75.524 186.915 75.1424 187.297C74.7674 187.672 74.5799 188.335 74.5799 189.286V191.536C74.5799 192.493 74.7674 193.163 75.1424 193.544C75.524 193.919 76.1937 194.107 77.1512 194.107ZM86.531 195.162C86.1761 195.162 85.9986 194.984 85.9986 194.629V186.192C85.9986 185.844 86.1761 185.67 86.531 185.67C86.8792 185.67 87.0533 185.844 87.0533 186.192V187.739C87.4015 187.069 87.9037 186.557 88.5599 186.202C89.2228 185.847 90.0063 185.67 90.9103 185.67C91.2652 185.67 91.4426 185.844 91.4426 186.192C91.4426 186.547 91.2652 186.724 90.9103 186.724C89.7184 186.724 88.7943 186.996 88.1381 187.538C87.4818 188.074 87.1202 188.84 87.0533 189.838V194.629C87.0533 194.984 86.8792 195.162 86.531 195.162ZM96.5335 195.162C95.2813 195.162 94.3639 194.874 93.7814 194.298C93.1988 193.715 92.9075 192.801 92.9075 191.556V189.286C92.9075 188.02 93.1988 187.099 93.7814 186.524C94.3639 185.941 95.2813 185.656 96.5335 185.67H98.1807C99.4329 185.67 100.347 185.961 100.923 186.544C101.505 187.12 101.797 188.034 101.797 189.286V191.536C101.797 192.788 101.505 193.705 100.923 194.288C100.347 194.87 99.4329 195.162 98.1807 195.162H96.5335ZM93.9622 191.556C93.9622 192.5 94.1496 193.163 94.5246 193.544C94.9063 193.919 95.5759 194.107 96.5335 194.107H98.1807C99.1383 194.107 99.8046 193.919 100.18 193.544C100.555 193.163 100.742 192.493 100.742 191.536V189.286C100.742 188.328 100.555 187.662 100.18 187.287C99.8046 186.912 99.1383 186.724 98.1807 186.724H96.5335C95.8907 186.718 95.3817 186.795 95.0068 186.955C94.6318 187.116 94.3639 187.384 94.2032 187.759C94.0425 188.134 93.9622 188.643 93.9622 189.286V191.556ZM115.92 185.65C116.998 185.65 117.768 185.924 118.23 186.473C118.699 187.022 118.933 187.93 118.933 189.195V194.649C118.933 194.998 118.759 195.172 118.411 195.172C118.056 195.172 117.878 194.998 117.878 194.649V189.195C117.878 188.311 117.728 187.675 117.426 187.287C117.125 186.899 116.623 186.704 115.92 186.704H115.086C114.209 186.704 113.579 186.899 113.198 187.287C112.823 187.675 112.635 188.311 112.635 189.195V194.649C112.635 194.998 112.461 195.172 112.113 195.172C111.758 195.172 111.581 194.998 111.581 194.649V189.195C111.581 188.311 111.43 187.675 111.129 187.287C110.827 186.899 110.325 186.704 109.622 186.704H108.788C107.911 186.704 107.282 186.899 106.9 187.287C106.525 187.675 106.337 188.311 106.337 189.195V194.649C106.337 194.998 106.163 195.172 105.815 195.172C105.46 195.172 105.283 194.998 105.283 194.649V186.192C105.283 185.844 105.46 185.67 105.815 185.67C106.163 185.67 106.337 185.844 106.337 186.192V186.976C106.632 186.5 106.98 186.162 107.382 185.961C107.791 185.754 108.306 185.65 108.929 185.65H109.622C110.325 185.65 110.888 185.774 111.309 186.021C111.738 186.262 112.076 186.661 112.324 187.217C112.618 186.661 112.98 186.262 113.409 186.021C113.837 185.774 114.396 185.65 115.086 185.65H115.92ZM123.291 190.823V191.556C123.291 192.5 123.478 193.163 123.853 193.544C124.235 193.919 124.904 194.107 125.862 194.107H127.509C128.353 194.107 128.966 194 129.347 193.786C129.736 193.565 129.967 193.186 130.04 192.651C130.067 192.483 130.121 192.356 130.201 192.269C130.288 192.182 130.419 192.138 130.593 192.138C130.767 192.138 130.897 192.189 130.985 192.289C131.078 192.383 131.115 192.517 131.095 192.691C131.008 193.534 130.67 194.157 130.081 194.559C129.491 194.961 128.634 195.162 127.509 195.162H125.862C124.61 195.162 123.692 194.874 123.11 194.298C122.527 193.715 122.236 192.801 122.236 191.556V189.286C122.236 188.02 122.527 187.099 123.11 186.524C123.692 185.941 124.61 185.656 125.862 185.67H127.509C128.761 185.67 129.675 185.961 130.251 186.544C130.834 187.12 131.125 188.034 131.125 189.286V190.29C131.125 190.645 130.951 190.823 130.603 190.823H123.291ZM125.862 186.724C124.904 186.711 124.235 186.895 123.853 187.277C123.478 187.652 123.291 188.321 123.291 189.286V189.768H130.07V189.286C130.07 188.328 129.883 187.662 129.508 187.287C129.133 186.912 128.467 186.724 127.509 186.724H125.862ZM137.966 195.162C136.714 195.162 135.796 194.87 135.214 194.288C134.631 193.705 134.34 192.788 134.34 191.536V189.286C134.34 188.034 134.631 187.12 135.214 186.544C135.796 185.961 136.714 185.67 137.966 185.67H142.175V181.753C142.175 181.404 142.352 181.23 142.707 181.23C143.055 181.23 143.229 181.404 143.229 181.753V194.629C143.229 194.984 143.055 195.162 142.707 195.162C142.352 195.162 142.175 194.984 142.175 194.629V193.765C141.887 194.228 141.465 194.576 140.909 194.81C140.353 195.044 139.627 195.162 138.729 195.162H137.966ZM137.966 194.107H138.729C139.774 194.107 140.608 193.943 141.23 193.615C141.86 193.28 142.175 192.781 142.175 192.118V186.724H137.966C137.008 186.724 136.339 186.915 135.957 187.297C135.582 187.672 135.395 188.335 135.395 189.286V191.536C135.395 192.493 135.582 193.163 135.957 193.544C136.339 193.919 137.008 194.107 137.966 194.107ZM149.636 195.162C148.591 195.162 147.825 194.921 147.336 194.438C146.854 193.95 146.613 193.183 146.613 192.138C146.613 191.094 146.857 190.327 147.346 189.838C147.835 189.349 148.598 189.105 149.636 189.105H154.206C154.193 188.221 153.992 187.605 153.603 187.257C153.222 186.902 152.569 186.724 151.645 186.724H150.48C149.629 186.724 149.006 186.815 148.611 186.996C148.216 187.176 147.972 187.484 147.878 187.92C147.831 188.087 147.768 188.211 147.687 188.291C147.614 188.365 147.493 188.402 147.326 188.402C147.152 188.402 147.014 188.355 146.914 188.261C146.82 188.161 146.787 188.027 146.813 187.859C146.901 187.096 147.245 186.54 147.848 186.192C148.457 185.844 149.335 185.67 150.48 185.67H151.645C152.897 185.67 153.811 185.961 154.387 186.544C154.969 187.12 155.261 188.034 155.261 189.286V194.629C155.261 194.984 155.087 195.162 154.738 195.162C154.383 195.162 154.206 194.984 154.206 194.629V193.635C153.563 194.653 152.415 195.162 150.761 195.162H149.636ZM149.636 194.107H150.761C151.41 194.107 151.98 194.037 152.468 193.896C152.964 193.749 153.362 193.514 153.664 193.193C153.965 192.872 154.146 192.443 154.206 191.907V190.16H149.636C148.893 190.16 148.377 190.304 148.089 190.591C147.808 190.873 147.667 191.388 147.667 192.138C147.667 192.882 147.808 193.397 148.089 193.685C148.377 193.966 148.893 194.107 149.636 194.107ZM40.5704 222.466C39.3182 222.466 38.4076 222.115 37.8384 221.412C37.2692 220.708 36.9846 219.597 36.9846 218.077V210.343C36.9846 208.742 37.2692 207.577 37.8384 206.847C38.4076 206.117 39.3182 205.753 40.5704 205.753C40.711 205.753 40.8282 205.799 40.922 205.893C41.0157 205.987 41.0626 206.104 41.0626 206.245C41.0626 206.379 41.0157 206.496 40.922 206.596C40.8282 206.69 40.711 206.737 40.5704 206.737C39.9343 206.737 39.4254 206.851 39.0437 207.078C38.662 207.306 38.3875 207.684 38.2201 208.213C38.0527 208.742 37.969 209.452 37.969 210.343V218.077C37.969 219.342 38.1632 220.226 38.5515 220.729C38.9466 221.231 39.6196 221.482 40.5704 221.482C40.711 221.482 40.8282 221.529 40.922 221.622C41.0157 221.716 41.0626 221.833 41.0626 221.974C41.0626 222.108 41.0157 222.222 40.922 222.316C40.8282 222.416 40.711 222.466 40.5704 222.466ZM46.9707 219.172C46.8099 219.172 46.6794 219.125 46.5789 219.031C46.4852 218.937 46.4383 218.81 46.4383 218.649V207.259H42.1695C42.0088 207.259 41.8782 207.212 41.7778 207.119C41.684 207.025 41.6372 206.898 41.6372 206.737C41.6372 206.576 41.684 206.449 41.7778 206.355C41.8782 206.255 42.0088 206.205 42.1695 206.205H51.7718C51.9325 206.205 52.0597 206.255 52.1535 206.355C52.2472 206.449 52.2941 206.576 52.2941 206.737C52.2941 206.898 52.2472 207.025 52.1535 207.119C52.0597 207.212 51.9325 207.259 51.7718 207.259H47.493V218.649C47.493 218.803 47.4427 218.931 47.3423 219.031C47.2485 219.125 47.1247 219.172 46.9707 219.172ZM54.6817 219.162C54.3268 219.162 54.1493 218.984 54.1493 218.629V205.753C54.1493 205.404 54.3268 205.23 54.6817 205.23C55.0299 205.23 55.204 205.404 55.204 205.753V211.156C55.8401 210.165 56.9918 209.67 58.6592 209.67H59.2217C60.4738 209.67 61.3879 209.961 61.9637 210.544C62.5463 211.12 62.8376 212.034 62.8376 213.286V218.629C62.8376 218.984 62.6635 219.162 62.3153 219.162C61.9604 219.162 61.7829 218.984 61.7829 218.629V213.286C61.7829 212.328 61.5921 211.662 61.2104 211.287C60.8354 210.912 60.1725 210.724 59.2217 210.724H58.6592C57.6213 210.724 56.8043 210.889 56.2084 211.217C55.6124 211.545 55.2776 212.057 55.204 212.753V218.629C55.204 218.984 55.0299 219.162 54.6817 219.162ZM67.1938 214.823V215.556C67.1938 216.5 67.3813 217.163 67.7563 217.544C68.138 217.919 68.8076 218.107 69.7652 218.107H71.4124C72.2561 218.107 72.8688 218 73.2505 217.786C73.6389 217.565 73.8699 217.186 73.9436 216.651C73.9703 216.483 74.0239 216.356 74.1043 216.269C74.1913 216.182 74.3219 216.138 74.496 216.138C74.6701 216.138 74.8007 216.189 74.8877 216.289C74.9815 216.383 75.0183 216.517 74.9982 216.691C74.9112 217.534 74.573 218.157 73.9837 218.559C73.3945 218.961 72.5374 219.162 71.4124 219.162H69.7652C68.513 219.162 67.5956 218.874 67.013 218.298C66.4305 217.715 66.1392 216.801 66.1392 215.556V213.286C66.1392 212.02 66.4305 211.099 67.013 210.524C67.5956 209.941 68.513 209.656 69.7652 209.67H71.4124C72.6646 209.67 73.5786 209.961 74.1545 210.544C74.7371 211.12 75.0283 212.034 75.0283 213.286V214.29C75.0283 214.645 74.8542 214.823 74.506 214.823H67.1938ZM69.7652 210.724C68.8076 210.711 68.138 210.895 67.7563 211.277C67.3813 211.652 67.1938 212.321 67.1938 213.286V213.768H73.9737V213.286C73.9737 212.328 73.7862 211.662 73.4112 211.287C73.0362 210.912 72.37 210.724 71.4124 210.724H69.7652ZM84.0886 219.162C83.7337 219.162 83.5562 218.984 83.5562 218.629V206.747C83.5562 206.392 83.7337 206.215 84.0886 206.215H88.7893C89.9343 206.215 90.7981 206.509 91.3807 207.098C91.97 207.688 92.2646 208.555 92.2646 209.7V210.303C92.2646 211.441 91.97 212.305 91.3807 212.894C90.7981 213.483 89.9343 213.778 88.7893 213.778H84.6109V218.629C84.6109 218.984 84.4368 219.162 84.0886 219.162ZM84.6109 212.723H88.7893C89.633 212.723 90.2457 212.532 90.6274 212.151C91.0158 211.762 91.21 211.146 91.21 210.303V209.7C91.21 208.85 91.0158 208.233 90.6274 207.852C90.2457 207.463 89.633 207.269 88.7893 207.269H84.6109V212.723ZM94.9568 219.162C94.6019 219.162 94.4244 218.984 94.4244 218.629V210.192C94.4244 209.844 94.6019 209.67 94.9568 209.67C95.305 209.67 95.4791 209.844 95.4791 210.192V211.739C95.8273 211.069 96.3295 210.557 96.9857 210.202C97.6486 209.847 98.4321 209.67 99.3361 209.67C99.691 209.67 99.8684 209.844 99.8684 210.192C99.8684 210.547 99.691 210.724 99.3361 210.724C98.1441 210.724 97.2201 210.996 96.5639 211.538C95.9076 212.074 95.546 212.84 95.4791 213.838V218.629C95.4791 218.984 95.305 219.162 94.9568 219.162ZM102.298 207.842C101.836 207.842 101.605 207.604 101.605 207.129V206.677C101.605 206.215 101.836 205.984 102.298 205.984H102.75C103.199 205.984 103.423 206.215 103.423 206.677V207.129C103.423 207.604 103.199 207.842 102.75 207.842H102.298ZM102.529 219.162C102.174 219.162 101.997 218.984 101.997 218.629V210.192C101.997 209.844 102.174 209.67 102.529 209.67C102.877 209.67 103.051 209.844 103.051 210.192V218.629C103.051 218.984 102.877 219.162 102.529 219.162ZM107.336 219.162C106.981 219.162 106.803 218.984 106.803 218.629V210.192C106.803 209.844 106.981 209.67 107.336 209.67C107.684 209.67 107.858 209.844 107.858 210.192V211.156C108.494 210.165 109.646 209.67 111.313 209.67H111.876C113.128 209.67 114.042 209.961 114.618 210.544C115.2 211.12 115.491 212.034 115.491 213.286V218.629C115.491 218.984 115.317 219.162 114.969 219.162C114.614 219.162 114.437 218.984 114.437 218.629V213.286C114.437 212.328 114.246 211.662 113.864 211.287C113.489 210.912 112.826 210.724 111.876 210.724H111.313C110.275 210.724 109.458 210.889 108.862 211.217C108.266 211.545 107.931 212.057 107.858 212.753V218.629C107.858 218.984 107.684 219.162 107.336 219.162ZM122.419 219.162C121.167 219.162 120.249 218.87 119.667 218.288C119.084 217.705 118.793 216.788 118.793 215.536V213.266C118.793 212.013 119.081 211.099 119.657 210.524C120.239 209.941 121.16 209.656 122.419 209.67H124.066C125.051 209.67 125.801 209.837 126.316 210.172C126.838 210.5 127.15 211.019 127.25 211.729C127.27 211.91 127.23 212.047 127.13 212.141C127.036 212.234 126.902 212.281 126.728 212.281C126.567 212.281 126.447 212.241 126.366 212.161C126.286 212.074 126.226 211.95 126.186 211.789C126.112 211.401 125.914 211.126 125.593 210.966C125.272 210.805 124.763 210.724 124.066 210.724H122.419C121.461 210.711 120.792 210.892 120.41 211.267C120.035 211.635 119.848 212.301 119.848 213.266V215.536C119.848 216.493 120.035 217.163 120.41 217.544C120.792 217.919 121.461 218.107 122.419 218.107H124.066C124.763 218.107 125.272 218.027 125.593 217.866C125.914 217.705 126.112 217.427 126.186 217.032C126.226 216.872 126.286 216.751 126.366 216.671C126.447 216.584 126.567 216.54 126.728 216.54C126.902 216.54 127.036 216.59 127.13 216.691C127.23 216.784 127.27 216.918 127.25 217.093C127.15 217.802 126.838 218.325 126.316 218.659C125.801 218.994 125.051 219.162 124.066 219.162H122.419ZM131.324 214.823V215.556C131.324 216.5 131.512 217.163 131.887 217.544C132.268 217.919 132.938 218.107 133.895 218.107H135.543C136.386 218.107 136.999 218 137.381 217.786C137.769 217.565 138 217.186 138.074 216.651C138.101 216.483 138.154 216.356 138.234 216.269C138.322 216.182 138.452 216.138 138.626 216.138C138.8 216.138 138.931 216.189 139.018 216.289C139.112 216.383 139.149 216.517 139.128 216.691C139.041 217.534 138.703 218.157 138.114 218.559C137.525 218.961 136.668 219.162 135.543 219.162H133.895C132.643 219.162 131.726 218.874 131.143 218.298C130.561 217.715 130.269 216.801 130.269 215.556V213.286C130.269 212.02 130.561 211.099 131.143 210.524C131.726 209.941 132.643 209.656 133.895 209.67H135.543C136.795 209.67 137.709 209.961 138.285 210.544C138.867 211.12 139.159 212.034 139.159 213.286V214.29C139.159 214.645 138.984 214.823 138.636 214.823H131.324ZM133.895 210.724C132.938 210.711 132.268 210.895 131.887 211.277C131.512 211.652 131.324 212.321 131.324 213.286V213.768H138.104V213.286C138.104 212.328 137.916 211.662 137.541 211.287C137.166 210.912 136.5 210.724 135.543 210.724H133.895ZM144.724 219.142C143.9 219.142 143.271 218.967 142.836 218.619C142.4 218.264 142.139 217.725 142.052 217.002C142.032 216.828 142.069 216.694 142.163 216.6C142.256 216.5 142.394 216.45 142.574 216.45C142.742 216.45 142.866 216.493 142.946 216.58C143.033 216.667 143.09 216.798 143.117 216.972C143.177 217.387 143.328 217.678 143.569 217.846C143.817 218.007 144.202 218.087 144.724 218.087H148.018C148.641 218.087 149.07 217.97 149.304 217.735C149.538 217.501 149.656 217.072 149.656 216.45C149.656 215.82 149.538 215.388 149.304 215.154C149.07 214.92 148.641 214.802 148.018 214.802H144.764C143.894 214.802 143.244 214.595 142.815 214.18C142.394 213.758 142.183 213.112 142.183 212.241C142.183 211.351 142.394 210.698 142.815 210.282C143.237 209.861 143.887 209.65 144.764 209.65H147.918C149.431 209.65 150.272 210.319 150.439 211.659C150.466 211.833 150.429 211.97 150.329 212.07C150.235 212.164 150.101 212.211 149.927 212.211C149.759 212.211 149.632 212.167 149.545 212.08C149.465 211.993 149.408 211.866 149.374 211.699C149.327 211.324 149.19 211.066 148.963 210.925C148.742 210.778 148.393 210.704 147.918 210.704H144.764C144.181 210.704 143.78 210.811 143.559 211.026C143.344 211.24 143.237 211.645 143.237 212.241C143.237 212.81 143.348 213.205 143.569 213.426C143.79 213.641 144.188 213.748 144.764 213.748H148.018C148.942 213.748 149.622 213.969 150.057 214.411C150.493 214.846 150.71 215.526 150.71 216.45C150.71 217.367 150.493 218.047 150.057 218.489C149.622 218.924 148.942 219.142 148.018 219.142H144.724ZM155.945 219.142C155.122 219.142 154.492 218.967 154.057 218.619C153.622 218.264 153.36 217.725 153.273 217.002C153.253 216.828 153.29 216.694 153.384 216.6C153.478 216.5 153.615 216.45 153.796 216.45C153.963 216.45 154.087 216.493 154.167 216.58C154.254 216.667 154.311 216.798 154.338 216.972C154.398 217.387 154.549 217.678 154.79 217.846C155.038 218.007 155.423 218.087 155.945 218.087H159.24C159.862 218.087 160.291 217.97 160.525 217.735C160.76 217.501 160.877 217.072 160.877 216.45C160.877 215.82 160.76 215.388 160.525 215.154C160.291 214.92 159.862 214.802 159.24 214.802H155.985C155.115 214.802 154.465 214.595 154.037 214.18C153.615 213.758 153.404 213.112 153.404 212.241C153.404 211.351 153.615 210.698 154.037 210.282C154.459 209.861 155.108 209.65 155.985 209.65H159.139C160.653 209.65 161.493 210.319 161.66 211.659C161.687 211.833 161.65 211.97 161.55 212.07C161.456 212.164 161.322 212.211 161.148 212.211C160.981 212.211 160.853 212.167 160.766 212.08C160.686 211.993 160.629 211.866 160.596 211.699C160.549 211.324 160.412 211.066 160.184 210.925C159.963 210.778 159.615 210.704 159.139 210.704H155.985C155.403 210.704 155.001 210.811 154.78 211.026C154.566 211.24 154.459 211.645 154.459 212.241C154.459 212.81 154.569 213.205 154.79 213.426C155.011 213.641 155.409 213.748 155.985 213.748H159.24C160.164 213.748 160.843 213.969 161.279 214.411C161.714 214.846 161.932 215.526 161.932 216.45C161.932 217.367 161.714 218.047 161.279 218.489C160.843 218.924 160.164 219.142 159.24 219.142H155.945ZM163.902 222.466C163.768 222.466 163.651 222.416 163.551 222.316C163.457 222.222 163.41 222.108 163.41 221.974C163.41 221.833 163.457 221.716 163.551 221.622C163.651 221.529 163.768 221.482 163.902 221.482C164.86 221.482 165.533 221.231 165.921 220.729C166.309 220.226 166.504 219.342 166.504 218.077V210.343C166.504 209.452 166.42 208.742 166.252 208.213C166.085 207.684 165.811 207.306 165.429 207.078C165.047 206.851 164.538 206.737 163.902 206.737C163.768 206.737 163.651 206.69 163.551 206.596C163.457 206.496 163.41 206.379 163.41 206.245C163.41 206.104 163.457 205.987 163.551 205.893C163.651 205.799 163.768 205.753 163.902 205.753C165.161 205.753 166.072 206.117 166.634 206.847C167.203 207.577 167.488 208.742 167.488 210.343V218.077C167.488 219.597 167.203 220.708 166.634 221.412C166.072 222.115 165.161 222.466 163.902 222.466Z" fill="white"/>
<path d="M20.5396 164.806L100.135 110.084M100.135 110.084L149.882 73.1294L175.466 20.5396M100.135 110.084L82.3682 85.9216L63.8907 70.2867" stroke="#AA7E41" stroke-width="0.3"/>
<g filter="url(#filter0_f_99_7223)">
<circle cx="63.8907" cy="69.5758" r="6.39607" fill="#FAFFB3"/>
</g>
<circle cx="63.891" cy="69.5761" r="4.26404" fill="#D9D9D9"/>
<g filter="url(#filter1_f_99_7223)">
<circle cx="98.003" cy="109.374" r="6.39607" fill="#FAFFB3"/>
</g>
<circle cx="98.0033" cy="109.374" r="4.26404" fill="#D9D9D9"/>
<g filter="url(#filter2_f_99_7223)">
<circle cx="149.171" cy="73.84" r="4.97472" fill="#FAFFB3"/>
</g>
<circle cx="149.172" cy="73.8404" r="3.31648" fill="#D9D9D9"/>
<g filter="url(#filter3_f_99_7223)">
<circle cx="83.7897" cy="88.0533" r="4.97472" fill="#FAFFB3"/>
</g>
<circle cx="83.7901" cy="88.0538" r="3.31648" fill="#D9D9D9"/>
<g filter="url(#filter4_f_99_7223)">
<circle cx="174.755" cy="19.8287" r="6.39607" fill="#FAFFB3"/>
</g>
<circle cx="174.756" cy="19.829" r="4.26404" fill="#D9D9D9"/>
<g filter="url(#filter5_f_99_7223)">
<circle cx="19.8287" cy="164.806" r="6.39607" fill="#FAFFB3"/>
</g>
<circle cx="19.829" cy="164.806" r="4.26404" fill="#D9D9D9"/>
<defs>
<filter id="filter0_f_99_7223" x="44.0618" y="49.7469" width="39.6577" height="39.6577" filterUnits="userSpaceOnUse" color-interpolation-filters="sRGB">
<feFlood flood-opacity="0" result="BackgroundImageFix"/>
<feBlend mode="normal" in="SourceGraphic" in2="BackgroundImageFix" result="shape"/>
<feGaussianBlur stdDeviation="6.71642" result="effect1_foregroundBlur_99_7223"/>
</filter>
<filter id="filter1_f_99_7223" x="78.1741" y="89.5447" width="39.6577" height="39.6577" filterUnits="userSpaceOnUse" color-interpolation-filters="sRGB">
<feFlood flood-opacity="0" result="BackgroundImageFix"/>
<feBlend mode="normal" in="SourceGraphic" in2="BackgroundImageFix" result="shape"/>
<feGaussianBlur stdDeviation="6.71642" result="effect1_foregroundBlur_99_7223"/>
</filter>
<filter id="filter2_f_99_7223" x="130.764" y="55.4324" width="36.8149" height="36.8149" filterUnits="userSpaceOnUse" color-interpolation-filters="sRGB">
<feFlood flood-opacity="0" result="BackgroundImageFix"/>
<feBlend mode="normal" in="SourceGraphic" in2="BackgroundImageFix" result="shape"/>
<feGaussianBlur stdDeviation="6.71642" result="effect1_foregroundBlur_99_7223"/>
</filter>
<filter id="filter3_f_99_7223" x="65.3821" y="69.6458" width="36.8149" height="36.8149" filterUnits="userSpaceOnUse" color-interpolation-filters="sRGB">
<feFlood flood-opacity="0" result="BackgroundImageFix"/>
<feBlend mode="normal" in="SourceGraphic" in2="BackgroundImageFix" result="shape"/>
<feGaussianBlur stdDeviation="6.71642" result="effect1_foregroundBlur_99_7223"/>
</filter>
<filter id="filter4_f_99_7223" x="154.927" y="-0.00021553" width="39.6577" height="39.6577" filterUnits="userSpaceOnUse" color-interpolation-filters="sRGB">
<feFlood flood-opacity="0" result="BackgroundImageFix"/>
<feBlend mode="normal" in="SourceGraphic" in2="BackgroundImageFix" result="shape"/>
<feGaussianBlur stdDeviation="6.71642" result="effect1_foregroundBlur_99_7223"/>
</filter>
<filter id="filter5_f_99_7223" x="-0.00021553" y="144.977" width="39.6577" height="39.6577" filterUnits="userSpaceOnUse" color-interpolation-filters="sRGB">
<feFlood flood-opacity="0" result="BackgroundImageFix"/>
<feBlend mode="normal" in="SourceGraphic" in2="BackgroundImageFix" result="shape"/>
<feGaussianBlur stdDeviation="6.71642" result="effect1_foregroundBlur_99_7223"/>
</filter>
</defs>
</svg>
