<svg width="267" height="204" viewBox="0 0 267 204" fill="none" xmlns="http://www.w3.org/2000/svg">
<path d="M12.3701 109.727L102.944 128.48L151.623 77.8066L240.601 109.727L254.566 11.5718" stroke="#AA7E41" stroke-width="0.3"/>
<g filter="url(#filter0_f_99_7204)">
<circle cx="11.9709" cy="109.328" r="3.59105" fill="#FAFFB3"/>
</g>
<circle cx="11.9712" cy="109.329" r="2.39403" fill="#D9D9D9"/>
<g filter="url(#filter1_f_99_7204)">
<circle cx="103.742" cy="127.682" r="3.59105" fill="#FAFFB3"/>
</g>
<circle cx="103.742" cy="127.683" r="2.39403" fill="#D9D9D9"/>
<g filter="url(#filter2_f_99_7204)">
<circle cx="151.623" cy="78.2058" r="3.59105" fill="#FAFFB3"/>
</g>
<circle cx="151.623" cy="78.206" r="2.39403" fill="#D9D9D9"/>
<g filter="url(#filter3_f_99_7204)">
<circle cx="240.202" cy="109.328" r="3.59105" fill="#FAFFB3"/>
</g>
<circle cx="240.202" cy="109.329" r="2.39403" fill="#D9D9D9"/>
<g filter="url(#filter4_f_99_7204)">
<circle cx="254.566" cy="11.9709" r="3.59105" fill="#FAFFB3"/>
</g>
<circle cx="254.566" cy="11.9712" r="2.39403" fill="#D9D9D9"/>
<path d="M77.0267 171.144C75.3598 171.144 74.1422 170.76 73.3741 169.992C72.6059 169.224 72.2218 168.006 72.2218 166.339V161.096C72.2218 159.414 72.6021 158.193 73.3625 157.432C74.1307 156.672 75.3444 156.291 77.0037 156.291H79.7922C81.2056 156.291 82.258 156.587 82.9493 157.179C83.6407 157.762 84.0209 158.703 84.0901 160.002C84.1131 160.209 84.0709 160.367 83.9633 160.474C83.8635 160.582 83.7137 160.635 83.514 160.635C83.1299 160.635 82.9186 160.432 82.8802 160.025C82.8264 159.072 82.5653 158.415 82.0967 158.054C81.6281 157.686 80.8599 157.501 79.7922 157.501H77.0037C76.1203 157.501 75.4174 157.617 74.895 157.847C74.3727 158.07 73.9963 158.446 73.7658 158.976C73.5431 159.499 73.4317 160.205 73.4317 161.096V166.339C73.4317 167.23 73.5469 167.937 73.7774 168.459C74.0078 168.982 74.3842 169.358 74.9066 169.588C75.4289 169.819 76.1356 169.934 77.0267 169.934H79.7922C80.8599 169.934 81.6281 169.754 82.0967 169.393C82.5653 169.024 82.8264 168.363 82.8802 167.411C82.9186 167.004 83.1299 166.8 83.514 166.8C83.7137 166.8 83.8635 166.858 83.9633 166.973C84.0709 167.08 84.1131 167.234 84.0901 167.434C84.0209 168.732 83.6407 169.677 82.9493 170.268C82.258 170.852 81.2056 171.144 79.7922 171.144H77.0267ZM90.6466 171.144C89.4483 171.144 88.5687 170.868 88.0079 170.314C87.4549 169.754 87.1783 168.874 87.1783 167.676C87.1783 166.477 87.4587 165.598 88.0195 165.037C88.5802 164.476 89.456 164.196 90.6466 164.196H95.8894C95.874 163.182 95.6436 162.475 95.198 162.076C94.7602 161.669 94.0112 161.465 92.9511 161.465H91.6145C90.6389 161.465 89.9245 161.569 89.4713 161.776C89.0181 161.984 88.7377 162.337 88.6302 162.836C88.5764 163.028 88.5034 163.17 88.4112 163.263C88.3267 163.347 88.1885 163.389 87.9964 163.389C87.7967 163.389 87.6392 163.336 87.524 163.228C87.4165 163.113 87.378 162.959 87.4088 162.767C87.5086 161.891 87.9042 161.254 88.5956 160.854C89.2946 160.455 90.3009 160.255 91.6145 160.255H92.9511C94.3876 160.255 95.4362 160.589 96.0968 161.258C96.7651 161.918 97.0993 162.967 97.0993 164.403V170.533C97.0993 170.94 96.8995 171.144 96.5001 171.144C96.093 171.144 95.8894 170.94 95.8894 170.533V169.393C95.152 170.56 93.8345 171.144 91.9372 171.144H90.6466ZM90.6466 169.934H91.9372C92.6823 169.934 93.3352 169.854 93.896 169.692C94.4644 169.523 94.9215 169.254 95.2672 168.886C95.6129 168.517 95.8203 168.025 95.8894 167.411V165.406H90.6466C89.7939 165.406 89.2025 165.571 88.8721 165.901C88.5495 166.224 88.3882 166.815 88.3882 167.676C88.3882 168.528 88.5495 169.12 88.8721 169.45C89.2025 169.773 89.7939 169.934 90.6466 169.934ZM103.59 171.121C102.645 171.121 101.923 170.921 101.423 170.522C100.924 170.115 100.624 169.496 100.525 168.667C100.501 168.467 100.544 168.313 100.651 168.206C100.759 168.091 100.916 168.033 101.124 168.033C101.316 168.033 101.458 168.083 101.55 168.183C101.65 168.283 101.715 168.432 101.746 168.632C101.815 169.108 101.988 169.443 102.264 169.635C102.549 169.819 102.99 169.911 103.59 169.911H107.369C108.083 169.911 108.575 169.777 108.844 169.508C109.113 169.239 109.247 168.747 109.247 168.033C109.247 167.311 109.113 166.815 108.844 166.547C108.575 166.278 108.083 166.143 107.369 166.143H103.636C102.637 166.143 101.892 165.905 101.4 165.429C100.916 164.945 100.674 164.204 100.674 163.205C100.674 162.183 100.916 161.434 101.4 160.958C101.884 160.474 102.629 160.232 103.636 160.232H107.254C108.99 160.232 109.954 161 110.146 162.537C110.177 162.736 110.134 162.894 110.019 163.009C109.912 163.117 109.758 163.17 109.558 163.17C109.366 163.17 109.22 163.12 109.12 163.021C109.028 162.921 108.963 162.775 108.925 162.583C108.871 162.153 108.713 161.857 108.452 161.696C108.199 161.527 107.799 161.442 107.254 161.442H103.636C102.967 161.442 102.506 161.565 102.253 161.811C102.007 162.057 101.884 162.521 101.884 163.205C101.884 163.858 102.011 164.311 102.264 164.565C102.518 164.81 102.975 164.933 103.636 164.933H107.369C108.429 164.933 109.209 165.187 109.708 165.694C110.207 166.193 110.457 166.973 110.457 168.033C110.457 169.085 110.207 169.865 109.708 170.372C109.209 170.871 108.429 171.121 107.369 171.121H103.59ZM116.462 171.121C115.518 171.121 114.796 170.921 114.296 170.522C113.797 170.115 113.497 169.496 113.397 168.667C113.374 168.467 113.417 168.313 113.524 168.206C113.632 168.091 113.789 168.033 113.997 168.033C114.189 168.033 114.331 168.083 114.423 168.183C114.523 168.283 114.588 168.432 114.619 168.632C114.688 169.108 114.861 169.443 115.137 169.635C115.422 169.819 115.863 169.911 116.462 169.911H120.242C120.956 169.911 121.448 169.777 121.717 169.508C121.986 169.239 122.12 168.747 122.12 168.033C122.12 167.311 121.986 166.815 121.717 166.547C121.448 166.278 120.956 166.143 120.242 166.143H116.509C115.51 166.143 114.765 165.905 114.273 165.429C113.789 164.945 113.547 164.204 113.547 163.205C113.547 162.183 113.789 161.434 114.273 160.958C114.757 160.474 115.502 160.232 116.509 160.232H120.127C121.863 160.232 122.827 161 123.019 162.537C123.05 162.736 123.007 162.894 122.892 163.009C122.785 163.117 122.631 163.17 122.431 163.17C122.239 163.17 122.093 163.12 121.993 163.021C121.901 162.921 121.836 162.775 121.797 162.583C121.744 162.153 121.586 161.857 121.325 161.696C121.071 161.527 120.672 161.442 120.127 161.442H116.509C115.84 161.442 115.379 161.565 115.126 161.811C114.88 162.057 114.757 162.521 114.757 163.205C114.757 163.858 114.884 164.311 115.137 164.565C115.391 164.81 115.848 164.933 116.509 164.933H120.242C121.302 164.933 122.082 165.187 122.581 165.694C123.08 166.193 123.33 166.973 123.33 168.033C123.33 169.085 123.08 169.865 122.581 170.372C122.082 170.871 121.302 171.121 120.242 171.121H116.462ZM127.296 158.158C126.766 158.158 126.501 157.885 126.501 157.34V156.821C126.501 156.291 126.766 156.026 127.296 156.026H127.814C128.329 156.026 128.586 156.291 128.586 156.821V157.34C128.586 157.885 128.329 158.158 127.814 158.158H127.296ZM127.561 171.144C127.154 171.144 126.95 170.94 126.95 170.533V160.854C126.95 160.455 127.154 160.255 127.561 160.255C127.96 160.255 128.16 160.455 128.16 160.854V170.533C128.16 170.94 127.96 171.144 127.561 171.144ZM136.312 171.144C134.876 171.144 133.824 170.814 133.155 170.153C132.487 169.485 132.153 168.436 132.153 167.007V164.403C132.153 162.951 132.487 161.895 133.155 161.235C133.824 160.566 134.876 160.24 136.312 160.255H138.202C139.639 160.255 140.687 160.589 141.348 161.258C142.016 161.918 142.35 162.967 142.35 164.403V166.984C142.35 168.421 142.016 169.473 141.348 170.142C140.687 170.81 139.639 171.144 138.202 171.144H136.312ZM133.363 167.007C133.363 168.091 133.578 168.851 134.008 169.289C134.446 169.719 135.214 169.934 136.312 169.934H138.202C139.301 169.934 140.065 169.719 140.495 169.289C140.925 168.851 141.14 168.083 141.14 166.984V164.403C141.14 163.305 140.925 162.541 140.495 162.11C140.065 161.68 139.301 161.465 138.202 161.465H136.312C135.575 161.457 134.991 161.546 134.561 161.73C134.131 161.914 133.824 162.222 133.639 162.652C133.455 163.082 133.363 163.666 133.363 164.403V167.007ZM146.96 175.753C146.553 175.753 146.35 175.55 146.35 175.142V160.854C146.35 160.455 146.553 160.255 146.96 160.255C147.36 160.255 147.559 160.455 147.559 160.854V161.88C147.905 161.342 148.401 160.939 149.046 160.67C149.691 160.393 150.517 160.255 151.523 160.255H152.399C153.835 160.255 154.884 160.589 155.545 161.258C156.213 161.918 156.547 162.967 156.547 164.403V166.984C156.547 168.421 156.213 169.473 155.545 170.142C154.884 170.81 153.835 171.144 152.399 171.144H147.559V175.142C147.559 175.55 147.36 175.753 146.96 175.753ZM147.559 169.934H152.399C153.497 169.934 154.262 169.719 154.692 169.289C155.122 168.851 155.337 168.083 155.337 166.984V164.403C155.337 163.305 155.122 162.541 154.692 162.11C154.262 161.68 153.497 161.465 152.399 161.465H151.523C150.294 161.465 149.349 161.657 148.689 162.041C148.036 162.425 147.659 163.017 147.559 163.816V169.934ZM161.449 166.166V167.007C161.449 168.091 161.664 168.851 162.094 169.289C162.532 169.719 163.3 169.934 164.399 169.934H166.289C167.256 169.934 167.959 169.811 168.397 169.565C168.843 169.312 169.108 168.878 169.192 168.263C169.223 168.071 169.284 167.925 169.377 167.826C169.476 167.726 169.626 167.676 169.826 167.676C170.026 167.676 170.175 167.733 170.275 167.849C170.383 167.956 170.425 168.11 170.402 168.309C170.302 169.277 169.914 169.992 169.238 170.453C168.562 170.914 167.579 171.144 166.289 171.144H164.399C162.962 171.144 161.91 170.814 161.242 170.153C160.573 169.485 160.239 168.436 160.239 167.007V164.403C160.239 162.951 160.573 161.895 161.242 161.235C161.91 160.566 162.962 160.24 164.399 160.255H166.289C167.725 160.255 168.774 160.589 169.434 161.258C170.102 161.918 170.437 162.967 170.437 164.403V165.556C170.437 165.963 170.237 166.166 169.837 166.166H161.449ZM164.399 161.465C163.3 161.45 162.532 161.661 162.094 162.099C161.664 162.529 161.449 163.297 161.449 164.403V164.956H169.227V164.403C169.227 163.305 169.012 162.541 168.582 162.11C168.151 161.68 167.387 161.465 166.289 161.465H164.399ZM174.782 158.158C174.252 158.158 173.987 157.885 173.987 157.34V156.821C173.987 156.291 174.252 156.026 174.782 156.026H175.3C175.815 156.026 176.072 156.291 176.072 156.821V157.34C176.072 157.885 175.815 158.158 175.3 158.158H174.782ZM175.047 171.144C174.639 171.144 174.436 170.94 174.436 170.533V160.854C174.436 160.455 174.639 160.255 175.047 160.255C175.446 160.255 175.646 160.455 175.646 160.854V170.533C175.646 170.94 175.446 171.144 175.047 171.144ZM183.187 171.144C181.989 171.144 181.11 170.868 180.549 170.314C179.996 169.754 179.719 168.874 179.719 167.676C179.719 166.477 180 165.598 180.56 165.037C181.121 164.476 181.997 164.196 183.187 164.196H188.43C188.415 163.182 188.184 162.475 187.739 162.076C187.301 161.669 186.552 161.465 185.492 161.465H184.155C183.18 161.465 182.465 161.569 182.012 161.776C181.559 161.984 181.279 162.337 181.171 162.836C181.117 163.028 181.044 163.17 180.952 163.263C180.868 163.347 180.729 163.389 180.537 163.389C180.338 163.389 180.18 163.336 180.065 163.228C179.957 163.113 179.919 162.959 179.95 162.767C180.049 161.891 180.445 161.254 181.136 160.854C181.835 160.455 182.842 160.255 184.155 160.255H185.492C186.928 160.255 187.977 160.589 188.638 161.258C189.306 161.918 189.64 162.967 189.64 164.403V170.533C189.64 170.94 189.44 171.144 189.041 171.144C188.634 171.144 188.43 170.94 188.43 170.533V169.393C187.693 170.56 186.375 171.144 184.478 171.144H183.187ZM183.187 169.934H184.478C185.223 169.934 185.876 169.854 186.437 169.692C187.005 169.523 187.462 169.254 187.808 168.886C188.154 168.517 188.361 168.025 188.43 167.411V165.406H183.187C182.335 165.406 181.743 165.571 181.413 165.901C181.09 166.224 180.929 166.815 180.929 167.676C180.929 168.528 181.09 169.12 181.413 169.45C181.743 169.773 182.335 169.934 183.187 169.934ZM202.721 174.935C201.284 174.935 200.24 174.532 199.587 173.725C198.934 172.919 198.607 171.643 198.607 169.9V161.027C198.607 159.191 198.934 157.855 199.587 157.017C200.24 156.18 201.284 155.761 202.721 155.761C202.882 155.761 203.017 155.815 203.124 155.923C203.232 156.03 203.285 156.165 203.285 156.326C203.285 156.48 203.232 156.614 203.124 156.729C203.017 156.837 202.882 156.891 202.721 156.891C201.991 156.891 201.407 157.021 200.969 157.282C200.532 157.544 200.217 157.978 200.025 158.584C199.832 159.191 199.736 160.006 199.736 161.027V169.9C199.736 171.351 199.959 172.365 200.405 172.942C200.858 173.518 201.63 173.806 202.721 173.806C202.882 173.806 203.017 173.86 203.124 173.967C203.232 174.075 203.285 174.209 203.285 174.37C203.285 174.524 203.232 174.655 203.124 174.762C203.017 174.877 202.882 174.935 202.721 174.935ZM210.063 171.156C209.879 171.156 209.729 171.102 209.614 170.994C209.506 170.887 209.452 170.741 209.452 170.556V157.49H204.555C204.371 157.49 204.221 157.436 204.106 157.328C203.998 157.221 203.945 157.075 203.945 156.891C203.945 156.706 203.998 156.56 204.106 156.453C204.221 156.338 204.371 156.28 204.555 156.28H215.571C215.755 156.28 215.901 156.338 216.009 156.453C216.116 156.56 216.17 156.706 216.17 156.891C216.17 157.075 216.116 157.221 216.009 157.328C215.901 157.436 215.755 157.49 215.571 157.49H210.662V170.556C210.662 170.733 210.605 170.879 210.489 170.994C210.382 171.102 210.24 171.156 210.063 171.156ZM218.909 171.144C218.502 171.144 218.298 170.94 218.298 170.533V155.761C218.298 155.362 218.502 155.162 218.909 155.162C219.308 155.162 219.508 155.362 219.508 155.761V161.961C220.238 160.824 221.559 160.255 223.472 160.255H224.117C225.554 160.255 226.602 160.589 227.263 161.258C227.931 161.918 228.265 162.967 228.265 164.403V170.533C228.265 170.94 228.066 171.144 227.666 171.144C227.259 171.144 227.055 170.94 227.055 170.533V164.403C227.055 163.305 226.837 162.541 226.399 162.11C225.968 161.68 225.208 161.465 224.117 161.465H223.472C222.281 161.465 221.344 161.653 220.66 162.03C219.977 162.406 219.593 162.994 219.508 163.793V170.533C219.508 170.94 219.308 171.144 218.909 171.144ZM233.263 166.166V167.007C233.263 168.091 233.478 168.851 233.908 169.289C234.346 169.719 235.114 169.934 236.212 169.934H238.102C239.07 169.934 239.773 169.811 240.211 169.565C240.656 169.312 240.921 168.878 241.006 168.263C241.037 168.071 241.098 167.925 241.19 167.826C241.29 167.726 241.44 167.676 241.64 167.676C241.839 167.676 241.989 167.733 242.089 167.849C242.197 167.956 242.239 168.11 242.216 168.309C242.116 169.277 241.728 169.992 241.052 170.453C240.376 170.914 239.393 171.144 238.102 171.144H236.212C234.776 171.144 233.724 170.814 233.055 170.153C232.387 169.485 232.053 168.436 232.053 167.007V164.403C232.053 162.951 232.387 161.895 233.055 161.235C233.724 160.566 234.776 160.24 236.212 160.255H238.102C239.539 160.255 240.587 160.589 241.248 161.258C241.916 161.918 242.25 162.967 242.25 164.403V165.556C242.25 165.963 242.051 166.166 241.651 166.166H233.263ZM236.212 161.465C235.114 161.45 234.346 161.661 233.908 162.099C233.478 162.529 233.263 163.297 233.263 164.403V164.956H241.04V164.403C241.04 163.305 240.825 162.541 240.395 162.11C239.965 161.68 239.201 161.465 238.102 161.465H236.212ZM132.214 198.236C132.337 198.367 132.398 198.497 132.398 198.628C132.398 198.766 132.329 198.901 132.191 199.031C131.922 199.292 131.653 199.292 131.384 199.031L128.308 195.851C128.177 195.72 128.112 195.59 128.112 195.459C128.112 195.321 128.177 195.187 128.308 195.056C128.576 194.795 128.849 194.795 129.126 195.056L132.214 198.236ZM124.816 198.144C123.149 198.144 121.932 197.76 121.164 196.992C120.395 196.224 120.011 195.006 120.011 193.339V188.085C120.011 186.403 120.395 185.181 121.164 184.421C121.932 183.652 123.142 183.276 124.793 183.291H127.582C129.249 183.291 130.462 183.676 131.223 184.444C131.991 185.212 132.375 186.429 132.375 188.096V193.339C132.375 195.006 131.991 196.224 131.223 196.992C130.462 197.76 129.249 198.144 127.582 198.144H124.816ZM124.816 196.934H127.582C128.465 196.934 129.168 196.819 129.69 196.588C130.213 196.358 130.589 195.982 130.82 195.459C131.05 194.937 131.165 194.23 131.165 193.339V188.096C131.165 187.213 131.05 186.51 130.82 185.988C130.589 185.465 130.213 185.089 129.69 184.858C129.168 184.62 128.465 184.501 127.582 184.501H124.793C123.91 184.494 123.207 184.605 122.685 184.835C122.17 185.058 121.797 185.435 121.567 185.965C121.336 186.487 121.221 187.194 121.221 188.085V193.339C121.221 194.23 121.336 194.937 121.567 195.459C121.797 195.982 122.174 196.358 122.696 196.588C123.218 196.819 123.925 196.934 124.816 196.934ZM145.563 187.255C145.97 187.255 146.173 187.455 146.173 187.854V197.533C146.173 197.94 145.97 198.144 145.563 198.144C145.163 198.144 144.963 197.94 144.963 197.533V196.439C144.234 197.576 142.912 198.144 141 198.144H140.354C138.918 198.144 137.865 197.81 137.197 197.142C136.536 196.473 136.206 195.421 136.206 193.984V187.854C136.206 187.455 136.406 187.255 136.805 187.255C137.212 187.255 137.416 187.455 137.416 187.854V193.984C137.416 195.083 137.631 195.851 138.061 196.289C138.499 196.719 139.263 196.934 140.354 196.934H141C142.19 196.934 143.127 196.742 143.811 196.358C144.495 195.974 144.879 195.386 144.963 194.595V187.854C144.963 187.455 145.163 187.255 145.563 187.255ZM151.378 193.166V194.007C151.378 195.091 151.593 195.851 152.023 196.289C152.461 196.719 153.229 196.934 154.328 196.934H156.217C157.185 196.934 157.888 196.811 158.326 196.565C158.772 196.312 159.037 195.878 159.121 195.263C159.152 195.071 159.213 194.925 159.306 194.826C159.405 194.726 159.555 194.676 159.755 194.676C159.955 194.676 160.104 194.733 160.204 194.849C160.312 194.956 160.354 195.11 160.331 195.309C160.231 196.277 159.843 196.992 159.167 197.453C158.491 197.914 157.508 198.144 156.217 198.144H154.328C152.891 198.144 151.839 197.814 151.171 197.153C150.502 196.485 150.168 195.436 150.168 194.007V191.403C150.168 189.951 150.502 188.895 151.171 188.235C151.839 187.566 152.891 187.24 154.328 187.255H156.217C157.654 187.255 158.703 187.589 159.363 188.258C160.031 188.918 160.366 189.967 160.366 191.403V192.556C160.366 192.963 160.166 193.166 159.766 193.166H151.378ZM154.328 188.465C153.229 188.45 152.461 188.661 152.023 189.099C151.593 189.529 151.378 190.297 151.378 191.403V191.956H159.156V191.403C159.156 190.305 158.941 189.541 158.51 189.11C158.08 188.68 157.316 188.465 156.217 188.465H154.328ZM165.264 193.166V194.007C165.264 195.091 165.479 195.851 165.909 196.289C166.347 196.719 167.115 196.934 168.213 196.934H170.103C171.071 196.934 171.774 196.811 172.212 196.565C172.657 196.312 172.922 195.878 173.007 195.263C173.038 195.071 173.099 194.925 173.191 194.826C173.291 194.726 173.441 194.676 173.641 194.676C173.84 194.676 173.99 194.733 174.09 194.849C174.197 194.956 174.24 195.11 174.217 195.309C174.117 196.277 173.729 196.992 173.053 197.453C172.377 197.914 171.394 198.144 170.103 198.144H168.213C166.777 198.144 165.725 197.814 165.056 197.153C164.388 196.485 164.054 195.436 164.054 194.007V191.403C164.054 189.951 164.388 188.895 165.056 188.235C165.725 187.566 166.777 187.24 168.213 187.255H170.103C171.54 187.255 172.588 187.589 173.249 188.258C173.917 188.918 174.251 189.967 174.251 191.403V192.556C174.251 192.963 174.052 193.166 173.652 193.166H165.264ZM168.213 188.465C167.115 188.45 166.347 188.661 165.909 189.099C165.479 189.529 165.264 190.297 165.264 191.403V191.956H173.041V191.403C173.041 190.305 172.826 189.541 172.396 189.11C171.966 188.68 171.202 188.465 170.103 188.465H168.213ZM178.861 198.144C178.454 198.144 178.25 197.94 178.25 197.533V187.854C178.25 187.455 178.454 187.255 178.861 187.255C179.261 187.255 179.46 187.455 179.46 187.854V188.961C180.19 187.824 181.511 187.255 183.424 187.255H184.069C185.506 187.255 186.554 187.589 187.215 188.258C187.883 188.918 188.218 189.967 188.218 191.403V197.533C188.218 197.94 188.018 198.144 187.618 198.144C187.211 198.144 187.008 197.94 187.008 197.533V191.403C187.008 190.305 186.789 189.541 186.351 189.11C185.921 188.68 185.16 188.465 184.069 188.465H183.424C182.233 188.465 181.296 188.653 180.613 189.03C179.929 189.406 179.545 189.994 179.46 190.793V197.533C179.46 197.94 179.261 198.144 178.861 198.144ZM190.956 201.935C190.803 201.935 190.668 201.877 190.553 201.762C190.446 201.655 190.392 201.524 190.392 201.37C190.392 201.209 190.446 201.075 190.553 200.967C190.668 200.86 190.803 200.806 190.956 200.806C192.055 200.806 192.827 200.518 193.273 199.942C193.718 199.365 193.941 198.351 193.941 196.9V188.027C193.941 187.006 193.845 186.191 193.653 185.584C193.461 184.978 193.146 184.544 192.708 184.282C192.27 184.021 191.686 183.891 190.956 183.891C190.803 183.891 190.668 183.837 190.553 183.729C190.446 183.614 190.392 183.48 190.392 183.326C190.392 183.165 190.446 183.03 190.553 182.923C190.668 182.815 190.803 182.761 190.956 182.761C192.401 182.761 193.445 183.18 194.091 184.017C194.744 184.855 195.07 186.191 195.07 188.027V196.9C195.07 198.643 194.744 199.919 194.091 200.725C193.445 201.532 192.401 201.935 190.956 201.935Z" fill="white"/>
<defs>
<filter id="filter0_f_99_7204" x="9.05991e-05" y="97.3575" width="23.9417" height="23.9417" filterUnits="userSpaceOnUse" color-interpolation-filters="sRGB">
<feFlood flood-opacity="0" result="BackgroundImageFix"/>
<feBlend mode="normal" in="SourceGraphic" in2="BackgroundImageFix" result="shape"/>
<feGaussianBlur stdDeviation="4.1899" result="effect1_foregroundBlur_99_7204"/>
</filter>
<filter id="filter1_f_99_7204" x="91.7716" y="115.712" width="23.9417" height="23.9417" filterUnits="userSpaceOnUse" color-interpolation-filters="sRGB">
<feFlood flood-opacity="0" result="BackgroundImageFix"/>
<feBlend mode="normal" in="SourceGraphic" in2="BackgroundImageFix" result="shape"/>
<feGaussianBlur stdDeviation="4.1899" result="effect1_foregroundBlur_99_7204"/>
</filter>
<filter id="filter2_f_99_7204" x="139.652" y="66.235" width="23.9417" height="23.9417" filterUnits="userSpaceOnUse" color-interpolation-filters="sRGB">
<feFlood flood-opacity="0" result="BackgroundImageFix"/>
<feBlend mode="normal" in="SourceGraphic" in2="BackgroundImageFix" result="shape"/>
<feGaussianBlur stdDeviation="4.1899" result="effect1_foregroundBlur_99_7204"/>
</filter>
<filter id="filter3_f_99_7204" x="228.231" y="97.3575" width="23.9417" height="23.9417" filterUnits="userSpaceOnUse" color-interpolation-filters="sRGB">
<feFlood flood-opacity="0" result="BackgroundImageFix"/>
<feBlend mode="normal" in="SourceGraphic" in2="BackgroundImageFix" result="shape"/>
<feGaussianBlur stdDeviation="4.1899" result="effect1_foregroundBlur_99_7204"/>
</filter>
<filter id="filter4_f_99_7204" x="242.595" y="9.05991e-05" width="23.9417" height="23.9417" filterUnits="userSpaceOnUse" color-interpolation-filters="sRGB">
<feFlood flood-opacity="0" result="BackgroundImageFix"/>
<feBlend mode="normal" in="SourceGraphic" in2="BackgroundImageFix" result="shape"/>
<feGaussianBlur stdDeviation="4.1899" result="effect1_foregroundBlur_99_7204"/>
</filter>
</defs>
</svg>
