<svg width="243" height="182" viewBox="0 0 243 182" fill="none" xmlns="http://www.w3.org/2000/svg">
<path d="M53.4909 167.842C53.1009 167.842 52.9059 167.647 52.9059 167.257V154.2C52.9059 153.81 53.1009 153.615 53.4909 153.615C53.8735 153.615 54.0648 153.81 54.0648 154.2V166.683H60.7756C61.1656 166.683 61.3606 166.874 61.3606 167.257C61.3606 167.647 61.1656 167.842 60.7756 167.842H53.4909ZM64.8043 163.074V163.879C64.8043 164.917 65.0103 165.645 65.4224 166.065C65.8418 166.477 66.5776 166.683 67.6299 166.683H69.44C70.3671 166.683 71.0404 166.565 71.4598 166.33C71.8866 166.087 72.1405 165.671 72.2214 165.082C72.2509 164.898 72.3097 164.759 72.398 164.663C72.4937 164.567 72.6372 164.52 72.8285 164.52C73.0198 164.52 73.1633 164.575 73.2589 164.685C73.362 164.788 73.4024 164.935 73.3804 165.127C73.2847 166.054 72.9131 166.738 72.2656 167.18C71.618 167.621 70.6762 167.842 69.44 167.842H67.6299C66.2539 167.842 65.2458 167.525 64.6056 166.893C63.9654 166.252 63.6453 165.248 63.6453 163.879V161.385C63.6453 159.994 63.9654 158.982 64.6056 158.35C65.2458 157.709 66.2539 157.397 67.6299 157.411H69.44C70.816 157.411 71.8204 157.731 72.4532 158.372C73.0934 159.004 73.4135 160.009 73.4135 161.385V162.489C73.4135 162.879 73.2222 163.074 72.8395 163.074H64.8043ZM67.6299 158.57C66.5776 158.556 65.8418 158.758 65.4224 159.177C65.0103 159.589 64.8043 160.325 64.8043 161.385V161.915H72.2545V161.385C72.2545 160.333 72.0485 159.601 71.6364 159.188C71.2244 158.776 70.4922 158.57 69.44 158.57H67.6299ZM80.9308 167.842C79.5548 167.842 78.5467 167.525 77.9066 166.893C77.2664 166.252 76.9463 165.248 76.9463 163.879V161.385C76.9463 159.994 77.2664 158.982 77.9066 158.35C78.5467 157.709 79.5548 157.397 80.9308 157.411H82.741C84.117 157.411 85.1214 157.731 85.7542 158.372C86.3944 159.004 86.7145 160.009 86.7145 161.385V163.857C86.7145 165.233 86.3944 166.241 85.7542 166.882C85.1214 167.522 84.117 167.842 82.741 167.842H80.9308ZM78.1053 163.879C78.1053 164.917 78.3113 165.645 78.7233 166.065C79.1428 166.477 79.8786 166.683 80.9308 166.683H82.741C83.7932 166.683 84.5254 166.477 84.9374 166.065C85.3495 165.645 85.5555 164.91 85.5555 163.857V161.385C85.5555 160.333 85.3495 159.601 84.9374 159.188C84.5254 158.776 83.7932 158.57 82.741 158.57H80.9308C80.2244 158.563 79.6652 158.648 79.2531 158.824C78.8411 159.001 78.5467 159.295 78.3701 159.707C78.1936 160.119 78.1053 160.678 78.1053 161.385V163.879ZM99.143 171.473C97.767 171.473 96.7662 171.087 96.1408 170.314C95.5153 169.542 95.2026 168.32 95.2026 166.65V158.151C95.2026 156.392 95.5153 155.112 96.1408 154.31C96.7662 153.508 97.767 153.107 99.143 153.107C99.2975 153.107 99.4263 153.158 99.5293 153.261C99.6323 153.364 99.6838 153.493 99.6838 153.648C99.6838 153.795 99.6323 153.924 99.5293 154.034C99.4263 154.137 99.2975 154.188 99.143 154.188C98.4439 154.188 97.8847 154.314 97.4653 154.564C97.0458 154.814 96.7442 155.23 96.5602 155.811C96.3762 156.392 96.2843 157.172 96.2843 158.151V166.65C96.2843 168.04 96.4976 169.012 96.9244 169.564C97.3586 170.116 98.0981 170.391 99.143 170.391C99.2975 170.391 99.4263 170.443 99.5293 170.546C99.6323 170.649 99.6838 170.778 99.6838 170.932C99.6838 171.079 99.6323 171.205 99.5293 171.308C99.4263 171.418 99.2975 171.473 99.143 171.473ZM106.176 167.853C105.999 167.853 105.856 167.801 105.746 167.698C105.643 167.595 105.591 167.455 105.591 167.279V154.762H100.9C100.724 154.762 100.58 154.711 100.47 154.608C100.367 154.505 100.315 154.365 100.315 154.188C100.315 154.012 100.367 153.872 100.47 153.769C100.58 153.659 100.724 153.603 100.9 153.603H111.452C111.629 153.603 111.768 153.659 111.871 153.769C111.974 153.872 112.026 154.012 112.026 154.188C112.026 154.365 111.974 154.505 111.871 154.608C111.768 154.711 111.629 154.762 111.452 154.762H106.75V167.279C106.75 167.448 106.695 167.588 106.584 167.698C106.481 167.801 106.345 167.853 106.176 167.853ZM114.65 167.842C114.26 167.842 114.065 167.647 114.065 167.257V153.107C114.065 152.724 114.26 152.533 114.65 152.533C115.032 152.533 115.223 152.724 115.223 153.107V159.045C115.923 157.956 117.188 157.411 119.02 157.411H119.638C121.014 157.411 122.019 157.731 122.652 158.372C123.292 159.004 123.612 160.009 123.612 161.385V167.257C123.612 167.647 123.421 167.842 123.038 167.842C122.648 167.842 122.453 167.647 122.453 167.257V161.385C122.453 160.333 122.243 159.601 121.824 159.188C121.412 158.776 120.683 158.57 119.638 158.57H119.02C117.88 158.57 116.982 158.751 116.327 159.111C115.672 159.472 115.304 160.035 115.223 160.8V167.257C115.223 167.647 115.032 167.842 114.65 167.842ZM128.399 163.074V163.879C128.399 164.917 128.605 165.645 129.017 166.065C129.436 166.477 130.172 166.683 131.224 166.683H133.035C133.962 166.683 134.635 166.565 135.054 166.33C135.481 166.087 135.735 165.671 135.816 165.082C135.846 164.898 135.904 164.759 135.993 164.663C136.088 164.567 136.232 164.52 136.423 164.52C136.614 164.52 136.758 164.575 136.854 164.685C136.957 164.788 136.997 164.935 136.975 165.127C136.879 166.054 136.508 166.738 135.86 167.18C135.213 167.621 134.271 167.842 133.035 167.842H131.224C129.848 167.842 128.84 167.525 128.2 166.893C127.56 166.252 127.24 165.248 127.24 163.879V161.385C127.24 159.994 127.56 158.982 128.2 158.35C128.84 157.709 129.848 157.397 131.224 157.411H133.035C134.411 157.411 135.415 157.731 136.048 158.372C136.688 159.004 137.008 160.009 137.008 161.385V162.489C137.008 162.879 136.817 163.074 136.434 163.074H128.399ZM131.224 158.57C130.172 158.556 129.436 158.758 129.017 159.177C128.605 159.589 128.399 160.325 128.399 161.385V161.915H135.849V161.385C135.849 160.333 135.643 159.601 135.231 159.188C134.819 158.776 134.087 158.57 133.035 158.57H131.224ZM146.964 167.842C146.574 167.842 146.379 167.647 146.379 167.257V154.2C146.379 153.81 146.574 153.615 146.964 153.615C147.347 153.615 147.538 153.81 147.538 154.2V166.683H154.249C154.639 166.683 154.834 166.874 154.834 167.257C154.834 167.647 154.639 167.842 154.249 167.842H146.964ZM157.748 155.403C157.24 155.403 156.986 155.141 156.986 154.619V154.122C156.986 153.615 157.24 153.361 157.748 153.361H158.244C158.737 153.361 158.984 153.615 158.984 154.122V154.619C158.984 155.141 158.737 155.403 158.244 155.403H157.748ZM158.002 167.842C157.612 167.842 157.417 167.647 157.417 167.257V157.985C157.417 157.603 157.612 157.411 158.002 157.411C158.384 157.411 158.576 157.603 158.576 157.985V167.257C158.576 167.647 158.384 167.842 158.002 167.842ZM166.385 167.842C165.009 167.842 164.001 167.525 163.361 166.893C162.72 166.252 162.4 165.248 162.4 163.879V161.385C162.4 159.994 162.72 158.982 163.361 158.35C164.001 157.709 165.009 157.397 166.385 157.411H168.195C169.571 157.411 170.575 157.731 171.208 158.372C171.848 159.004 172.168 160.009 172.168 161.385V163.857C172.168 165.233 171.848 166.241 171.208 166.882C170.575 167.522 169.571 167.842 168.195 167.842H166.385ZM163.559 163.879C163.559 164.917 163.765 165.645 164.177 166.065C164.597 166.477 165.333 166.683 166.385 166.683H168.195C169.247 166.683 169.979 166.477 170.391 166.065C170.803 165.645 171.009 164.91 171.009 163.857V161.385C171.009 160.333 170.803 159.601 170.391 159.188C169.979 158.776 169.247 158.57 168.195 158.57H166.385C165.678 158.563 165.119 158.648 164.707 158.824C164.295 159.001 164.001 159.295 163.824 159.707C163.647 160.119 163.559 160.678 163.559 161.385V163.879ZM176.584 167.842C176.194 167.842 175.999 167.647 175.999 167.257V157.985C175.999 157.603 176.194 157.411 176.584 157.411C176.967 157.411 177.158 157.603 177.158 157.985V159.045C177.857 157.956 179.123 157.411 180.955 157.411H181.573C182.949 157.411 183.954 157.731 184.586 158.372C185.227 159.004 185.547 160.009 185.547 161.385V167.257C185.547 167.647 185.355 167.842 184.973 167.842C184.583 167.842 184.388 167.647 184.388 167.257V161.385C184.388 160.333 184.178 159.601 183.759 159.188C183.347 158.776 182.618 158.57 181.573 158.57H180.955C179.815 158.57 178.917 158.751 178.262 159.111C177.607 159.472 177.239 160.035 177.158 160.8V167.257C177.158 167.647 176.967 167.842 176.584 167.842ZM188.17 171.473C188.023 171.473 187.894 171.418 187.784 171.308C187.681 171.205 187.629 171.079 187.629 170.932C187.629 170.778 187.681 170.649 187.784 170.546C187.894 170.443 188.023 170.391 188.17 170.391C189.223 170.391 189.962 170.116 190.389 169.564C190.816 169.012 191.029 168.04 191.029 166.65V158.151C191.029 157.172 190.937 156.392 190.753 155.811C190.569 155.23 190.267 154.814 189.848 154.564C189.429 154.314 188.869 154.188 188.17 154.188C188.023 154.188 187.894 154.137 187.784 154.034C187.681 153.924 187.629 153.795 187.629 153.648C187.629 153.493 187.681 153.364 187.784 153.261C187.894 153.158 188.023 153.107 188.17 153.107C189.554 153.107 190.554 153.508 191.172 154.31C191.798 155.112 192.111 156.392 192.111 158.151V166.65C192.111 168.32 191.798 169.542 191.172 170.314C190.554 171.087 189.554 171.473 188.17 171.473Z" fill="white"/>
<path d="M161.989 65.2283L73.8676 71.7079L41.4699 65.2283L12.96 133.047L69.1159 111.881L202.162 124.84L197.411 93.7383L161.989 65.2283ZM161.989 65.2283L158.533 32.3987L212.098 13.3921L230.672 32.3987" stroke="#AA7E41" stroke-width="0.3"/>
<g filter="url(#filter0_f_99_7294)">
<circle cx="41.4697" cy="65.6602" r="3.88772" fill="#FAFFB3"/>
</g>
<circle cx="41.4702" cy="65.6602" r="2.59181" fill="#D9D9D9"/>
<g filter="url(#filter1_f_99_7294)">
<circle cx="72.5718" cy="70.8438" r="3.88772" fill="#FAFFB3"/>
</g>
<circle cx="72.5718" cy="70.8443" r="2.59181" fill="#D9D9D9"/>
<g filter="url(#filter2_f_99_7294)">
<circle cx="12.96" cy="133.047" r="3.88772" fill="#FAFFB3"/>
</g>
<circle cx="12.96" cy="133.047" r="2.59181" fill="#D9D9D9"/>
<g filter="url(#filter3_f_99_7294)">
<circle cx="69.9795" cy="112.313" r="3.88772" fill="#FAFFB3"/>
</g>
<circle cx="69.9805" cy="112.313" r="2.59181" fill="#D9D9D9"/>
<g filter="url(#filter4_f_99_7294)">
<circle cx="201.298" cy="125.272" r="3.88772" fill="#FAFFB3"/>
</g>
<circle cx="201.299" cy="125.272" r="2.59181" fill="#D9D9D9"/>
<g filter="url(#filter5_f_99_7294)">
<circle cx="195.251" cy="92.4424" r="3.88772" fill="#FAFFB3"/>
</g>
<circle cx="195.251" cy="92.4424" r="2.59181" fill="#D9D9D9"/>
<g filter="url(#filter6_f_99_7294)">
<circle cx="160.693" cy="64.7964" r="3.88772" fill="#FAFFB3"/>
</g>
<circle cx="160.694" cy="64.7964" r="2.59181" fill="#D9D9D9"/>
<g filter="url(#filter7_f_99_7294)">
<circle cx="158.102" cy="33.6944" r="3.88772" fill="#FAFFB3"/>
</g>
<circle cx="158.102" cy="33.6944" r="2.59181" fill="#D9D9D9"/>
<g filter="url(#filter8_f_99_7294)">
<circle cx="212.53" cy="12.96" r="3.88772" fill="#FAFFB3"/>
</g>
<circle cx="212.53" cy="12.96" r="2.59181" fill="#D9D9D9"/>
<g filter="url(#filter9_f_99_7294)">
<circle cx="229.809" cy="31.9668" r="3.88772" fill="#FAFFB3"/>
</g>
<circle cx="229.809" cy="31.9668" r="2.59181" fill="#D9D9D9"/>
<defs>
<filter id="filter0_f_99_7294" x="28.5099" y="52.7004" width="25.9196" height="25.9196" filterUnits="userSpaceOnUse" color-interpolation-filters="sRGB">
<feFlood flood-opacity="0" result="BackgroundImageFix"/>
<feBlend mode="normal" in="SourceGraphic" in2="BackgroundImageFix" result="shape"/>
<feGaussianBlur stdDeviation="4.53604" result="effect1_foregroundBlur_99_7294"/>
</filter>
<filter id="filter1_f_99_7294" x="59.612" y="57.884" width="25.9196" height="25.9196" filterUnits="userSpaceOnUse" color-interpolation-filters="sRGB">
<feFlood flood-opacity="0" result="BackgroundImageFix"/>
<feBlend mode="normal" in="SourceGraphic" in2="BackgroundImageFix" result="shape"/>
<feGaussianBlur stdDeviation="4.53604" result="effect1_foregroundBlur_99_7294"/>
</filter>
<filter id="filter2_f_99_7294" x="0.000184059" y="120.088" width="25.9196" height="25.9196" filterUnits="userSpaceOnUse" color-interpolation-filters="sRGB">
<feFlood flood-opacity="0" result="BackgroundImageFix"/>
<feBlend mode="normal" in="SourceGraphic" in2="BackgroundImageFix" result="shape"/>
<feGaussianBlur stdDeviation="4.53604" result="effect1_foregroundBlur_99_7294"/>
</filter>
<filter id="filter3_f_99_7294" x="57.0197" y="99.3532" width="25.9196" height="25.9196" filterUnits="userSpaceOnUse" color-interpolation-filters="sRGB">
<feFlood flood-opacity="0" result="BackgroundImageFix"/>
<feBlend mode="normal" in="SourceGraphic" in2="BackgroundImageFix" result="shape"/>
<feGaussianBlur stdDeviation="4.53604" result="effect1_foregroundBlur_99_7294"/>
</filter>
<filter id="filter4_f_99_7294" x="188.339" y="112.312" width="25.9196" height="25.9196" filterUnits="userSpaceOnUse" color-interpolation-filters="sRGB">
<feFlood flood-opacity="0" result="BackgroundImageFix"/>
<feBlend mode="normal" in="SourceGraphic" in2="BackgroundImageFix" result="shape"/>
<feGaussianBlur stdDeviation="4.53604" result="effect1_foregroundBlur_99_7294"/>
</filter>
<filter id="filter5_f_99_7294" x="182.291" y="79.4826" width="25.9196" height="25.9196" filterUnits="userSpaceOnUse" color-interpolation-filters="sRGB">
<feFlood flood-opacity="0" result="BackgroundImageFix"/>
<feBlend mode="normal" in="SourceGraphic" in2="BackgroundImageFix" result="shape"/>
<feGaussianBlur stdDeviation="4.53604" result="effect1_foregroundBlur_99_7294"/>
</filter>
<filter id="filter6_f_99_7294" x="147.734" y="51.8366" width="25.9196" height="25.9196" filterUnits="userSpaceOnUse" color-interpolation-filters="sRGB">
<feFlood flood-opacity="0" result="BackgroundImageFix"/>
<feBlend mode="normal" in="SourceGraphic" in2="BackgroundImageFix" result="shape"/>
<feGaussianBlur stdDeviation="4.53604" result="effect1_foregroundBlur_99_7294"/>
</filter>
<filter id="filter7_f_99_7294" x="145.142" y="20.7346" width="25.9196" height="25.9196" filterUnits="userSpaceOnUse" color-interpolation-filters="sRGB">
<feFlood flood-opacity="0" result="BackgroundImageFix"/>
<feBlend mode="normal" in="SourceGraphic" in2="BackgroundImageFix" result="shape"/>
<feGaussianBlur stdDeviation="4.53604" result="effect1_foregroundBlur_99_7294"/>
</filter>
<filter id="filter8_f_99_7294" x="199.57" y="0.000184059" width="25.9196" height="25.9196" filterUnits="userSpaceOnUse" color-interpolation-filters="sRGB">
<feFlood flood-opacity="0" result="BackgroundImageFix"/>
<feBlend mode="normal" in="SourceGraphic" in2="BackgroundImageFix" result="shape"/>
<feGaussianBlur stdDeviation="4.53604" result="effect1_foregroundBlur_99_7294"/>
</filter>
<filter id="filter9_f_99_7294" x="216.849" y="19.007" width="25.9196" height="25.9196" filterUnits="userSpaceOnUse" color-interpolation-filters="sRGB">
<feFlood flood-opacity="0" result="BackgroundImageFix"/>
<feBlend mode="normal" in="SourceGraphic" in2="BackgroundImageFix" result="shape"/>
<feGaussianBlur stdDeviation="4.53604" result="effect1_foregroundBlur_99_7294"/>
</filter>
</defs>
</svg>
