<svg width="229" height="212" viewBox="0 0 229 212" fill="none" xmlns="http://www.w3.org/2000/svg">
<path d="M70.4251 162.578C70.0501 162.578 69.8626 162.391 69.8626 162.016V149.461C69.8626 149.086 70.0501 148.899 70.4251 148.899H75.3916C76.6014 148.899 77.5141 149.21 78.1296 149.833C78.7522 150.455 79.0634 151.372 79.0634 152.581V153.218C79.0634 154.421 78.7522 155.333 78.1296 155.956C77.5141 156.579 76.6014 156.89 75.3916 156.89H70.9769V162.016C70.9769 162.391 70.793 162.578 70.4251 162.578ZM70.9769 155.776H75.3916C76.283 155.776 76.9304 155.574 77.3336 155.171C77.744 154.76 77.9492 154.11 77.9492 153.218V152.581C77.9492 151.683 77.744 151.032 77.3336 150.629C76.9304 150.218 76.283 150.013 75.3916 150.013H70.9769V155.776ZM82.1732 157.994V158.768C82.1732 159.766 82.3713 160.466 82.7675 160.87C83.1707 161.266 83.8782 161.464 84.8899 161.464H86.6303C87.5218 161.464 88.1691 161.351 88.5724 161.124C88.9827 160.891 89.2268 160.491 89.3046 159.925C89.3329 159.748 89.3895 159.614 89.4744 159.522C89.5664 159.43 89.7044 159.384 89.8883 159.384C90.0722 159.384 90.2102 159.437 90.3022 159.543C90.4012 159.642 90.4401 159.784 90.4189 159.968C90.3269 160.859 89.9697 161.517 89.3471 161.941C88.7245 162.366 87.8189 162.578 86.6303 162.578H84.8899C83.5669 162.578 82.5977 162.274 81.9822 161.665C81.3666 161.05 81.0589 160.084 81.0589 158.768V156.37C81.0589 155.033 81.3666 154.06 81.9822 153.452C82.5977 152.836 83.5669 152.535 84.8899 152.55H86.6303C87.9533 152.55 88.919 152.857 89.5275 153.473C90.143 154.081 90.4508 155.047 90.4508 156.37V157.431C90.4508 157.806 90.2668 157.994 89.8989 157.994H82.1732ZM84.8899 153.664C83.8782 153.65 83.1707 153.844 82.7675 154.247C82.3713 154.644 82.1732 155.351 82.1732 156.37V156.879H89.3365V156.37C89.3365 155.358 89.1384 154.654 88.7422 154.258C88.346 153.862 87.642 153.664 86.6303 153.664H84.8899ZM96.5749 166.823C95.74 166.823 95.1033 166.65 94.6647 166.303C94.226 165.963 93.9678 165.426 93.89 164.69C93.8687 164.506 93.9076 164.361 94.0067 164.255C94.1057 164.149 94.2437 164.096 94.4206 164.096C94.5974 164.096 94.7319 164.142 94.8238 164.234C94.9158 164.326 94.9759 164.464 95.0042 164.648C95.0538 165.058 95.1988 165.337 95.4393 165.486C95.6799 165.634 96.0584 165.709 96.5749 165.709H100.523C101.145 165.709 101.566 165.596 101.785 165.369C102.012 165.143 102.125 164.718 102.125 164.096V161.061C101.8 161.556 101.34 161.934 100.745 162.196C100.151 162.451 99.3977 162.578 98.4851 162.578H97.6785C96.3555 162.578 95.3863 162.274 94.7708 161.665C94.1553 161.05 93.8475 160.084 93.8475 158.768V156.37C93.8475 155.033 94.1517 154.064 94.7602 153.462C95.3757 152.854 96.3485 152.55 97.6785 152.55H99.419C100.112 152.55 100.675 152.641 101.106 152.825C101.538 153.009 101.877 153.296 102.125 153.685V153.101C102.125 152.733 102.313 152.55 102.688 152.55C103.055 152.55 103.239 152.733 103.239 153.101V164.096C103.239 165.03 103.02 165.716 102.581 166.154C102.143 166.6 101.457 166.823 100.523 166.823H96.5749ZM97.6785 161.464H98.4851C99.5887 161.464 100.47 161.291 101.128 160.944C101.793 160.597 102.125 160.07 102.125 159.363V155.818C102.125 155.019 101.902 154.46 101.457 154.141C101.011 153.823 100.332 153.664 99.419 153.664H97.6785C96.6668 153.664 95.9594 153.862 95.5561 154.258C95.1599 154.647 94.9618 155.351 94.9618 156.37V158.768C94.9618 159.766 95.1599 160.466 95.5561 160.87C95.9594 161.266 96.6668 161.464 97.6785 161.464ZM110.008 162.578C108.905 162.578 108.095 162.323 107.578 161.814C107.069 161.298 106.814 160.488 106.814 159.384C106.814 158.28 107.072 157.47 107.589 156.954C108.105 156.437 108.912 156.179 110.008 156.179H114.837C114.823 155.245 114.611 154.594 114.2 154.226C113.797 153.851 113.107 153.664 112.131 153.664H110.9C110.001 153.664 109.343 153.759 108.926 153.95C108.508 154.141 108.25 154.467 108.151 154.927C108.102 155.104 108.034 155.234 107.95 155.319C107.872 155.397 107.744 155.436 107.568 155.436C107.384 155.436 107.239 155.387 107.132 155.287C107.033 155.181 106.998 155.04 107.026 154.863C107.118 154.056 107.483 153.469 108.119 153.101C108.763 152.733 109.69 152.55 110.9 152.55H112.131C113.454 152.55 114.42 152.857 115.028 153.473C115.643 154.081 115.951 155.047 115.951 156.37V162.016C115.951 162.391 115.767 162.578 115.399 162.578C115.024 162.578 114.837 162.391 114.837 162.016V160.965C114.158 162.04 112.944 162.578 111.197 162.578H110.008ZM110.008 161.464H111.197C111.883 161.464 112.485 161.39 113.001 161.241C113.525 161.085 113.945 160.838 114.264 160.498C114.582 160.159 114.773 159.706 114.837 159.14V157.293H110.008C109.223 157.293 108.678 157.445 108.374 157.75C108.077 158.047 107.928 158.591 107.928 159.384C107.928 160.169 108.077 160.714 108.374 161.018C108.678 161.315 109.223 161.464 110.008 161.464ZM121.929 162.557C121.059 162.557 120.393 162.373 119.934 162.005C119.474 161.63 119.198 161.061 119.106 160.296C119.085 160.113 119.124 159.971 119.223 159.872C119.322 159.766 119.467 159.713 119.658 159.713C119.835 159.713 119.965 159.759 120.05 159.851C120.142 159.943 120.202 160.081 120.231 160.265C120.294 160.703 120.454 161.011 120.708 161.188C120.97 161.358 121.377 161.443 121.929 161.443H125.41C126.068 161.443 126.52 161.319 126.768 161.071C127.016 160.824 127.139 160.371 127.139 159.713C127.139 159.048 127.016 158.591 126.768 158.344C126.52 158.096 126.068 157.972 125.41 157.972H121.971C121.051 157.972 120.365 157.753 119.912 157.314C119.467 156.869 119.244 156.186 119.244 155.266C119.244 154.325 119.467 153.636 119.912 153.197C120.358 152.751 121.044 152.528 121.971 152.528H125.303C126.902 152.528 127.79 153.236 127.967 154.651C127.995 154.835 127.957 154.98 127.85 155.086C127.751 155.185 127.61 155.234 127.426 155.234C127.249 155.234 127.115 155.188 127.023 155.096C126.938 155.004 126.878 154.87 126.842 154.693C126.793 154.297 126.648 154.025 126.407 153.876C126.174 153.72 125.806 153.643 125.303 153.643H121.971C121.356 153.643 120.931 153.756 120.698 153.982C120.471 154.209 120.358 154.637 120.358 155.266C120.358 155.868 120.475 156.285 120.708 156.519C120.942 156.745 121.363 156.858 121.971 156.858H125.41C126.386 156.858 127.104 157.092 127.564 157.559C128.024 158.018 128.254 158.736 128.254 159.713C128.254 160.682 128.024 161.4 127.564 161.867C127.104 162.327 126.386 162.557 125.41 162.557H121.929ZM140.014 152.55C140.389 152.55 140.576 152.733 140.576 153.101V162.016C140.576 162.391 140.389 162.578 140.014 162.578C139.646 162.578 139.462 162.391 139.462 162.016V161.008C138.79 162.055 137.573 162.578 135.812 162.578H135.217C133.894 162.578 132.925 162.27 132.31 161.655C131.701 161.039 131.397 160.07 131.397 158.747V153.101C131.397 152.733 131.581 152.55 131.949 152.55C132.324 152.55 132.511 152.733 132.511 153.101V158.747C132.511 159.759 132.709 160.466 133.105 160.87C133.509 161.266 134.213 161.464 135.217 161.464H135.812C136.908 161.464 137.771 161.287 138.401 160.933C139.031 160.579 139.384 160.038 139.462 159.31V153.101C139.462 152.733 139.646 152.55 140.014 152.55ZM146.739 162.557C145.869 162.557 145.204 162.373 144.744 162.005C144.284 161.63 144.008 161.061 143.916 160.296C143.895 160.113 143.934 159.971 144.033 159.872C144.132 159.766 144.277 159.713 144.468 159.713C144.645 159.713 144.776 159.759 144.861 159.851C144.953 159.943 145.013 160.081 145.041 160.265C145.105 160.703 145.264 161.011 145.519 161.188C145.78 161.358 146.187 161.443 146.739 161.443H150.22C150.878 161.443 151.331 161.319 151.578 161.071C151.826 160.824 151.95 160.371 151.95 159.713C151.95 159.048 151.826 158.591 151.578 158.344C151.331 158.096 150.878 157.972 150.22 157.972H146.782C145.862 157.972 145.176 157.753 144.723 157.314C144.277 156.869 144.054 156.186 144.054 155.266C144.054 154.325 144.277 153.636 144.723 153.197C145.168 152.751 145.855 152.528 146.782 152.528H150.114C151.713 152.528 152.601 153.236 152.777 154.651C152.806 154.835 152.767 154.98 152.661 155.086C152.562 155.185 152.42 155.234 152.236 155.234C152.059 155.234 151.925 155.188 151.833 155.096C151.748 155.004 151.688 154.87 151.653 154.693C151.603 154.297 151.458 154.025 151.217 153.876C150.984 153.72 150.616 153.643 150.114 153.643H146.782C146.166 153.643 145.742 153.756 145.508 153.982C145.282 154.209 145.168 154.637 145.168 155.266C145.168 155.868 145.285 156.285 145.519 156.519C145.752 156.745 146.173 156.858 146.782 156.858H150.22C151.196 156.858 151.914 157.092 152.374 157.559C152.834 158.018 153.064 158.736 153.064 159.713C153.064 160.682 152.834 161.4 152.374 161.867C151.914 162.327 151.196 162.557 150.22 162.557H146.739ZM21.627 191.07C20.304 191.07 19.3418 190.698 18.7405 189.955C18.1391 189.212 17.8384 188.038 17.8384 186.432V178.261C17.8384 176.57 18.1391 175.339 18.7405 174.567C19.3418 173.796 20.304 173.411 21.627 173.411C21.7756 173.411 21.8994 173.46 21.9984 173.559C22.0975 173.658 22.147 173.782 22.147 173.931C22.147 174.072 22.0975 174.196 21.9984 174.302C21.8994 174.401 21.7756 174.451 21.627 174.451C20.9549 174.451 20.4172 174.571 20.0139 174.812C19.6107 175.052 19.3206 175.452 19.1437 176.011C18.9669 176.57 18.8784 177.32 18.8784 178.261V186.432C18.8784 187.769 19.0836 188.703 19.4939 189.234C19.9114 189.764 20.6224 190.03 21.627 190.03C21.7756 190.03 21.8994 190.079 21.9984 190.178C22.0975 190.277 22.147 190.401 22.147 190.55C22.147 190.691 22.0975 190.811 21.9984 190.91C21.8994 191.017 21.7756 191.07 21.627 191.07ZM28.3892 187.589C28.2194 187.589 28.0814 187.539 27.9753 187.44C27.8763 187.341 27.8267 187.207 27.8267 187.037V175.003H23.3165C23.1467 175.003 23.0088 174.953 22.9026 174.854C22.8036 174.755 22.7541 174.621 22.7541 174.451C22.7541 174.281 22.8036 174.147 22.9026 174.047C23.0088 173.941 23.1467 173.888 23.3165 173.888H33.4618C33.6316 173.888 33.7661 173.941 33.8651 174.047C33.9642 174.147 34.0137 174.281 34.0137 174.451C34.0137 174.621 33.9642 174.755 33.8651 174.854C33.7661 174.953 33.6316 175.003 33.4618 175.003H28.941V187.037C28.941 187.2 28.888 187.334 28.7818 187.44C28.6828 187.539 28.5519 187.589 28.3892 187.589ZM36.5363 187.578C36.1613 187.578 35.9738 187.391 35.9738 187.016V173.411C35.9738 173.043 36.1613 172.859 36.5363 172.859C36.9041 172.859 37.0881 173.043 37.0881 173.411V179.12C37.7602 178.073 38.9771 177.55 40.7387 177.55H41.333C42.656 177.55 43.6217 177.857 44.2302 178.473C44.8457 179.081 45.1534 180.047 45.1534 181.37V187.016C45.1534 187.391 44.9695 187.578 44.6016 187.578C44.2266 187.578 44.0391 187.391 44.0391 187.016V181.37C44.0391 180.358 43.8375 179.654 43.4342 179.258C43.038 178.862 42.3376 178.664 41.333 178.664H40.7387C39.6421 178.664 38.779 178.837 38.1493 179.184C37.5197 179.53 37.1659 180.072 37.0881 180.807V187.016C37.0881 187.391 36.9041 187.578 36.5363 187.578ZM49.756 182.994V183.768C49.756 184.766 49.9541 185.466 50.3503 185.87C50.7536 186.266 51.461 186.464 52.4727 186.464H54.2132C55.1046 186.464 55.7519 186.351 56.1552 186.124C56.5655 185.891 56.8096 185.491 56.8874 184.925C56.9157 184.748 56.9723 184.614 57.0572 184.522C57.1492 184.43 57.2872 184.384 57.4711 184.384C57.6551 184.384 57.793 184.437 57.885 184.543C57.984 184.642 58.023 184.784 58.0017 184.968C57.9098 185.859 57.5525 186.517 56.9299 186.941C56.3073 187.366 55.4017 187.578 54.2132 187.578H52.4727C51.1497 187.578 50.1805 187.274 49.565 186.665C48.9495 186.05 48.6417 185.084 48.6417 183.768V181.37C48.6417 180.033 48.9495 179.06 49.565 178.452C50.1805 177.836 51.1497 177.535 52.4727 177.55H54.2132C55.5361 177.55 56.5019 177.857 57.1103 178.473C57.7258 179.081 58.0336 180.047 58.0336 181.37V182.431C58.0336 182.806 57.8496 182.994 57.4817 182.994H49.756ZM52.4727 178.664C51.461 178.65 50.7536 178.844 50.3503 179.247C49.9541 179.644 49.756 180.351 49.756 181.37V181.879H56.9193V181.37C56.9193 180.358 56.7212 179.654 56.325 179.258C55.9288 178.862 55.2249 178.664 54.2132 178.664H52.4727ZM69.9727 187.578C69.7039 187.578 69.5235 187.433 69.4315 187.143L65.367 174.642C65.3104 174.479 65.3316 174.316 65.4307 174.154C65.5297 173.984 65.6854 173.899 65.8976 173.899C66.0179 173.899 66.124 173.934 66.216 174.005C66.315 174.069 66.3822 174.168 66.4176 174.302L70.1956 185.912H69.8878L73.4641 174.334C73.5137 174.178 73.5986 174.065 73.7188 173.994C73.8462 173.924 73.9771 173.888 74.1115 173.888C74.253 173.888 74.3874 173.924 74.5148 173.994C74.6421 174.065 74.7235 174.178 74.7588 174.334L78.3352 185.912H78.0274L81.8054 174.302C81.8549 174.168 81.9221 174.069 82.007 174.005C82.099 173.934 82.2051 173.899 82.3254 173.899C82.5659 173.899 82.7287 173.98 82.8136 174.143C82.9055 174.306 82.9232 174.472 82.8666 174.642L78.7915 187.143C78.6995 187.433 78.505 187.578 78.2078 187.578H78.1654C77.8612 187.578 77.6666 187.433 77.5817 187.143L73.9417 175.448H74.2495L70.6094 187.143C70.5599 187.32 70.4821 187.437 70.376 187.493C70.2699 187.55 70.1354 187.578 69.9727 187.578ZM85.4983 175.618C85.0101 175.618 84.7661 175.367 84.7661 174.865V174.387C84.7661 173.899 85.0101 173.655 85.4983 173.655H85.9759C86.4499 173.655 86.6869 173.899 86.6869 174.387V174.865C86.6869 175.367 86.4499 175.618 85.9759 175.618H85.4983ZM85.7424 187.578C85.3674 187.578 85.1799 187.391 85.1799 187.016V178.101C85.1799 177.733 85.3674 177.55 85.7424 177.55C86.1103 177.55 86.2942 177.733 86.2942 178.101V187.016C86.2942 187.391 86.1103 187.578 85.7424 187.578ZM90.8205 187.578C90.4456 187.578 90.2581 187.391 90.2581 187.016V178.101C90.2581 177.733 90.4456 177.55 90.8205 177.55C91.1884 177.55 91.3724 177.733 91.3724 178.101V179.12C92.0445 178.073 93.2613 177.55 95.023 177.55H95.6173C96.9403 177.55 97.906 177.857 98.5144 178.473C99.1299 179.081 99.4377 180.047 99.4377 181.37V187.016C99.4377 187.391 99.2537 187.578 98.8858 187.578C98.5109 187.578 98.3234 187.391 98.3234 187.016V181.37C98.3234 180.358 98.1218 179.654 97.7185 179.258C97.3223 178.862 96.6219 178.664 95.6173 178.664H95.023C93.9264 178.664 93.0632 178.837 92.4336 179.184C91.8039 179.53 91.4502 180.072 91.3724 180.807V187.016C91.3724 187.391 91.1884 187.578 90.8205 187.578ZM105.653 191.823C104.818 191.823 104.182 191.65 103.743 191.303C103.304 190.963 103.046 190.426 102.968 189.69C102.947 189.506 102.986 189.361 103.085 189.255C103.184 189.149 103.322 189.096 103.499 189.096C103.676 189.096 103.81 189.142 103.902 189.234C103.994 189.326 104.054 189.464 104.083 189.648C104.132 190.058 104.277 190.337 104.518 190.486C104.758 190.634 105.137 190.709 105.653 190.709H109.601C110.224 190.709 110.645 190.596 110.864 190.369C111.09 190.143 111.204 189.718 111.204 189.096V186.061C110.878 186.556 110.418 186.934 109.824 187.196C109.23 187.451 108.476 187.578 107.564 187.578H106.757C105.434 187.578 104.465 187.274 103.849 186.665C103.234 186.05 102.926 185.084 102.926 183.768V181.37C102.926 180.033 103.23 179.064 103.839 178.462C104.454 177.854 105.427 177.55 106.757 177.55H108.497C109.191 177.55 109.753 177.641 110.185 177.825C110.616 178.009 110.956 178.296 111.204 178.685V178.101C111.204 177.733 111.391 177.55 111.766 177.55C112.134 177.55 112.318 177.733 112.318 178.101V189.096C112.318 190.03 112.099 190.716 111.66 191.154C111.221 191.6 110.535 191.823 109.601 191.823H105.653ZM106.757 186.464H107.564C108.667 186.464 109.548 186.291 110.206 185.944C110.871 185.597 111.204 185.07 111.204 184.363V180.818C111.204 180.019 110.981 179.46 110.535 179.141C110.089 178.823 109.41 178.664 108.497 178.664H106.757C105.745 178.664 105.038 178.862 104.635 179.258C104.238 179.647 104.04 180.351 104.04 181.37V183.768C104.04 184.766 104.238 185.466 104.635 185.87C105.038 186.266 105.745 186.464 106.757 186.464ZM116.933 182.994V183.768C116.933 184.766 117.131 185.466 117.527 185.87C117.93 186.266 118.638 186.464 119.649 186.464H121.39C122.281 186.464 122.928 186.351 123.332 186.124C123.742 185.891 123.986 185.491 124.064 184.925C124.092 184.748 124.149 184.614 124.234 184.522C124.326 184.43 124.464 184.384 124.648 184.384C124.832 184.384 124.97 184.437 125.062 184.543C125.161 184.642 125.199 184.784 125.178 184.968C125.086 185.859 124.729 186.517 124.106 186.941C123.484 187.366 122.578 187.578 121.39 187.578H119.649C118.326 187.578 117.357 187.274 116.741 186.665C116.126 186.05 115.818 185.084 115.818 183.768V181.37C115.818 180.033 116.126 179.06 116.741 178.452C117.357 177.836 118.326 177.535 119.649 177.55H121.39C122.713 177.55 123.678 177.857 124.287 178.473C124.902 179.081 125.21 180.047 125.21 181.37V182.431C125.21 182.806 125.026 182.994 124.658 182.994H116.933ZM119.649 178.664C118.638 178.65 117.93 178.844 117.527 179.247C117.131 179.644 116.933 180.351 116.933 181.37V181.879H124.096V181.37C124.096 180.358 123.898 179.654 123.502 179.258C123.105 178.862 122.401 178.664 121.39 178.664H119.649ZM132.438 187.578C131.115 187.578 130.146 187.27 129.53 186.655C128.915 186.039 128.607 185.07 128.607 183.747V181.37C128.607 180.047 128.915 179.081 129.53 178.473C130.146 177.857 131.115 177.55 132.438 177.55H136.884V173.411C136.884 173.043 137.072 172.859 137.447 172.859C137.815 172.859 137.999 173.043 137.999 173.411V187.016C137.999 187.391 137.815 187.578 137.447 187.578C137.072 187.578 136.884 187.391 136.884 187.016V186.103C136.58 186.591 136.134 186.959 135.547 187.207C134.96 187.454 134.192 187.578 133.244 187.578H132.438ZM132.438 186.464H133.244C134.348 186.464 135.229 186.291 135.887 185.944C136.552 185.59 136.884 185.063 136.884 184.363V178.664H132.438C131.426 178.664 130.719 178.865 130.315 179.269C129.919 179.665 129.721 180.365 129.721 181.37V183.747C129.721 184.759 129.919 185.466 130.315 185.87C130.719 186.266 131.426 186.464 132.438 186.464ZM147.675 187.578C147.505 187.578 147.367 187.529 147.261 187.43C147.162 187.323 147.113 187.185 147.113 187.016V174.461C147.113 174.292 147.162 174.157 147.261 174.058C147.367 173.952 147.505 173.899 147.675 173.899C147.845 173.899 147.979 173.952 148.078 174.058C148.177 174.157 148.227 174.292 148.227 174.461V180.086H157.13V174.461C157.13 174.292 157.18 174.157 157.279 174.058C157.378 173.952 157.513 173.899 157.682 173.899C157.852 173.899 157.987 173.952 158.086 174.058C158.192 174.157 158.245 174.292 158.245 174.461V187.016C158.245 187.185 158.192 187.323 158.086 187.43C157.987 187.529 157.852 187.578 157.682 187.578C157.513 187.578 157.378 187.529 157.279 187.43C157.18 187.323 157.13 187.185 157.13 187.016V181.2H148.227V187.016C148.227 187.185 148.177 187.323 148.078 187.43C147.979 187.529 147.845 187.578 147.675 187.578ZM165.767 187.578C164.444 187.578 163.475 187.274 162.859 186.665C162.244 186.05 161.936 185.084 161.936 183.768V181.37C161.936 180.033 162.244 179.06 162.859 178.452C163.475 177.836 164.444 177.535 165.767 177.55H167.507C168.83 177.55 169.796 177.857 170.405 178.473C171.02 179.081 171.328 180.047 171.328 181.37V183.747C171.328 185.07 171.02 186.039 170.405 186.655C169.796 187.27 168.83 187.578 167.507 187.578H165.767ZM163.05 183.768C163.05 184.766 163.248 185.466 163.645 185.87C164.048 186.266 164.755 186.464 165.767 186.464H167.507C168.519 186.464 169.223 186.266 169.619 185.87C170.015 185.466 170.214 184.759 170.214 183.747V181.37C170.214 180.358 170.015 179.654 169.619 179.258C169.223 178.862 168.519 178.664 167.507 178.664H165.767C165.088 178.657 164.55 178.738 164.154 178.908C163.758 179.078 163.475 179.361 163.305 179.757C163.135 180.153 163.05 180.691 163.05 181.37V183.768ZM175.574 187.578C175.199 187.578 175.011 187.391 175.011 187.016V178.101C175.011 177.733 175.199 177.55 175.574 177.55C175.942 177.55 176.125 177.733 176.125 178.101V179.736C176.493 179.028 177.024 178.487 177.717 178.112C178.418 177.737 179.245 177.55 180.201 177.55C180.576 177.55 180.763 177.733 180.763 178.101C180.763 178.476 180.576 178.664 180.201 178.664C178.941 178.664 177.965 178.95 177.272 179.523C176.578 180.089 176.196 180.899 176.125 181.954V187.016C176.125 187.391 175.942 187.578 175.574 187.578ZM184.794 187.557C183.924 187.557 183.259 187.373 182.799 187.005C182.339 186.63 182.063 186.061 181.971 185.296C181.95 185.113 181.989 184.971 182.088 184.872C182.187 184.766 182.332 184.713 182.523 184.713C182.7 184.713 182.831 184.759 182.916 184.851C183.008 184.943 183.068 185.081 183.096 185.265C183.16 185.703 183.319 186.011 183.574 186.188C183.835 186.358 184.242 186.443 184.794 186.443H188.275C188.933 186.443 189.386 186.319 189.633 186.071C189.881 185.824 190.005 185.371 190.005 184.713C190.005 184.048 189.881 183.591 189.633 183.344C189.386 183.096 188.933 182.972 188.275 182.972H184.836C183.917 182.972 183.23 182.753 182.778 182.314C182.332 181.869 182.109 181.186 182.109 180.266C182.109 179.325 182.332 178.636 182.778 178.197C183.223 177.751 183.91 177.528 184.836 177.528H188.169C189.768 177.528 190.656 178.236 190.832 179.651C190.861 179.835 190.822 179.98 190.716 180.086C190.617 180.185 190.475 180.234 190.291 180.234C190.114 180.234 189.98 180.188 189.888 180.096C189.803 180.004 189.743 179.87 189.708 179.693C189.658 179.297 189.513 179.025 189.272 178.876C189.039 178.72 188.671 178.643 188.169 178.643H184.836C184.221 178.643 183.796 178.756 183.563 178.982C183.337 179.209 183.223 179.637 183.223 180.266C183.223 180.868 183.34 181.285 183.574 181.519C183.807 181.745 184.228 181.858 184.836 181.858H188.275C189.251 181.858 189.969 182.092 190.429 182.559C190.889 183.018 191.119 183.736 191.119 184.713C191.119 185.682 190.889 186.4 190.429 186.867C189.969 187.327 189.251 187.557 188.275 187.557H184.794ZM195.281 182.994V183.768C195.281 184.766 195.479 185.466 195.875 185.87C196.278 186.266 196.986 186.464 197.998 186.464H199.738C200.63 186.464 201.277 186.351 201.68 186.124C202.09 185.891 202.335 185.491 202.412 184.925C202.441 184.748 202.497 184.614 202.582 184.522C202.674 184.43 202.812 184.384 202.996 184.384C203.18 184.384 203.318 184.437 203.41 184.543C203.509 184.642 203.548 184.784 203.527 184.968C203.435 185.859 203.077 186.517 202.455 186.941C201.832 187.366 200.927 187.578 199.738 187.578H197.998C196.675 187.578 195.705 187.274 195.09 186.665C194.474 186.05 194.167 185.084 194.167 183.768V181.37C194.167 180.033 194.474 179.06 195.09 178.452C195.705 177.836 196.675 177.535 197.998 177.55H199.738C201.061 177.55 202.027 177.857 202.635 178.473C203.251 179.081 203.559 180.047 203.559 181.37V182.431C203.559 182.806 203.375 182.994 203.007 182.994H195.281ZM197.998 178.664C196.986 178.65 196.278 178.844 195.875 179.247C195.479 179.644 195.281 180.351 195.281 181.37V181.879H202.444V181.37C202.444 180.358 202.246 179.654 201.85 179.258C201.454 178.862 200.75 178.664 199.738 178.664H197.998ZM205.99 191.07C205.848 191.07 205.724 191.017 205.618 190.91C205.519 190.811 205.47 190.691 205.47 190.55C205.47 190.401 205.519 190.277 205.618 190.178C205.724 190.079 205.848 190.03 205.99 190.03C207.001 190.03 207.712 189.764 208.123 189.234C208.533 188.703 208.738 187.769 208.738 186.432V178.261C208.738 177.32 208.65 176.57 208.473 176.011C208.296 175.452 208.006 175.052 207.603 174.812C207.199 174.571 206.662 174.451 205.99 174.451C205.848 174.451 205.724 174.401 205.618 174.302C205.519 174.196 205.47 174.072 205.47 173.931C205.47 173.782 205.519 173.658 205.618 173.559C205.724 173.46 205.848 173.411 205.99 173.411C207.32 173.411 208.282 173.796 208.876 174.567C209.477 175.339 209.778 176.57 209.778 178.261V186.432C209.778 188.038 209.477 189.212 208.876 189.955C208.282 190.698 207.32 191.07 205.99 191.07Z" fill="white"/>
<path d="M86.5389 104.897L17.1221 89.4714L31.0054 20.5687L101.965 45.2503M86.5389 104.897L134.359 122.894H178.066L189.379 145.519M86.5389 104.897L106.078 98.2128L122.019 95.1276L183.723 98.2128L207.89 122.894M86.5389 104.897L101.965 45.2503M101.965 45.2503H134.359L149.271 29.8243L178.066 15.4268L214.574 51.4207" stroke="#AA7E41" stroke-width="0.3"/>
<g filter="url(#filter0_f_99_7245)">
<circle cx="31.0052" cy="22.6253" r="4.62779" fill="#FAFFB3"/>
</g>
<circle cx="31.0056" cy="22.6252" r="3.08519" fill="#D9D9D9"/>
<g filter="url(#filter1_f_99_7245)">
<circle cx="16.6078" cy="89.4711" r="4.62779" fill="#FAFFB3"/>
</g>
<circle cx="16.6081" cy="89.4714" r="3.08519" fill="#D9D9D9"/>
<g filter="url(#filter2_f_99_7245)">
<circle cx="102.993" cy="45.2503" r="4.62779" fill="#FAFFB3"/>
</g>
<circle cx="102.993" cy="45.2502" r="3.08519" fill="#D9D9D9"/>
<g filter="url(#filter3_f_99_7245)">
<circle cx="134.873" cy="45.2503" r="4.62779" fill="#FAFFB3"/>
</g>
<circle cx="134.874" cy="45.2502" r="3.08519" fill="#D9D9D9"/>
<g filter="url(#filter4_f_99_7245)">
<circle cx="149.271" cy="30.8529" r="4.62779" fill="#FAFFB3"/>
</g>
<circle cx="149.271" cy="30.8528" r="3.08519" fill="#D9D9D9"/>
<g filter="url(#filter5_f_99_7245)">
<circle cx="178.066" cy="15.4266" r="4.62779" fill="#FAFFB3"/>
</g>
<circle cx="178.067" cy="15.427" r="3.08519" fill="#D9D9D9"/>
<g filter="url(#filter6_f_99_7245)">
<circle cx="213.032" cy="50.3919" r="4.62779" fill="#FAFFB3"/>
</g>
<circle cx="213.032" cy="50.3923" r="3.08519" fill="#D9D9D9"/>
<g filter="url(#filter7_f_99_7245)">
<circle cx="86.5389" cy="104.897" r="4.62779" fill="#FAFFB3"/>
</g>
<circle cx="86.5393" cy="104.897" r="3.08519" fill="#D9D9D9"/>
<g filter="url(#filter8_f_99_7245)">
<circle cx="102.993" cy="98.7269" r="4.62779" fill="#FAFFB3"/>
</g>
<circle cx="102.993" cy="98.7273" r="3.08519" fill="#D9D9D9"/>
<g filter="url(#filter9_f_99_7245)">
<circle cx="120.476" cy="94.6131" r="4.62779" fill="#FAFFB3"/>
</g>
<circle cx="120.476" cy="94.613" r="3.08519" fill="#D9D9D9"/>
<g filter="url(#filter10_f_99_7245)">
<circle cx="182.18" cy="98.7269" r="4.62779" fill="#FAFFB3"/>
</g>
<circle cx="182.18" cy="98.7273" r="3.08519" fill="#D9D9D9"/>
<g filter="url(#filter11_f_99_7245)">
<circle cx="207.89" cy="122.38" r="4.62779" fill="#FAFFB3"/>
</g>
<circle cx="207.89" cy="122.38" r="3.08519" fill="#D9D9D9"/>
<g filter="url(#filter12_f_99_7245)">
<circle cx="190.407" cy="145.005" r="4.62779" fill="#FAFFB3"/>
</g>
<circle cx="190.407" cy="145.005" r="3.08519" fill="#D9D9D9"/>
<g filter="url(#filter13_f_99_7245)">
<circle cx="178.066" cy="124.437" r="4.62779" fill="#FAFFB3"/>
</g>
<circle cx="178.067" cy="124.437" r="3.08519" fill="#D9D9D9"/>
<g filter="url(#filter14_f_99_7245)">
<circle cx="134.873" cy="123.409" r="4.62779" fill="#FAFFB3"/>
</g>
<circle cx="134.874" cy="123.408" r="3.08519" fill="#D9D9D9"/>
<defs>
<filter id="filter0_f_99_7245" x="15.5784" y="7.1985" width="30.8535" height="30.8535" filterUnits="userSpaceOnUse" color-interpolation-filters="sRGB">
<feFlood flood-opacity="0" result="BackgroundImageFix"/>
<feBlend mode="normal" in="SourceGraphic" in2="BackgroundImageFix" result="shape"/>
<feGaussianBlur stdDeviation="5.39953" result="effect1_foregroundBlur_99_7245"/>
</filter>
<filter id="filter1_f_99_7245" x="1.18092" y="74.0442" width="30.8535" height="30.8535" filterUnits="userSpaceOnUse" color-interpolation-filters="sRGB">
<feFlood flood-opacity="0" result="BackgroundImageFix"/>
<feBlend mode="normal" in="SourceGraphic" in2="BackgroundImageFix" result="shape"/>
<feGaussianBlur stdDeviation="5.39953" result="effect1_foregroundBlur_99_7245"/>
</filter>
<filter id="filter2_f_99_7245" x="87.5662" y="29.8235" width="30.8535" height="30.8535" filterUnits="userSpaceOnUse" color-interpolation-filters="sRGB">
<feFlood flood-opacity="0" result="BackgroundImageFix"/>
<feBlend mode="normal" in="SourceGraphic" in2="BackgroundImageFix" result="shape"/>
<feGaussianBlur stdDeviation="5.39953" result="effect1_foregroundBlur_99_7245"/>
</filter>
<filter id="filter3_f_99_7245" x="119.447" y="29.8235" width="30.8535" height="30.8535" filterUnits="userSpaceOnUse" color-interpolation-filters="sRGB">
<feFlood flood-opacity="0" result="BackgroundImageFix"/>
<feBlend mode="normal" in="SourceGraphic" in2="BackgroundImageFix" result="shape"/>
<feGaussianBlur stdDeviation="5.39953" result="effect1_foregroundBlur_99_7245"/>
</filter>
<filter id="filter4_f_99_7245" x="133.844" y="15.426" width="30.8535" height="30.8535" filterUnits="userSpaceOnUse" color-interpolation-filters="sRGB">
<feFlood flood-opacity="0" result="BackgroundImageFix"/>
<feBlend mode="normal" in="SourceGraphic" in2="BackgroundImageFix" result="shape"/>
<feGaussianBlur stdDeviation="5.39953" result="effect1_foregroundBlur_99_7245"/>
</filter>
<filter id="filter5_f_99_7245" x="162.639" y="-0.000228882" width="30.8535" height="30.8535" filterUnits="userSpaceOnUse" color-interpolation-filters="sRGB">
<feFlood flood-opacity="0" result="BackgroundImageFix"/>
<feBlend mode="normal" in="SourceGraphic" in2="BackgroundImageFix" result="shape"/>
<feGaussianBlur stdDeviation="5.39953" result="effect1_foregroundBlur_99_7245"/>
</filter>
<filter id="filter6_f_99_7245" x="197.605" y="34.9651" width="30.8535" height="30.8535" filterUnits="userSpaceOnUse" color-interpolation-filters="sRGB">
<feFlood flood-opacity="0" result="BackgroundImageFix"/>
<feBlend mode="normal" in="SourceGraphic" in2="BackgroundImageFix" result="shape"/>
<feGaussianBlur stdDeviation="5.39953" result="effect1_foregroundBlur_99_7245"/>
</filter>
<filter id="filter7_f_99_7245" x="71.1121" y="89.4705" width="30.8535" height="30.8535" filterUnits="userSpaceOnUse" color-interpolation-filters="sRGB">
<feFlood flood-opacity="0" result="BackgroundImageFix"/>
<feBlend mode="normal" in="SourceGraphic" in2="BackgroundImageFix" result="shape"/>
<feGaussianBlur stdDeviation="5.39953" result="effect1_foregroundBlur_99_7245"/>
</filter>
<filter id="filter8_f_99_7245" x="87.5662" y="83.3001" width="30.8535" height="30.8535" filterUnits="userSpaceOnUse" color-interpolation-filters="sRGB">
<feFlood flood-opacity="0" result="BackgroundImageFix"/>
<feBlend mode="normal" in="SourceGraphic" in2="BackgroundImageFix" result="shape"/>
<feGaussianBlur stdDeviation="5.39953" result="effect1_foregroundBlur_99_7245"/>
</filter>
<filter id="filter9_f_99_7245" x="105.049" y="79.1863" width="30.8535" height="30.8535" filterUnits="userSpaceOnUse" color-interpolation-filters="sRGB">
<feFlood flood-opacity="0" result="BackgroundImageFix"/>
<feBlend mode="normal" in="SourceGraphic" in2="BackgroundImageFix" result="shape"/>
<feGaussianBlur stdDeviation="5.39953" result="effect1_foregroundBlur_99_7245"/>
</filter>
<filter id="filter10_f_99_7245" x="166.753" y="83.3001" width="30.8535" height="30.8535" filterUnits="userSpaceOnUse" color-interpolation-filters="sRGB">
<feFlood flood-opacity="0" result="BackgroundImageFix"/>
<feBlend mode="normal" in="SourceGraphic" in2="BackgroundImageFix" result="shape"/>
<feGaussianBlur stdDeviation="5.39953" result="effect1_foregroundBlur_99_7245"/>
</filter>
<filter id="filter11_f_99_7245" x="192.463" y="106.953" width="30.8535" height="30.8535" filterUnits="userSpaceOnUse" color-interpolation-filters="sRGB">
<feFlood flood-opacity="0" result="BackgroundImageFix"/>
<feBlend mode="normal" in="SourceGraphic" in2="BackgroundImageFix" result="shape"/>
<feGaussianBlur stdDeviation="5.39953" result="effect1_foregroundBlur_99_7245"/>
</filter>
<filter id="filter12_f_99_7245" x="174.98" y="129.578" width="30.8535" height="30.8535" filterUnits="userSpaceOnUse" color-interpolation-filters="sRGB">
<feFlood flood-opacity="0" result="BackgroundImageFix"/>
<feBlend mode="normal" in="SourceGraphic" in2="BackgroundImageFix" result="shape"/>
<feGaussianBlur stdDeviation="5.39953" result="effect1_foregroundBlur_99_7245"/>
</filter>
<filter id="filter13_f_99_7245" x="162.639" y="109.01" width="30.8535" height="30.8535" filterUnits="userSpaceOnUse" color-interpolation-filters="sRGB">
<feFlood flood-opacity="0" result="BackgroundImageFix"/>
<feBlend mode="normal" in="SourceGraphic" in2="BackgroundImageFix" result="shape"/>
<feGaussianBlur stdDeviation="5.39953" result="effect1_foregroundBlur_99_7245"/>
</filter>
<filter id="filter14_f_99_7245" x="119.447" y="107.982" width="30.8535" height="30.8535" filterUnits="userSpaceOnUse" color-interpolation-filters="sRGB">
<feFlood flood-opacity="0" result="BackgroundImageFix"/>
<feBlend mode="normal" in="SourceGraphic" in2="BackgroundImageFix" result="shape"/>
<feGaussianBlur stdDeviation="5.39953" result="effect1_foregroundBlur_99_7245"/>
</filter>
</defs>
</svg>
