<svg width="214" height="260" viewBox="0 0 214 260" fill="none" xmlns="http://www.w3.org/2000/svg">
<path d="M75.2094 225.047C73.8942 225.047 72.9171 224.757 72.2779 224.176C71.646 223.588 71.308 222.666 71.2639 221.41C71.2566 221.234 71.3044 221.094 71.4072 220.991C71.5174 220.881 71.6607 220.826 71.837 220.826C72.0134 220.826 72.153 220.877 72.2558 220.98C72.3587 221.083 72.4174 221.223 72.4321 221.399C72.4615 222.325 72.6819 222.971 73.0934 223.339C73.5048 223.706 74.2102 223.89 75.2094 223.89H78.3833C79.4266 223.89 80.1503 223.688 80.5544 223.283C80.9659 222.872 81.1716 222.152 81.1716 221.123C81.1716 220.08 80.9659 219.356 80.5544 218.952C80.1503 218.541 79.4266 218.335 78.3833 218.335H75.3637C74.0706 218.335 73.1228 218.034 72.5203 217.431C71.9178 216.829 71.6166 215.885 71.6166 214.599C71.6166 213.313 71.9142 212.369 72.5093 211.767C73.1118 211.164 74.0559 210.863 75.3416 210.863H78.4274C79.6618 210.863 80.5765 211.139 81.1716 211.69C81.7741 212.241 82.0973 213.108 82.1414 214.291C82.1561 214.467 82.1084 214.61 81.9981 214.72C81.8953 214.823 81.752 214.875 81.5683 214.875C81.3994 214.875 81.2634 214.823 81.1606 214.72C81.0577 214.618 80.9989 214.478 80.9842 214.302C80.9549 213.457 80.7491 212.865 80.3671 212.527C79.985 212.189 79.3385 212.02 78.4274 212.02H75.3416C74.3791 212.02 73.7105 212.211 73.3358 212.593C72.9611 212.968 72.7738 213.637 72.7738 214.599C72.7738 215.562 72.9611 216.234 73.3358 216.616C73.7179 216.991 74.3938 217.178 75.3637 217.178H78.3833C79.7499 217.178 80.7491 217.498 81.381 218.137C82.0128 218.769 82.3288 219.764 82.3288 221.123C82.3288 222.483 82.0128 223.478 81.381 224.11C80.7491 224.735 79.7499 225.047 78.3833 225.047H75.2094ZM89.8363 225.069C88.4624 225.069 87.4558 224.749 86.8166 224.11C86.1774 223.471 85.8578 222.464 85.8578 221.09V218.6C85.8578 217.226 86.1737 216.223 86.8056 215.591C87.4448 214.952 88.455 214.64 89.8363 214.654H91.6437C92.7237 214.654 93.5466 214.838 94.1124 215.205C94.6854 215.565 95.0271 216.135 95.1373 216.913C95.1593 217.112 95.1152 217.262 95.005 217.365C94.9022 217.468 94.7552 217.52 94.5642 217.52C94.3879 217.52 94.2556 217.476 94.1675 217.387C94.0793 217.292 94.0132 217.156 93.9691 216.98C93.8883 216.553 93.6715 216.252 93.3189 216.076C92.9662 215.9 92.4078 215.811 91.6437 215.811H89.8363C88.7857 215.797 88.0509 215.995 87.6322 216.407C87.2207 216.811 87.015 217.542 87.015 218.6V221.09C87.015 222.141 87.2207 222.876 87.6322 223.295C88.0509 223.706 88.7857 223.912 89.8363 223.912H91.6437C92.4078 223.912 92.9662 223.824 93.3189 223.647C93.6715 223.471 93.8883 223.166 93.9691 222.732C94.0132 222.556 94.0793 222.424 94.1675 222.336C94.2556 222.24 94.3879 222.192 94.5642 222.192C94.7552 222.192 94.9022 222.248 95.005 222.358C95.1152 222.461 95.1593 222.608 95.1373 222.799C95.0271 223.577 94.6854 224.15 94.1124 224.518C93.5466 224.885 92.7237 225.069 91.6437 225.069H89.8363ZM102.428 225.069C101.054 225.069 100.048 224.753 99.4087 224.121C98.7695 223.482 98.4499 222.479 98.4499 221.112V218.622C98.4499 217.233 98.7695 216.223 99.4087 215.591C100.048 214.952 101.054 214.64 102.428 214.654H104.236C105.61 214.654 106.613 214.974 107.244 215.613C107.884 216.245 108.203 217.248 108.203 218.622V221.09C108.203 222.464 107.884 223.471 107.244 224.11C106.613 224.749 105.61 225.069 104.236 225.069H102.428ZM99.6071 221.112C99.6071 222.148 99.8128 222.876 100.224 223.295C100.643 223.706 101.378 223.912 102.428 223.912H104.236C105.286 223.912 106.017 223.706 106.429 223.295C106.84 222.876 107.046 222.141 107.046 221.09V218.622C107.046 217.571 106.84 216.84 106.429 216.429C106.017 216.017 105.286 215.811 104.236 215.811H102.428C101.723 215.804 101.165 215.889 100.753 216.065C100.342 216.241 100.048 216.535 99.8716 216.947C99.6952 217.358 99.6071 217.916 99.6071 218.622V221.112ZM112.612 225.069C112.223 225.069 112.028 224.874 112.028 224.485V215.227C112.028 214.845 112.223 214.654 112.612 214.654C112.994 214.654 113.185 214.845 113.185 215.227V216.925C113.568 216.19 114.119 215.628 114.839 215.238C115.566 214.849 116.426 214.654 117.417 214.654C117.807 214.654 118.002 214.845 118.002 215.227C118.002 215.617 117.807 215.811 117.417 215.811C116.11 215.811 115.096 216.109 114.376 216.704C113.656 217.292 113.259 218.133 113.185 219.228V224.485C113.185 224.874 112.994 225.069 112.612 225.069ZM120.921 229.477C120.532 229.477 120.337 229.282 120.337 228.893V215.227C120.337 214.845 120.532 214.654 120.921 214.654C121.303 214.654 121.494 214.845 121.494 215.227V216.208C121.825 215.694 122.299 215.308 122.916 215.051C123.533 214.786 124.323 214.654 125.285 214.654H126.123C127.497 214.654 128.5 214.974 129.131 215.613C129.771 216.245 130.09 217.248 130.09 218.622V221.09C130.09 222.464 129.771 223.471 129.131 224.11C128.5 224.749 127.497 225.069 126.123 225.069H121.494V228.893C121.494 229.282 121.303 229.477 120.921 229.477ZM121.494 223.912H126.123C127.173 223.912 127.904 223.706 128.316 223.295C128.727 222.876 128.933 222.141 128.933 221.09V218.622C128.933 217.571 128.727 216.84 128.316 216.429C127.904 216.017 127.173 215.811 126.123 215.811H125.285C124.11 215.811 123.206 215.995 122.574 216.362C121.95 216.73 121.59 217.296 121.494 218.06V223.912ZM134.25 212.648C133.743 212.648 133.489 212.388 133.489 211.866V211.37C133.489 210.863 133.743 210.61 134.25 210.61H134.746C135.238 210.61 135.484 210.863 135.484 211.37V211.866C135.484 212.388 135.238 212.648 134.746 212.648H134.25ZM134.503 225.069C134.114 225.069 133.919 224.874 133.919 224.485V215.227C133.919 214.845 134.114 214.654 134.503 214.654C134.885 214.654 135.076 214.845 135.076 215.227V224.485C135.076 224.874 134.885 225.069 134.503 225.069ZM147.943 214.654C148.333 214.654 148.527 214.845 148.527 215.227V224.485C148.527 224.874 148.333 225.069 147.943 225.069C147.561 225.069 147.37 224.874 147.37 224.485V223.438C146.672 224.525 145.408 225.069 143.579 225.069H142.962C141.588 225.069 140.581 224.749 139.942 224.11C139.31 223.471 138.994 222.464 138.994 221.09V215.227C138.994 214.845 139.185 214.654 139.567 214.654C139.957 214.654 140.152 214.845 140.152 215.227V221.09C140.152 222.141 140.357 222.876 140.769 223.295C141.187 223.706 141.919 223.912 142.962 223.912H143.579C144.718 223.912 145.614 223.728 146.268 223.361C146.922 222.993 147.289 222.431 147.37 221.674V215.227C147.37 214.845 147.561 214.654 147.943 214.654ZM154.927 225.047C154.023 225.047 153.333 224.856 152.855 224.474C152.378 224.084 152.091 223.493 151.996 222.699C151.973 222.508 152.014 222.361 152.117 222.259C152.22 222.148 152.37 222.093 152.569 222.093C152.752 222.093 152.888 222.141 152.976 222.237C153.072 222.332 153.134 222.475 153.164 222.666C153.23 223.122 153.395 223.441 153.66 223.625C153.932 223.801 154.354 223.89 154.927 223.89H158.542C159.225 223.89 159.695 223.761 159.953 223.504C160.21 223.247 160.338 222.777 160.338 222.093C160.338 221.403 160.21 220.929 159.953 220.672C159.695 220.414 159.225 220.286 158.542 220.286H154.971C154.016 220.286 153.303 220.058 152.833 219.603C152.37 219.14 152.139 218.431 152.139 217.476C152.139 216.498 152.37 215.782 152.833 215.327C153.296 214.864 154.009 214.632 154.971 214.632H158.432C160.092 214.632 161.014 215.367 161.198 216.836C161.227 217.027 161.187 217.178 161.077 217.288C160.974 217.391 160.827 217.442 160.636 217.442C160.452 217.442 160.313 217.395 160.217 217.299C160.129 217.204 160.066 217.064 160.03 216.88C159.978 216.469 159.828 216.186 159.578 216.032C159.335 215.87 158.953 215.789 158.432 215.789H154.971C154.332 215.789 153.891 215.907 153.649 216.142C153.414 216.377 153.296 216.822 153.296 217.476C153.296 218.1 153.417 218.534 153.66 218.776C153.902 219.011 154.339 219.129 154.971 219.129H158.542C159.556 219.129 160.302 219.371 160.779 219.856C161.257 220.334 161.495 221.079 161.495 222.093C161.495 223.1 161.257 223.846 160.779 224.33C160.302 224.808 159.556 225.047 158.542 225.047H154.927ZM48.849 254.695C47.475 254.695 46.4758 254.309 45.8513 253.537C45.2268 252.766 44.9145 251.546 44.9145 249.879V241.393C44.9145 239.637 45.2268 238.358 45.8513 237.557C46.4758 236.757 47.475 236.356 48.849 236.356C49.0032 236.356 49.1318 236.408 49.2347 236.51C49.3375 236.613 49.389 236.742 49.389 236.896C49.389 237.043 49.3375 237.172 49.2347 237.282C49.1318 237.385 49.0032 237.436 48.849 237.436C48.151 237.436 47.5926 237.561 47.1738 237.811C46.755 238.061 46.4538 238.476 46.2701 239.056C46.0864 239.637 45.9946 240.415 45.9946 241.393V249.879C45.9946 251.267 46.2076 252.237 46.6338 252.788C47.0673 253.339 47.8057 253.615 48.849 253.615C49.0032 253.615 49.1318 253.666 49.2347 253.769C49.3375 253.872 49.389 254 49.389 254.155C49.389 254.302 49.3375 254.427 49.2347 254.529C49.1318 254.64 49.0032 254.695 48.849 254.695ZM55.8714 251.08C55.6951 251.08 55.5518 251.028 55.4416 250.926C55.3387 250.823 55.2873 250.683 55.2873 250.507V238.009H50.6035C50.4272 238.009 50.2839 237.958 50.1737 237.855C50.0708 237.752 50.0194 237.613 50.0194 237.436C50.0194 237.26 50.0708 237.12 50.1737 237.017C50.2839 236.907 50.4272 236.852 50.6035 236.852H61.1393C61.3157 236.852 61.4553 236.907 61.5581 237.017C61.661 237.12 61.7124 237.26 61.7124 237.436C61.7124 237.613 61.661 237.752 61.5581 237.855C61.4553 237.958 61.3157 238.009 61.1393 238.009H56.4445V250.507C56.4445 250.676 56.3894 250.815 56.2792 250.926C56.1763 251.028 56.0404 251.08 55.8714 251.08ZM64.3321 251.069C63.9427 251.069 63.748 250.874 63.748 250.485V236.356C63.748 235.974 63.9427 235.783 64.3321 235.783C64.7141 235.783 64.9051 235.974 64.9051 236.356V242.285C65.6031 241.198 66.8668 240.654 68.6963 240.654H69.3134C70.6874 240.654 71.6903 240.974 72.3221 241.613C72.9613 242.245 73.2809 243.248 73.2809 244.622V250.485C73.2809 250.874 73.0899 251.069 72.7078 251.069C72.3184 251.069 72.1237 250.874 72.1237 250.485V244.622C72.1237 243.571 71.9143 242.84 71.4956 242.429C71.0841 242.017 70.3567 241.811 69.3134 241.811H68.6963C67.5575 241.811 66.6611 241.991 66.0072 242.351C65.3533 242.711 64.986 243.274 64.9051 244.038V250.485C64.9051 250.874 64.7141 251.069 64.3321 251.069ZM78.0606 246.308V247.112C78.0606 248.148 78.2664 248.876 78.6778 249.295C79.0966 249.706 79.8313 249.912 80.882 249.912H82.6894C83.6151 249.912 84.2874 249.794 84.7061 249.559C85.1323 249.317 85.3858 248.901 85.4666 248.314C85.496 248.13 85.5547 247.99 85.6429 247.895C85.7384 247.799 85.8817 247.752 86.0727 247.752C86.2637 247.752 86.407 247.807 86.5025 247.917C86.6054 248.02 86.6458 248.167 86.6238 248.358C86.5282 249.283 86.1572 249.967 85.5107 250.408C84.8641 250.848 83.9237 251.069 82.6894 251.069H80.882C79.508 251.069 78.5015 250.753 77.8623 250.121C77.2231 249.482 76.9035 248.479 76.9035 247.112V244.622C76.9035 243.233 77.2231 242.223 77.8623 241.591C78.5015 240.952 79.508 240.64 80.882 240.654H82.6894C84.0633 240.654 85.0662 240.974 85.698 241.613C86.3372 242.245 86.6568 243.248 86.6568 244.622V245.724C86.6568 246.113 86.4658 246.308 86.0837 246.308H78.0606ZM80.882 241.811C79.8313 241.797 79.0966 241.999 78.6778 242.418C78.2664 242.829 78.0606 243.564 78.0606 244.622V245.151H85.4996V244.622C85.4996 243.571 85.2939 242.84 84.8825 242.429C84.471 242.017 83.74 241.811 82.6894 241.811H80.882ZM99.6616 251.047C98.3465 251.047 97.3693 250.757 96.7301 250.176C96.0983 249.588 95.7603 248.666 95.7162 247.41C95.7089 247.234 95.7566 247.094 95.8595 246.991C95.9697 246.881 96.113 246.826 96.2893 246.826C96.4656 246.826 96.6052 246.877 96.7081 246.98C96.8109 247.083 96.8697 247.223 96.8844 247.399C96.9138 248.325 97.1342 248.971 97.5457 249.339C97.9571 249.706 98.6624 249.89 99.6616 249.89H102.836C103.879 249.89 104.603 249.688 105.007 249.283C105.418 248.872 105.624 248.152 105.624 247.123C105.624 246.08 105.418 245.356 105.007 244.952C104.603 244.541 103.879 244.335 102.836 244.335H99.8159C98.5228 244.335 97.575 244.034 96.9726 243.431C96.3701 242.829 96.0689 241.885 96.0689 240.599C96.0689 239.313 96.3664 238.369 96.9616 237.767C97.564 237.164 98.5081 236.863 99.7939 236.863H102.88C104.114 236.863 105.029 237.139 105.624 237.69C106.226 238.241 106.55 239.108 106.594 240.291C106.608 240.467 106.561 240.61 106.45 240.72C106.348 240.823 106.204 240.875 106.021 240.875C105.852 240.875 105.716 240.823 105.613 240.72C105.51 240.618 105.451 240.478 105.437 240.302C105.407 239.457 105.201 238.865 104.819 238.527C104.437 238.189 103.791 238.02 102.88 238.02H99.7939C98.8314 238.02 98.1628 238.211 97.7881 238.593C97.4134 238.968 97.2261 239.637 97.2261 240.599C97.2261 241.562 97.4134 242.234 97.7881 242.616C98.1702 242.991 98.8461 243.178 99.8159 243.178H102.836C104.202 243.178 105.201 243.498 105.833 244.137C106.465 244.769 106.781 245.764 106.781 247.123C106.781 248.483 106.465 249.478 105.833 250.11C105.201 250.735 104.202 251.047 102.836 251.047H99.6616ZM114.289 251.069C112.915 251.069 111.908 250.749 111.269 250.11C110.63 249.471 110.31 248.464 110.31 247.09V244.6C110.31 243.226 110.626 242.223 111.258 241.591C111.897 240.952 112.907 240.64 114.289 240.654H116.096C117.176 240.654 117.999 240.838 118.565 241.205C119.138 241.565 119.479 242.135 119.59 242.913C119.612 243.112 119.568 243.262 119.457 243.365C119.354 243.468 119.208 243.52 119.016 243.52C118.84 243.52 118.708 243.476 118.62 243.387C118.532 243.292 118.465 243.156 118.421 242.98C118.341 242.553 118.124 242.252 117.771 242.076C117.418 241.9 116.86 241.811 116.096 241.811H114.289C113.238 241.797 112.503 241.995 112.084 242.407C111.673 242.811 111.467 243.542 111.467 244.6V247.09C111.467 248.141 111.673 248.876 112.084 249.295C112.503 249.706 113.238 249.912 114.289 249.912H116.096C116.86 249.912 117.418 249.824 117.771 249.647C118.124 249.471 118.341 249.166 118.421 248.732C118.465 248.556 118.532 248.424 118.62 248.336C118.708 248.24 118.84 248.192 119.016 248.192C119.208 248.192 119.354 248.248 119.457 248.358C119.568 248.461 119.612 248.608 119.59 248.799C119.479 249.577 119.138 250.15 118.565 250.518C117.999 250.885 117.176 251.069 116.096 251.069H114.289ZM126.881 251.069C125.507 251.069 124.5 250.753 123.861 250.121C123.222 249.482 122.902 248.479 122.902 247.112V244.622C122.902 243.233 123.222 242.223 123.861 241.591C124.5 240.952 125.507 240.64 126.881 240.654H128.688C130.062 240.654 131.065 240.974 131.697 241.613C132.336 242.245 132.656 243.248 132.656 244.622V247.09C132.656 248.464 132.336 249.471 131.697 250.11C131.065 250.749 130.062 251.069 128.688 251.069H126.881ZM124.059 247.112C124.059 248.148 124.265 248.876 124.676 249.295C125.095 249.706 125.83 249.912 126.881 249.912H128.688C129.739 249.912 130.47 249.706 130.881 249.295C131.293 248.876 131.498 248.141 131.498 247.09V244.622C131.498 243.571 131.293 242.84 130.881 242.429C130.47 242.017 129.739 241.811 128.688 241.811H126.881C126.175 241.804 125.617 241.889 125.205 242.065C124.794 242.241 124.5 242.535 124.324 242.947C124.147 243.358 124.059 243.916 124.059 244.622V247.112ZM137.065 251.069C136.675 251.069 136.481 250.874 136.481 250.485V241.227C136.481 240.845 136.675 240.654 137.065 240.654C137.447 240.654 137.638 240.845 137.638 241.227V242.925C138.02 242.19 138.571 241.628 139.291 241.238C140.018 240.849 140.878 240.654 141.87 240.654C142.259 240.654 142.454 240.845 142.454 241.227C142.454 241.617 142.259 241.811 141.87 241.811C140.562 241.811 139.548 242.109 138.828 242.704C138.108 243.292 137.711 244.133 137.638 245.228V250.485C137.638 250.874 137.447 251.069 137.065 251.069ZM145.373 255.477C144.984 255.477 144.789 255.282 144.789 254.893V241.227C144.789 240.845 144.984 240.654 145.373 240.654C145.755 240.654 145.946 240.845 145.946 241.227V242.208C146.277 241.694 146.751 241.308 147.368 241.051C147.985 240.786 148.775 240.654 149.737 240.654H150.575C151.949 240.654 152.952 240.974 153.584 241.613C154.223 242.245 154.543 243.248 154.543 244.622V247.09C154.543 248.464 154.223 249.471 153.584 250.11C152.952 250.749 151.949 251.069 150.575 251.069H145.946V254.893C145.946 255.282 145.755 255.477 145.373 255.477ZM145.946 249.912H150.575C151.626 249.912 152.357 249.706 152.768 249.295C153.18 248.876 153.385 248.141 153.385 247.09V244.622C153.385 243.571 153.18 242.84 152.768 242.429C152.357 242.017 151.626 241.811 150.575 241.811H149.737C148.562 241.811 147.658 241.995 147.026 242.362C146.402 242.73 146.042 243.296 145.946 244.06V249.912ZM158.702 238.648C158.195 238.648 157.942 238.388 157.942 237.866V237.37C157.942 236.863 158.195 236.61 158.702 236.61H159.198C159.69 236.61 159.936 236.863 159.936 237.37V237.866C159.936 238.388 159.69 238.648 159.198 238.648H158.702ZM158.955 251.069C158.566 251.069 158.371 250.874 158.371 250.485V241.227C158.371 240.845 158.566 240.654 158.955 240.654C159.338 240.654 159.529 240.845 159.529 241.227V250.485C159.529 250.874 159.338 251.069 158.955 251.069ZM167.326 251.069C165.952 251.069 164.945 250.753 164.306 250.121C163.667 249.482 163.347 248.479 163.347 247.112V244.622C163.347 243.233 163.667 242.223 164.306 241.591C164.945 240.952 165.952 240.64 167.326 240.654H169.133C170.507 240.654 171.51 240.974 172.142 241.613C172.781 242.245 173.101 243.248 173.101 244.622V247.09C173.101 248.464 172.781 249.471 172.142 250.11C171.51 250.749 170.507 251.069 169.133 251.069H167.326ZM164.505 247.112C164.505 248.148 164.71 248.876 165.122 249.295C165.541 249.706 166.275 249.912 167.326 249.912H169.133C170.184 249.912 170.915 249.706 171.326 249.295C171.738 248.876 171.944 248.141 171.944 247.09V244.622C171.944 243.571 171.738 242.84 171.326 242.429C170.915 242.017 170.184 241.811 169.133 241.811H167.326C166.621 241.804 166.062 241.889 165.651 242.065C165.239 242.241 164.945 242.535 164.769 242.947C164.593 243.358 164.505 243.916 164.505 244.622V247.112ZM177.51 251.069C177.121 251.069 176.926 250.874 176.926 250.485V241.227C176.926 240.845 177.121 240.654 177.51 240.654C177.892 240.654 178.083 240.845 178.083 241.227V242.285C178.781 241.198 180.045 240.654 181.874 240.654H182.491C183.865 240.654 184.868 240.974 185.5 241.613C186.139 242.245 186.459 243.248 186.459 244.622V250.485C186.459 250.874 186.268 251.069 185.886 251.069C185.496 251.069 185.302 250.874 185.302 250.485V244.622C185.302 243.571 185.092 242.84 184.673 242.429C184.262 242.017 183.535 241.811 182.491 241.811H181.874C180.735 241.811 179.839 241.991 179.185 242.351C178.531 242.711 178.164 243.274 178.083 244.038V250.485C178.083 250.874 177.892 251.069 177.51 251.069ZM189.078 254.695C188.932 254.695 188.803 254.64 188.693 254.529C188.59 254.427 188.538 254.302 188.538 254.155C188.538 254 188.59 253.872 188.693 253.769C188.803 253.666 188.932 253.615 189.078 253.615C190.129 253.615 190.867 253.339 191.294 252.788C191.72 252.237 191.933 251.267 191.933 249.879V241.393C191.933 240.415 191.841 239.637 191.657 239.056C191.474 238.476 191.172 238.061 190.754 237.811C190.335 237.561 189.776 237.436 189.078 237.436C188.932 237.436 188.803 237.385 188.693 237.282C188.59 237.172 188.538 237.043 188.538 236.896C188.538 236.742 188.59 236.613 188.693 236.51C188.803 236.408 188.932 236.356 189.078 236.356C190.46 236.356 191.459 236.757 192.076 237.557C192.701 238.358 193.013 239.637 193.013 241.393V249.879C193.013 251.546 192.701 252.766 192.076 253.537C191.459 254.309 190.46 254.695 189.078 254.695Z" fill="white"/>
<path d="M34.2187 142.77L23.0095 153.98L16.52 166.369L34.2187 187.017H70.796L93.8043 177.578V142.77L99.114 117.992L123.302 75.5153L133.331 62.5363M133.331 62.5363L173.449 17.1096M133.331 62.5363L182.888 40.1179M133.331 62.5363L182.888 67.2559" stroke="#AA7E41" stroke-width="0.3"/>
<g filter="url(#filter0_f_99_7328)">
<circle cx="33.0386" cy="142.77" r="5.30961" fill="#FAFFB3"/>
</g>
<circle cx="33.0388" cy="142.77" r="3.53974" fill="#D9D9D9"/>
<g filter="url(#filter1_f_99_7328)">
<circle cx="21.8298" cy="156.34" r="3.53974" fill="#FAFFB3"/>
</g>
<circle cx="21.83" cy="156.34" r="2.35983" fill="#D9D9D9"/>
<g filter="url(#filter2_f_99_7328)">
<circle cx="15.9299" cy="166.959" r="3.53974" fill="#FAFFB3"/>
</g>
<circle cx="15.9297" cy="166.959" r="2.35983" fill="#D9D9D9"/>
<g filter="url(#filter3_f_99_7328)">
<circle cx="33.0389" cy="185.247" r="4.1297" fill="#FAFFB3"/>
</g>
<circle cx="33.0393" cy="185.248" r="2.75313" fill="#D9D9D9"/>
<g filter="url(#filter4_f_99_7328)">
<circle cx="69.616" cy="186.427" r="4.1297" fill="#FAFFB3"/>
</g>
<circle cx="69.6164" cy="186.427" r="2.75313" fill="#D9D9D9"/>
<g filter="url(#filter5_f_99_7328)">
<circle cx="93.2142" cy="176.988" r="4.1297" fill="#FAFFB3"/>
</g>
<circle cx="93.2146" cy="176.988" r="2.75313" fill="#D9D9D9"/>
<g filter="url(#filter6_f_99_7328)">
<circle cx="99.1141" cy="117.992" r="4.1297" fill="#FAFFB3"/>
</g>
<circle cx="99.1145" cy="117.992" r="2.75313" fill="#D9D9D9"/>
<g filter="url(#filter7_f_99_7328)">
<circle cx="123.892" cy="75.5152" r="4.1297" fill="#FAFFB3"/>
</g>
<circle cx="123.892" cy="75.5153" r="2.75313" fill="#D9D9D9"/>
<g filter="url(#filter8_f_99_7328)">
<circle cx="173.448" cy="16.5198" r="4.1297" fill="#FAFFB3"/>
</g>
<circle cx="173.448" cy="16.52" r="2.75313" fill="#D9D9D9"/>
<g filter="url(#filter9_f_99_7328)">
<circle cx="182.888" cy="38.938" r="4.1297" fill="#FAFFB3"/>
</g>
<circle cx="182.887" cy="38.9382" r="2.75313" fill="#D9D9D9"/>
<g filter="url(#filter10_f_99_7328)">
<circle cx="182.888" cy="67.2559" r="4.1297" fill="#FAFFB3"/>
</g>
<circle cx="182.887" cy="67.2561" r="2.75313" fill="#D9D9D9"/>
<g filter="url(#filter11_f_99_7328)">
<circle cx="133.331" cy="62.5362" r="5.30961" fill="#FAFFB3"/>
</g>
<circle cx="133.332" cy="62.5368" r="3.53974" fill="#D9D9D9"/>
<g filter="url(#filter12_f_99_7328)">
<circle cx="93.8044" cy="145.72" r="3.53974" fill="#FAFFB3"/>
</g>
<circle cx="93.8051" cy="145.721" r="2.35983" fill="#D9D9D9"/>
<defs>
<filter id="filter0_f_99_7328" x="15.3389" y="125.071" width="35.3993" height="35.3993" filterUnits="userSpaceOnUse" color-interpolation-filters="sRGB">
<feFlood flood-opacity="0" result="BackgroundImageFix"/>
<feBlend mode="normal" in="SourceGraphic" in2="BackgroundImageFix" result="shape"/>
<feGaussianBlur stdDeviation="6.19505" result="effect1_foregroundBlur_99_7328"/>
</filter>
<filter id="filter1_f_99_7328" x="5.89994" y="140.41" width="31.8598" height="31.8598" filterUnits="userSpaceOnUse" color-interpolation-filters="sRGB">
<feFlood flood-opacity="0" result="BackgroundImageFix"/>
<feBlend mode="normal" in="SourceGraphic" in2="BackgroundImageFix" result="shape"/>
<feGaussianBlur stdDeviation="6.19505" result="effect1_foregroundBlur_99_7328"/>
</filter>
<filter id="filter2_f_99_7328" x="3.52859e-05" y="151.029" width="31.8598" height="31.8598" filterUnits="userSpaceOnUse" color-interpolation-filters="sRGB">
<feFlood flood-opacity="0" result="BackgroundImageFix"/>
<feBlend mode="normal" in="SourceGraphic" in2="BackgroundImageFix" result="shape"/>
<feGaussianBlur stdDeviation="6.19505" result="effect1_foregroundBlur_99_7328"/>
</filter>
<filter id="filter3_f_99_7328" x="16.5191" y="168.728" width="33.0395" height="33.0395" filterUnits="userSpaceOnUse" color-interpolation-filters="sRGB">
<feFlood flood-opacity="0" result="BackgroundImageFix"/>
<feBlend mode="normal" in="SourceGraphic" in2="BackgroundImageFix" result="shape"/>
<feGaussianBlur stdDeviation="6.19505" result="effect1_foregroundBlur_99_7328"/>
</filter>
<filter id="filter4_f_99_7328" x="53.0962" y="169.908" width="33.0395" height="33.0395" filterUnits="userSpaceOnUse" color-interpolation-filters="sRGB">
<feFlood flood-opacity="0" result="BackgroundImageFix"/>
<feBlend mode="normal" in="SourceGraphic" in2="BackgroundImageFix" result="shape"/>
<feGaussianBlur stdDeviation="6.19505" result="effect1_foregroundBlur_99_7328"/>
</filter>
<filter id="filter5_f_99_7328" x="76.6944" y="160.468" width="33.0395" height="33.0395" filterUnits="userSpaceOnUse" color-interpolation-filters="sRGB">
<feFlood flood-opacity="0" result="BackgroundImageFix"/>
<feBlend mode="normal" in="SourceGraphic" in2="BackgroundImageFix" result="shape"/>
<feGaussianBlur stdDeviation="6.19505" result="effect1_foregroundBlur_99_7328"/>
</filter>
<filter id="filter6_f_99_7328" x="82.5943" y="101.472" width="33.0395" height="33.0395" filterUnits="userSpaceOnUse" color-interpolation-filters="sRGB">
<feFlood flood-opacity="0" result="BackgroundImageFix"/>
<feBlend mode="normal" in="SourceGraphic" in2="BackgroundImageFix" result="shape"/>
<feGaussianBlur stdDeviation="6.19505" result="effect1_foregroundBlur_99_7328"/>
</filter>
<filter id="filter7_f_99_7328" x="107.372" y="58.9954" width="33.0395" height="33.0395" filterUnits="userSpaceOnUse" color-interpolation-filters="sRGB">
<feFlood flood-opacity="0" result="BackgroundImageFix"/>
<feBlend mode="normal" in="SourceGraphic" in2="BackgroundImageFix" result="shape"/>
<feGaussianBlur stdDeviation="6.19505" result="effect1_foregroundBlur_99_7328"/>
</filter>
<filter id="filter8_f_99_7328" x="156.928" y="3.52859e-05" width="33.0395" height="33.0395" filterUnits="userSpaceOnUse" color-interpolation-filters="sRGB">
<feFlood flood-opacity="0" result="BackgroundImageFix"/>
<feBlend mode="normal" in="SourceGraphic" in2="BackgroundImageFix" result="shape"/>
<feGaussianBlur stdDeviation="6.19505" result="effect1_foregroundBlur_99_7328"/>
</filter>
<filter id="filter9_f_99_7328" x="166.368" y="22.4182" width="33.0395" height="33.0395" filterUnits="userSpaceOnUse" color-interpolation-filters="sRGB">
<feFlood flood-opacity="0" result="BackgroundImageFix"/>
<feBlend mode="normal" in="SourceGraphic" in2="BackgroundImageFix" result="shape"/>
<feGaussianBlur stdDeviation="6.19505" result="effect1_foregroundBlur_99_7328"/>
</filter>
<filter id="filter10_f_99_7328" x="166.368" y="50.7361" width="33.0395" height="33.0395" filterUnits="userSpaceOnUse" color-interpolation-filters="sRGB">
<feFlood flood-opacity="0" result="BackgroundImageFix"/>
<feBlend mode="normal" in="SourceGraphic" in2="BackgroundImageFix" result="shape"/>
<feGaussianBlur stdDeviation="6.19505" result="effect1_foregroundBlur_99_7328"/>
</filter>
<filter id="filter11_f_99_7328" x="115.631" y="44.8365" width="35.3993" height="35.3993" filterUnits="userSpaceOnUse" color-interpolation-filters="sRGB">
<feFlood flood-opacity="0" result="BackgroundImageFix"/>
<feBlend mode="normal" in="SourceGraphic" in2="BackgroundImageFix" result="shape"/>
<feGaussianBlur stdDeviation="6.19505" result="effect1_foregroundBlur_99_7328"/>
</filter>
<filter id="filter12_f_99_7328" x="77.8745" y="129.79" width="31.8598" height="31.8598" filterUnits="userSpaceOnUse" color-interpolation-filters="sRGB">
<feFlood flood-opacity="0" result="BackgroundImageFix"/>
<feBlend mode="normal" in="SourceGraphic" in2="BackgroundImageFix" result="shape"/>
<feGaussianBlur stdDeviation="6.19505" result="effect1_foregroundBlur_99_7328"/>
</filter>
</defs>
</svg>
