<svg width="219" height="243" viewBox="0 0 219 243" fill="none" xmlns="http://www.w3.org/2000/svg">
<path d="M83.6117 208.149C83.4538 208.149 83.3256 208.103 83.2269 208.011C83.1348 207.919 83.0888 207.794 83.0888 207.636V196.447H78.8951C78.7372 196.447 78.6089 196.4 78.5103 196.308C78.4182 196.216 78.3721 196.091 78.3721 195.933C78.3721 195.776 78.4182 195.651 78.5103 195.558C78.6089 195.46 78.7372 195.41 78.8951 195.41H88.3284C88.4862 195.41 88.6112 195.46 88.7033 195.558C88.7954 195.651 88.8415 195.776 88.8415 195.933C88.8415 196.091 88.7954 196.216 88.7033 196.308C88.6112 196.4 88.4862 196.447 88.3284 196.447H84.1248V207.636C84.1248 207.787 84.0755 207.912 83.9768 208.011C83.8847 208.103 83.763 208.149 83.6117 208.149ZM91.6444 208.139C90.6182 208.139 89.865 207.903 89.3848 207.429C88.9111 206.949 88.6743 206.196 88.6743 205.169C88.6743 204.143 88.9144 203.39 89.3947 202.91C89.8749 202.429 90.6248 202.189 91.6444 202.189H96.1341C96.1209 201.321 95.9236 200.716 95.5421 200.374C95.1671 200.025 94.5257 199.851 93.6179 199.851H92.4733C91.6378 199.851 91.0261 199.94 90.6379 200.117C90.2498 200.295 90.0097 200.597 89.9176 201.025C89.8716 201.189 89.8091 201.311 89.7301 201.39C89.6578 201.462 89.5394 201.499 89.3749 201.499C89.2039 201.499 89.069 201.453 88.9704 201.36C88.8783 201.262 88.8454 201.13 88.8717 200.966C88.9572 200.216 89.296 199.67 89.888 199.328C90.4866 198.986 91.3484 198.815 92.4733 198.815H93.6179C94.848 198.815 95.746 199.101 96.3117 199.673C96.884 200.239 97.1702 201.137 97.1702 202.367V207.616C97.1702 207.965 96.9991 208.139 96.6571 208.139C96.3084 208.139 96.1341 207.965 96.1341 207.616V206.64C95.5026 207.639 94.3744 208.139 92.7496 208.139H91.6444ZM91.6444 207.103H92.7496C93.3877 207.103 93.9468 207.034 94.427 206.896C94.9138 206.751 95.3052 206.521 95.6013 206.205C95.8973 205.89 96.0749 205.469 96.1341 204.942V203.225H91.6444C90.9142 203.225 90.4077 203.367 90.1248 203.65C89.8486 203.926 89.7104 204.433 89.7104 205.169C89.7104 205.899 89.8486 206.406 90.1248 206.689C90.4077 206.965 90.9142 207.103 91.6444 207.103ZM108.52 198.815C108.869 198.815 109.043 198.986 109.043 199.328V207.616C109.043 207.965 108.869 208.139 108.52 208.139C108.178 208.139 108.007 207.965 108.007 207.616V206.679C107.382 207.653 106.251 208.139 104.613 208.139H104.06C102.83 208.139 101.929 207.853 101.357 207.281C100.791 206.709 100.508 205.807 100.508 204.577V199.328C100.508 198.986 100.679 198.815 101.021 198.815C101.37 198.815 101.544 198.986 101.544 199.328V204.577C101.544 205.518 101.728 206.176 102.097 206.551C102.472 206.919 103.126 207.103 104.06 207.103H104.613C105.632 207.103 106.435 206.939 107.02 206.61C107.606 206.281 107.935 205.778 108.007 205.1V199.328C108.007 198.986 108.178 198.815 108.52 198.815ZM113.254 208.139C112.905 208.139 112.731 207.965 112.731 207.616V199.328C112.731 198.986 112.905 198.815 113.254 198.815C113.596 198.815 113.767 198.986 113.767 199.328V200.847C114.109 200.19 114.602 199.686 115.247 199.338C115.898 198.989 116.668 198.815 117.556 198.815C117.905 198.815 118.079 198.986 118.079 199.328C118.079 199.676 117.905 199.851 117.556 199.851C116.385 199.851 115.477 200.117 114.833 200.65C114.188 201.176 113.833 201.93 113.767 202.91V207.616C113.767 207.965 113.596 208.139 113.254 208.139ZM128.005 198.815C128.353 198.815 128.528 198.986 128.528 199.328V207.616C128.528 207.965 128.353 208.139 128.005 208.139C127.663 208.139 127.492 207.965 127.492 207.616V206.679C126.867 207.653 125.735 208.139 124.097 208.139H123.545C122.314 208.139 121.413 207.853 120.841 207.281C120.275 206.709 119.992 205.807 119.992 204.577V199.328C119.992 198.986 120.163 198.815 120.505 198.815C120.854 198.815 121.028 198.986 121.028 199.328V204.577C121.028 205.518 121.213 206.176 121.581 206.551C121.956 206.919 122.61 207.103 123.545 207.103H124.097C125.117 207.103 125.919 206.939 126.505 206.61C127.09 206.281 127.419 205.778 127.492 205.1V199.328C127.492 198.986 127.663 198.815 128.005 198.815ZM134.258 208.12C133.449 208.12 132.83 207.949 132.403 207.607C131.975 207.258 131.718 206.728 131.633 206.018C131.613 205.847 131.649 205.715 131.741 205.623C131.834 205.525 131.968 205.475 132.146 205.475C132.31 205.475 132.432 205.518 132.511 205.603C132.597 205.689 132.653 205.817 132.679 205.988C132.738 206.396 132.886 206.682 133.123 206.847C133.366 207.005 133.745 207.084 134.258 207.084H137.494C138.106 207.084 138.527 206.968 138.757 206.738C138.987 206.508 139.103 206.087 139.103 205.475C139.103 204.857 138.987 204.433 138.757 204.202C138.527 203.972 138.106 203.857 137.494 203.857H134.297C133.442 203.857 132.804 203.653 132.383 203.245C131.968 202.831 131.761 202.196 131.761 201.341C131.761 200.466 131.968 199.824 132.383 199.417C132.797 199.002 133.435 198.795 134.297 198.795H137.396C138.882 198.795 139.708 199.453 139.872 200.768C139.899 200.939 139.862 201.074 139.764 201.173C139.672 201.265 139.54 201.311 139.369 201.311C139.205 201.311 139.08 201.268 138.994 201.183C138.915 201.097 138.859 200.972 138.826 200.808C138.78 200.44 138.645 200.186 138.422 200.048C138.205 199.903 137.863 199.831 137.396 199.831H134.297C133.725 199.831 133.33 199.936 133.113 200.147C132.903 200.357 132.797 200.755 132.797 201.341C132.797 201.9 132.906 202.288 133.123 202.505C133.34 202.716 133.731 202.821 134.297 202.821H137.494C138.402 202.821 139.07 203.038 139.497 203.472C139.925 203.9 140.139 204.567 140.139 205.475C140.139 206.376 139.925 207.044 139.497 207.478C139.07 207.906 138.402 208.12 137.494 208.12H134.258ZM73.7588 234.386C72.5287 234.386 71.634 234.04 71.0749 233.35C70.5157 232.659 70.2361 231.567 70.2361 230.074V222.476C70.2361 220.904 70.5157 219.759 71.0749 219.042C71.634 218.325 72.5287 217.966 73.7588 217.966C73.8969 217.966 74.0121 218.012 74.1042 218.105C74.1962 218.197 74.2423 218.312 74.2423 218.45C74.2423 218.581 74.1962 218.697 74.1042 218.795C74.0121 218.887 73.8969 218.933 73.7588 218.933C73.1339 218.933 72.6339 219.045 72.2589 219.269C71.884 219.493 71.6143 219.864 71.4498 220.384C71.2854 220.904 71.2031 221.601 71.2031 222.476V230.074C71.2031 231.317 71.3939 232.185 71.7754 232.679C72.1636 233.172 72.8247 233.419 73.7588 233.419C73.8969 233.419 74.0121 233.465 74.1042 233.557C74.1962 233.649 74.2423 233.764 74.2423 233.902C74.2423 234.034 74.1962 234.146 74.1042 234.238C74.0121 234.336 73.8969 234.386 73.7588 234.386ZM80.0463 231.149C79.8885 231.149 79.7602 231.103 79.6615 231.011C79.5694 230.919 79.5234 230.794 79.5234 230.636V219.447H75.3297C75.1718 219.447 75.0436 219.4 74.9449 219.308C74.8528 219.216 74.8067 219.091 74.8067 218.933C74.8067 218.776 74.8528 218.651 74.9449 218.558C75.0436 218.46 75.1718 218.41 75.3297 218.41H84.763C84.9209 218.41 85.0458 218.46 85.1379 218.558C85.23 218.651 85.2761 218.776 85.2761 218.933C85.2761 219.091 85.23 219.216 85.1379 219.308C85.0458 219.4 84.9209 219.447 84.763 219.447H80.5595V230.636C80.5595 230.787 80.5101 230.912 80.4114 231.011C80.3193 231.103 80.1976 231.149 80.0463 231.149ZM87.6216 231.139C87.273 231.139 87.0986 230.965 87.0986 230.616V217.966C87.0986 217.624 87.273 217.453 87.6216 217.453C87.9637 217.453 88.1347 217.624 88.1347 217.966V223.275C88.7596 222.301 89.8911 221.815 91.5291 221.815H92.0817C93.3118 221.815 94.2098 222.101 94.7755 222.673C95.3478 223.239 95.6339 224.137 95.6339 225.367V230.616C95.6339 230.965 95.4629 231.139 95.1208 231.139C94.7722 231.139 94.5979 230.965 94.5979 230.616V225.367C94.5979 224.426 94.4104 223.772 94.0354 223.403C93.667 223.035 93.0158 222.851 92.0817 222.851H91.5291C90.5095 222.851 89.7069 223.012 89.1214 223.334C88.536 223.657 88.2071 224.16 88.1347 224.844V230.616C88.1347 230.965 87.9637 231.139 87.6216 231.139ZM99.9135 226.877V227.597C99.9135 228.525 100.098 229.176 100.466 229.551C100.841 229.919 101.499 230.103 102.44 230.103H104.058C104.887 230.103 105.489 229.998 105.864 229.788C106.245 229.57 106.472 229.199 106.544 228.673C106.571 228.508 106.623 228.383 106.702 228.298C106.788 228.212 106.916 228.169 107.087 228.169C107.258 228.169 107.386 228.219 107.472 228.317C107.564 228.409 107.6 228.541 107.58 228.712C107.495 229.541 107.163 230.153 106.584 230.547C106.005 230.942 105.163 231.139 104.058 231.139H102.44C101.209 231.139 100.308 230.857 99.7359 230.291C99.1636 229.718 98.8774 228.821 98.8774 227.597V225.367C98.8774 224.124 99.1636 223.219 99.7359 222.653C100.308 222.081 101.209 221.802 102.44 221.815H104.058C105.288 221.815 106.186 222.101 106.752 222.673C107.324 223.239 107.61 224.137 107.61 225.367V226.354C107.61 226.702 107.439 226.877 107.097 226.877H99.9135ZM102.44 222.851C101.499 222.838 100.841 223.019 100.466 223.393C100.098 223.762 99.9135 224.42 99.9135 225.367V225.841H106.574V225.367C106.574 224.426 106.39 223.772 106.021 223.403C105.653 223.035 104.998 222.851 104.058 222.851H102.44ZM116.511 231.139C116.162 231.139 115.988 230.965 115.988 230.616V218.943C115.988 218.595 116.162 218.42 116.511 218.42H121.662C122.629 218.42 123.359 218.667 123.852 219.16C124.352 219.647 124.602 220.364 124.602 221.311V221.844C124.602 222.877 124.27 223.607 123.605 224.035C124.757 224.508 125.332 225.535 125.332 227.113V227.735C125.332 228.853 125.043 229.702 124.464 230.281C123.892 230.853 123.043 231.139 121.918 231.139H116.511ZM117.024 230.103H121.918C122.754 230.103 123.359 229.916 123.734 229.541C124.109 229.166 124.296 228.564 124.296 227.735V227.113C124.296 226.285 124.109 225.686 123.734 225.318C123.365 224.949 122.76 224.765 121.918 224.765H117.024V230.103ZM117.024 223.729H121.81C122.408 223.729 122.849 223.578 123.132 223.275C123.421 222.966 123.566 222.489 123.566 221.844V221.311C123.566 220.654 123.415 220.18 123.112 219.891C122.816 219.601 122.333 219.456 121.662 219.456H117.024V223.729ZM136.06 221.815C136.409 221.815 136.583 221.986 136.583 222.328V230.616C136.583 230.965 136.409 231.139 136.06 231.139C135.718 231.139 135.547 230.965 135.547 230.616V229.679C134.922 230.653 133.791 231.139 132.153 231.139H131.6C130.37 231.139 129.469 230.853 128.897 230.281C128.331 229.709 128.048 228.807 128.048 227.577V222.328C128.048 221.986 128.219 221.815 128.561 221.815C128.91 221.815 129.084 221.986 129.084 222.328V227.577C129.084 228.518 129.268 229.176 129.637 229.551C130.012 229.919 130.666 230.103 131.6 230.103H132.153C133.173 230.103 133.975 229.939 134.561 229.61C135.146 229.281 135.475 228.778 135.547 228.1V222.328C135.547 221.986 135.718 221.815 136.06 221.815ZM142.984 231.139C142.05 231.139 141.363 230.922 140.922 230.488C140.488 230.054 140.271 229.373 140.271 228.446V217.966C140.271 217.624 140.445 217.453 140.794 217.453C141.136 217.453 141.307 217.624 141.307 217.966V228.446C141.307 229.084 141.425 229.521 141.662 229.758C141.899 229.988 142.337 230.103 142.975 230.103C143.33 230.103 143.507 230.274 143.507 230.616C143.514 230.965 143.34 231.139 142.984 231.139ZM148.728 231.139C147.794 231.139 147.106 230.922 146.665 230.488C146.231 230.054 146.014 229.373 146.014 228.446V217.966C146.014 217.624 146.188 217.453 146.537 217.453C146.879 217.453 147.05 217.624 147.05 217.966V228.446C147.05 229.084 147.169 229.521 147.405 229.758C147.642 229.988 148.08 230.103 148.718 230.103C149.073 230.103 149.251 230.274 149.251 230.616C149.257 230.965 149.083 231.139 148.728 231.139ZM150.593 234.386C150.461 234.386 150.346 234.336 150.248 234.238C150.155 234.146 150.109 234.034 150.109 233.902C150.109 233.764 150.155 233.649 150.248 233.557C150.346 233.465 150.461 233.419 150.593 233.419C151.534 233.419 152.195 233.172 152.576 232.679C152.958 232.185 153.149 231.317 153.149 230.074V222.476C153.149 221.601 153.066 220.904 152.902 220.384C152.737 219.864 152.468 219.493 152.093 219.269C151.718 219.045 151.218 218.933 150.593 218.933C150.461 218.933 150.346 218.887 150.248 218.795C150.155 218.697 150.109 218.581 150.109 218.45C150.109 218.312 150.155 218.197 150.248 218.105C150.346 218.012 150.461 217.966 150.593 217.966C151.83 217.966 152.724 218.325 153.277 219.042C153.836 219.759 154.116 220.904 154.116 222.476V230.074C154.116 231.567 153.836 232.659 153.277 233.35C152.724 234.04 151.83 234.386 150.593 234.386Z" fill="white"/>
<path d="M53.4923 13.4858L107.883 60.6843L123.166 93.948L128.56 123.616M128.56 123.616L147.44 153.283L192.391 175.759L204.977 199.133M128.56 123.616L110.13 117.935L93.4986 108.332L14.8345 55.7397" stroke="#AA7E41" stroke-width="0.3"/>
<g filter="url(#filter0_f_99_7420)">
<circle cx="14.835" cy="57.0889" r="5.3946" fill="#FAFFB3"/>
</g>
<circle cx="14.8353" cy="57.0887" r="3.59607" fill="#D9D9D9"/>
<g filter="url(#filter1_f_99_7420)">
<circle cx="53.4922" cy="13.9355" r="4.49509" fill="#FAFFB3"/>
</g>
<circle cx="53.4921" cy="13.9354" r="2.99645" fill="#D9D9D9"/>
<g filter="url(#filter2_f_99_7420)">
<circle cx="107.434" cy="60.6845" r="4.49509" fill="#FAFFB3"/>
</g>
<circle cx="107.433" cy="60.6844" r="2.99645" fill="#D9D9D9"/>
<g filter="url(#filter3_f_99_7420)">
<circle cx="122.717" cy="93.049" r="4.49509" fill="#FAFFB3"/>
</g>
<circle cx="122.717" cy="93.0489" r="2.99645" fill="#D9D9D9"/>
<g filter="url(#filter4_f_99_7420)">
<circle cx="93.0493" cy="109.231" r="4.49509" fill="#FAFFB3"/>
</g>
<circle cx="93.0492" cy="109.231" r="2.99645" fill="#D9D9D9"/>
<g filter="url(#filter5_f_99_7420)">
<circle cx="127.212" cy="123.616" r="4.49509" fill="#FAFFB3"/>
</g>
<circle cx="127.212" cy="123.616" r="2.99645" fill="#D9D9D9"/>
<g filter="url(#filter6_f_99_7420)">
<circle cx="147.889" cy="153.283" r="4.49509" fill="#FAFFB3"/>
</g>
<circle cx="147.889" cy="153.283" r="2.99645" fill="#D9D9D9"/>
<g filter="url(#filter7_f_99_7420)">
<circle cx="192.84" cy="176.658" r="4.49509" fill="#FAFFB3"/>
</g>
<circle cx="192.84" cy="176.658" r="2.99645" fill="#D9D9D9"/>
<g filter="url(#filter8_f_99_7420)">
<circle cx="204.527" cy="198.234" r="4.49509" fill="#FAFFB3"/>
</g>
<circle cx="204.527" cy="198.234" r="2.99645" fill="#D9D9D9"/>
<g filter="url(#filter9_f_99_7420)">
<circle cx="110.13" cy="118.222" r="3.59607" fill="#FAFFB3"/>
</g>
<circle cx="110.131" cy="118.221" r="2.39716" fill="#D9D9D9"/>
<defs>
<filter id="filter0_f_99_7420" x="-3.24249e-05" y="42.2539" width="29.67" height="29.6702" filterUnits="userSpaceOnUse" color-interpolation-filters="sRGB">
<feFlood flood-opacity="0" result="BackgroundImageFix"/>
<feBlend mode="normal" in="SourceGraphic" in2="BackgroundImageFix" result="shape"/>
<feGaussianBlur stdDeviation="4.72023" result="effect1_foregroundBlur_99_7420"/>
</filter>
<filter id="filter1_f_99_7420" x="39.5566" y="-3.24249e-05" width="27.8712" height="27.8712" filterUnits="userSpaceOnUse" color-interpolation-filters="sRGB">
<feFlood flood-opacity="0" result="BackgroundImageFix"/>
<feBlend mode="normal" in="SourceGraphic" in2="BackgroundImageFix" result="shape"/>
<feGaussianBlur stdDeviation="4.72023" result="effect1_foregroundBlur_99_7420"/>
</filter>
<filter id="filter2_f_99_7420" x="93.498" y="46.749" width="27.8712" height="27.8712" filterUnits="userSpaceOnUse" color-interpolation-filters="sRGB">
<feFlood flood-opacity="0" result="BackgroundImageFix"/>
<feBlend mode="normal" in="SourceGraphic" in2="BackgroundImageFix" result="shape"/>
<feGaussianBlur stdDeviation="4.72023" result="effect1_foregroundBlur_99_7420"/>
</filter>
<filter id="filter3_f_99_7420" x="108.781" y="79.1135" width="27.8712" height="27.8712" filterUnits="userSpaceOnUse" color-interpolation-filters="sRGB">
<feFlood flood-opacity="0" result="BackgroundImageFix"/>
<feBlend mode="normal" in="SourceGraphic" in2="BackgroundImageFix" result="shape"/>
<feGaussianBlur stdDeviation="4.72023" result="effect1_foregroundBlur_99_7420"/>
</filter>
<filter id="filter4_f_99_7420" x="79.1137" y="95.2959" width="27.8712" height="27.8712" filterUnits="userSpaceOnUse" color-interpolation-filters="sRGB">
<feFlood flood-opacity="0" result="BackgroundImageFix"/>
<feBlend mode="normal" in="SourceGraphic" in2="BackgroundImageFix" result="shape"/>
<feGaussianBlur stdDeviation="4.72023" result="effect1_foregroundBlur_99_7420"/>
</filter>
<filter id="filter5_f_99_7420" x="113.276" y="109.68" width="27.8712" height="27.8712" filterUnits="userSpaceOnUse" color-interpolation-filters="sRGB">
<feFlood flood-opacity="0" result="BackgroundImageFix"/>
<feBlend mode="normal" in="SourceGraphic" in2="BackgroundImageFix" result="shape"/>
<feGaussianBlur stdDeviation="4.72023" result="effect1_foregroundBlur_99_7420"/>
</filter>
<filter id="filter6_f_99_7420" x="133.954" y="139.348" width="27.8712" height="27.8712" filterUnits="userSpaceOnUse" color-interpolation-filters="sRGB">
<feFlood flood-opacity="0" result="BackgroundImageFix"/>
<feBlend mode="normal" in="SourceGraphic" in2="BackgroundImageFix" result="shape"/>
<feGaussianBlur stdDeviation="4.72023" result="effect1_foregroundBlur_99_7420"/>
</filter>
<filter id="filter7_f_99_7420" x="178.904" y="162.722" width="27.8712" height="27.8712" filterUnits="userSpaceOnUse" color-interpolation-filters="sRGB">
<feFlood flood-opacity="0" result="BackgroundImageFix"/>
<feBlend mode="normal" in="SourceGraphic" in2="BackgroundImageFix" result="shape"/>
<feGaussianBlur stdDeviation="4.72023" result="effect1_foregroundBlur_99_7420"/>
</filter>
<filter id="filter8_f_99_7420" x="190.592" y="184.299" width="27.8712" height="27.8712" filterUnits="userSpaceOnUse" color-interpolation-filters="sRGB">
<feFlood flood-opacity="0" result="BackgroundImageFix"/>
<feBlend mode="normal" in="SourceGraphic" in2="BackgroundImageFix" result="shape"/>
<feGaussianBlur stdDeviation="4.72023" result="effect1_foregroundBlur_99_7420"/>
</filter>
<filter id="filter9_f_99_7420" x="97.0937" y="105.185" width="26.0733" height="26.0731" filterUnits="userSpaceOnUse" color-interpolation-filters="sRGB">
<feFlood flood-opacity="0" result="BackgroundImageFix"/>
<feBlend mode="normal" in="SourceGraphic" in2="BackgroundImageFix" result="shape"/>
<feGaussianBlur stdDeviation="4.72023" result="effect1_foregroundBlur_99_7420"/>
</filter>
</defs>
</svg>
