<svg width="188" height="275" viewBox="0 0 188 275" fill="none" xmlns="http://www.w3.org/2000/svg">
<path d="M31.558 245.894C30.0132 245.894 28.8849 245.538 28.173 244.826C27.4611 244.114 27.1052 242.986 27.1052 241.441V232.696C27.1052 232.525 27.155 232.39 27.2547 232.29C27.3615 232.183 27.5003 232.13 27.6711 232.13C27.842 232.13 27.9772 232.183 28.0769 232.29C28.1766 232.39 28.2264 232.525 28.2264 232.696V241.441C28.2264 242.267 28.3332 242.922 28.5467 243.406C28.7603 243.89 29.1091 244.239 29.5932 244.452C30.0773 244.666 30.7322 244.773 31.558 244.773H34.1208C34.9395 244.773 35.5909 244.666 36.0749 244.452C36.559 244.239 36.9079 243.89 37.1214 243.406C37.335 242.922 37.4418 242.267 37.4418 241.441V232.696C37.4418 232.525 37.4916 232.39 37.5913 232.29C37.698 232.183 37.8369 232.13 38.0077 232.13C38.1786 232.13 38.3138 232.183 38.4135 232.29C38.5132 232.39 38.563 232.525 38.563 232.696V241.441C38.563 242.986 38.207 244.114 37.4952 244.826C36.7904 245.538 35.6656 245.894 34.1208 245.894H31.558ZM43.0237 245.894C42.6464 245.894 42.4577 245.705 42.4577 245.328V236.358C42.4577 235.988 42.6464 235.803 43.0237 235.803C43.3939 235.803 43.579 235.988 43.579 236.358V238.003C43.9491 237.291 44.4831 236.746 45.1807 236.369C45.8855 235.992 46.7184 235.803 47.6794 235.803C48.0567 235.803 48.2454 235.988 48.2454 236.358C48.2454 236.736 48.0567 236.924 47.6794 236.924C46.4123 236.924 45.4299 237.213 44.7322 237.789C44.0346 238.359 43.6501 239.174 43.579 240.235V245.328C43.579 245.705 43.3939 245.894 43.0237 245.894ZM52.3015 245.873C51.4258 245.873 50.7567 245.688 50.2939 245.317C49.8312 244.94 49.5536 244.367 49.461 243.598C49.4397 243.413 49.4788 243.271 49.5785 243.171C49.6782 243.064 49.8241 243.011 50.0163 243.011C50.1943 243.011 50.326 243.057 50.4114 243.15C50.504 243.242 50.5645 243.381 50.5929 243.566C50.657 244.008 50.8172 244.317 51.0735 244.495C51.3369 244.666 51.7462 244.751 52.3015 244.751H55.804C56.466 244.751 56.9216 244.627 57.1708 244.378C57.4199 244.129 57.5445 243.673 57.5445 243.011C57.5445 242.342 57.4199 241.883 57.1708 241.633C56.9216 241.384 56.466 241.26 55.804 241.26H52.3442C51.4187 241.26 50.7282 241.039 50.2726 240.598C49.8241 240.149 49.5999 239.462 49.5999 238.537C49.5999 237.59 49.8241 236.896 50.2726 236.454C50.7211 236.006 51.4116 235.782 52.3442 235.782H55.6972C57.306 235.782 58.1994 236.494 58.3774 237.917C58.4059 238.102 58.3667 238.248 58.26 238.355C58.1603 238.455 58.0179 238.505 57.8328 238.505C57.6549 238.505 57.5196 238.458 57.4271 238.366C57.3416 238.273 57.2811 238.138 57.2455 237.96C57.1957 237.561 57.0498 237.287 56.8077 237.138C56.5728 236.981 56.2026 236.903 55.6972 236.903H52.3442C51.7248 236.903 51.2977 237.017 51.0628 237.245C50.835 237.472 50.7211 237.903 50.7211 238.537C50.7211 239.142 50.8385 239.562 51.0735 239.797C51.3084 240.025 51.732 240.138 52.3442 240.138H55.804C56.7864 240.138 57.5089 240.373 57.9716 240.843C58.4344 241.306 58.6657 242.028 58.6657 243.011C58.6657 243.986 58.4344 244.709 57.9716 245.179C57.5089 245.641 56.7864 245.873 55.804 245.873H52.3015ZM65.0213 245.894C63.9108 245.894 63.0957 245.638 62.576 245.125C62.0634 244.606 61.8072 243.79 61.8072 242.68C61.8072 241.569 62.067 240.754 62.5867 240.235C63.1064 239.715 63.9179 239.455 65.0213 239.455H69.88C69.8657 238.515 69.6522 237.86 69.2393 237.49C68.8335 237.113 68.1394 236.924 67.157 236.924H65.9183C65.0142 236.924 64.3522 237.02 63.9321 237.213C63.5121 237.405 63.2523 237.732 63.1526 238.195C63.1028 238.373 63.0352 238.505 62.9497 238.59C62.8714 238.668 62.7433 238.708 62.5653 238.708C62.3802 238.708 62.2343 238.658 62.1275 238.558C62.0278 238.451 61.9922 238.309 62.0207 238.131C62.1133 237.319 62.4799 236.728 63.1206 236.358C63.7684 235.988 64.701 235.803 65.9183 235.803H67.157C68.4882 235.803 69.4599 236.113 70.0722 236.732C70.6915 237.344 71.0012 238.316 71.0012 239.647V245.328C71.0012 245.705 70.8161 245.894 70.4459 245.894C70.0686 245.894 69.88 245.705 69.88 245.328V244.271C69.1965 245.353 67.9757 245.894 66.2173 245.894H65.0213ZM65.0213 244.773H66.2173C66.9078 244.773 67.5129 244.698 68.0326 244.549C68.5594 244.392 68.983 244.143 69.3033 243.801C69.6237 243.459 69.8159 243.004 69.88 242.434V240.576H65.0213C64.2311 240.576 63.683 240.729 63.3769 241.035C63.0779 241.334 62.9284 241.883 62.9284 242.68C62.9284 243.47 63.0779 244.018 63.3769 244.324C63.683 244.623 64.2311 244.773 65.0213 244.773ZM80.7314 245.894C80.3541 245.894 80.1655 245.705 80.1655 245.328V232.696C80.1655 232.318 80.3541 232.13 80.7314 232.13C81.002 232.13 81.2155 232.254 81.3721 232.503L86.6899 240.63L86.4337 240.662L91.7515 232.503C91.901 232.254 92.1252 232.13 92.4242 232.13C92.7588 232.13 92.9261 232.318 92.9261 232.696V245.328C92.9261 245.705 92.741 245.894 92.3708 245.894C91.9935 245.894 91.8049 245.705 91.8049 245.328V233.817L92.1359 233.924L87.2025 241.441C87.0459 241.683 86.8216 241.804 86.5298 241.804C86.2735 241.804 86.067 241.683 85.9104 241.441L80.977 233.924L81.2867 234.041V245.328C81.2867 245.705 81.1016 245.894 80.7314 245.894ZM97.2333 233.86C96.7421 233.86 96.4965 233.607 96.4965 233.101V232.621C96.4965 232.13 96.7421 231.884 97.2333 231.884H97.7138C98.1908 231.884 98.4292 232.13 98.4292 232.621V233.101C98.4292 233.607 98.1908 233.86 97.7138 233.86H97.2333ZM97.4789 245.894C97.1016 245.894 96.9129 245.705 96.9129 245.328V236.358C96.9129 235.988 97.1016 235.803 97.4789 235.803C97.8491 235.803 98.0341 235.988 98.0341 236.358V245.328C98.0341 245.705 97.8491 245.894 97.4789 245.894ZM102.589 245.894C102.211 245.894 102.023 245.705 102.023 245.328V236.358C102.023 235.988 102.211 235.803 102.589 235.803C102.959 235.803 103.144 235.988 103.144 236.358V237.383C103.82 236.33 105.045 235.803 106.817 235.803H107.415C108.746 235.803 109.718 236.113 110.33 236.732C110.95 237.344 111.259 238.316 111.259 239.647V245.328C111.259 245.705 111.074 245.894 110.704 245.894C110.327 245.894 110.138 245.705 110.138 245.328V239.647C110.138 238.629 109.935 237.921 109.53 237.522C109.131 237.124 108.426 236.924 107.415 236.924H106.817C105.714 236.924 104.845 237.099 104.212 237.448C103.578 237.796 103.222 238.341 103.144 239.081V245.328C103.144 245.705 102.959 245.894 102.589 245.894ZM118.624 245.894C117.293 245.894 116.318 245.588 115.698 244.976C115.079 244.356 114.769 243.385 114.769 242.061V239.647C114.769 238.302 115.079 237.323 115.698 236.711C116.318 236.091 117.293 235.789 118.624 235.803H120.375C121.707 235.803 122.678 236.113 123.291 236.732C123.91 237.344 124.22 238.316 124.22 239.647V242.039C124.22 243.37 123.91 244.346 123.291 244.965C122.678 245.584 121.707 245.894 120.375 245.894H118.624ZM115.891 242.061C115.891 243.064 116.09 243.769 116.489 244.175C116.894 244.573 117.606 244.773 118.624 244.773H120.375C121.393 244.773 122.102 244.573 122.5 244.175C122.899 243.769 123.098 243.057 123.098 242.039V239.647C123.098 238.629 122.899 237.921 122.5 237.522C122.102 237.124 121.393 236.924 120.375 236.924H118.624C117.941 236.917 117.4 236.999 117.001 237.17C116.602 237.341 116.318 237.625 116.147 238.024C115.976 238.423 115.891 238.964 115.891 239.647V242.061ZM128.492 245.894C128.115 245.894 127.926 245.705 127.926 245.328V236.358C127.926 235.988 128.115 235.803 128.492 235.803C128.862 235.803 129.047 235.988 129.047 236.358V238.003C129.417 237.291 129.951 236.746 130.649 236.369C131.354 235.992 132.187 235.803 133.148 235.803C133.525 235.803 133.714 235.988 133.714 236.358C133.714 236.736 133.525 236.924 133.148 236.924C131.88 236.924 130.898 237.213 130.2 237.789C129.503 238.359 129.118 239.174 129.047 240.235V245.328C129.047 245.705 128.862 245.894 128.492 245.894ZM144.294 249.407C142.963 249.407 141.995 249.033 141.39 248.286C140.785 247.539 140.482 246.357 140.482 244.741V236.518C140.482 234.817 140.785 233.578 141.39 232.802C141.995 232.026 142.963 231.639 144.294 231.639C144.444 231.639 144.568 231.688 144.668 231.788C144.768 231.888 144.817 232.012 144.817 232.162C144.817 232.304 144.768 232.429 144.668 232.535C144.568 232.635 144.444 232.685 144.294 232.685C143.618 232.685 143.077 232.806 142.671 233.048C142.265 233.29 141.973 233.692 141.796 234.255C141.618 234.817 141.529 235.572 141.529 236.518V244.741C141.529 246.086 141.735 247.026 142.148 247.56C142.568 248.094 143.283 248.361 144.294 248.361C144.444 248.361 144.568 248.411 144.668 248.51C144.768 248.61 144.817 248.734 144.817 248.884C144.817 249.026 144.768 249.147 144.668 249.247C144.568 249.354 144.444 249.407 144.294 249.407ZM151.098 245.905C150.928 245.905 150.789 245.855 150.682 245.755C150.582 245.656 150.533 245.52 150.533 245.349V233.24H145.994C145.823 233.24 145.685 233.19 145.578 233.091C145.478 232.991 145.428 232.856 145.428 232.685C145.428 232.514 145.478 232.379 145.578 232.279C145.685 232.172 145.823 232.119 145.994 232.119H156.203C156.374 232.119 156.509 232.172 156.608 232.279C156.708 232.379 156.758 232.514 156.758 232.685C156.758 232.856 156.708 232.991 156.608 233.091C156.509 233.19 156.374 233.24 156.203 233.24H151.654V245.349C151.654 245.513 151.6 245.648 151.494 245.755C151.394 245.855 151.262 245.905 151.098 245.905ZM159.296 245.894C158.919 245.894 158.73 245.705 158.73 245.328V231.639C158.73 231.268 158.919 231.083 159.296 231.083C159.666 231.083 159.852 231.268 159.852 231.639V237.383C160.528 236.33 161.752 235.803 163.525 235.803H164.123C165.454 235.803 166.426 236.113 167.038 236.732C167.657 237.344 167.967 238.316 167.967 239.647V245.328C167.967 245.705 167.782 245.894 167.412 245.894C167.034 245.894 166.846 245.705 166.846 245.328V239.647C166.846 238.629 166.643 237.921 166.237 237.522C165.838 237.124 165.134 236.924 164.123 236.924H163.525C162.421 236.924 161.553 237.099 160.919 237.448C160.286 237.796 159.93 238.341 159.852 239.081V245.328C159.852 245.705 159.666 245.894 159.296 245.894ZM172.598 241.281V242.061C172.598 243.064 172.798 243.769 173.196 244.175C173.602 244.573 174.314 244.773 175.332 244.773H177.083C177.98 244.773 178.631 244.659 179.037 244.431C179.45 244.196 179.696 243.794 179.774 243.224C179.803 243.046 179.859 242.911 179.945 242.819C180.037 242.726 180.176 242.68 180.361 242.68C180.546 242.68 180.685 242.733 180.778 242.84C180.877 242.94 180.917 243.082 180.895 243.267C180.803 244.164 180.443 244.826 179.817 245.253C179.19 245.68 178.279 245.894 177.083 245.894H175.332C174.001 245.894 173.025 245.588 172.406 244.976C171.787 244.356 171.477 243.385 171.477 242.061V239.647C171.477 238.302 171.787 237.323 172.406 236.711C173.025 236.091 174.001 235.789 175.332 235.803H177.083C178.414 235.803 179.386 236.113 179.998 236.732C180.618 237.344 180.927 238.316 180.927 239.647V240.715C180.927 241.092 180.742 241.281 180.372 241.281H172.598ZM175.332 236.924C174.314 236.91 173.602 237.106 173.196 237.512C172.798 237.91 172.598 238.622 172.598 239.647V240.16H179.806V239.647C179.806 238.629 179.607 237.921 179.208 237.522C178.809 237.124 178.101 236.924 177.083 236.924H175.332ZM52.607 270.894C52.2297 270.894 52.0411 270.705 52.0411 270.328V257.696C52.0411 257.318 52.2297 257.13 52.607 257.13C52.9772 257.13 53.1623 257.318 53.1623 257.696V269.773H59.6547C60.032 269.773 60.2207 269.958 60.2207 270.328C60.2207 270.705 60.032 270.894 59.6547 270.894H52.607ZM63.0397 258.86C62.5485 258.86 62.3029 258.607 62.3029 258.101V257.621C62.3029 257.13 62.5485 256.884 63.0397 256.884H63.5203C63.9972 256.884 64.2357 257.13 64.2357 257.621V258.101C64.2357 258.607 63.9972 258.86 63.5203 258.86H63.0397ZM63.2854 270.894C62.9081 270.894 62.7194 270.705 62.7194 270.328V261.358C62.7194 260.988 62.9081 260.803 63.2854 260.803C63.6555 260.803 63.8406 260.988 63.8406 261.358V270.328C63.8406 270.705 63.6555 270.894 63.2854 270.894ZM71.951 270.894C70.6411 270.894 69.6836 270.591 69.0785 269.986C68.4734 269.381 68.1708 268.427 68.1708 267.125V261.924H66.9001C66.5228 261.924 66.3342 261.736 66.3342 261.358C66.3342 260.988 66.5228 260.803 66.9001 260.803H68.1708V258.507C68.1708 258.13 68.3559 257.941 68.7261 257.941C69.1034 257.941 69.2921 258.13 69.2921 258.507V260.803H71.9723C72.3425 260.803 72.5276 260.988 72.5276 261.358C72.5276 261.736 72.3425 261.924 71.9723 261.924H69.2921V267.125C69.2921 268.121 69.4843 268.812 69.8687 269.196C70.2602 269.581 70.9543 269.773 71.951 269.773C72.1574 269.773 72.3033 269.819 72.3888 269.912C72.4813 270.004 72.5276 270.143 72.5276 270.328C72.5276 270.705 72.3354 270.894 71.951 270.894ZM79.6051 270.894C78.2953 270.894 77.3378 270.591 76.7327 269.986C76.1276 269.381 75.825 268.427 75.825 267.125V261.924H74.5543C74.177 261.924 73.9883 261.736 73.9883 261.358C73.9883 260.988 74.177 260.803 74.5543 260.803H75.825V258.507C75.825 258.13 76.0101 257.941 76.3803 257.941C76.7576 257.941 76.9462 258.13 76.9462 258.507V260.803H79.6265C79.9967 260.803 80.1818 260.988 80.1818 261.358C80.1818 261.736 79.9967 261.924 79.6265 261.924H76.9462V267.125C76.9462 268.121 77.1384 268.812 77.5229 269.196C77.9144 269.581 78.6085 269.773 79.6051 269.773C79.8116 269.773 79.9575 269.819 80.0429 269.912C80.1355 270.004 80.1818 270.143 80.1818 270.328C80.1818 270.705 79.9896 270.894 79.6051 270.894ZM86.074 270.894C85.0631 270.894 84.3192 270.659 83.8423 270.189C83.3724 269.719 83.1375 268.983 83.1375 267.979V256.639C83.1375 256.268 83.3261 256.083 83.7034 256.083C84.0736 256.083 84.2587 256.268 84.2587 256.639V267.979C84.2587 268.669 84.3868 269.143 84.6431 269.399C84.8994 269.648 85.3728 269.773 86.0633 269.773C86.4478 269.773 86.64 269.958 86.64 270.328C86.6471 270.705 86.4584 270.894 86.074 270.894ZM89.7684 266.281V267.061C89.7684 268.064 89.9677 268.769 90.3664 269.175C90.7721 269.573 91.484 269.773 92.502 269.773H94.2533C95.1502 269.773 95.8016 269.659 96.2074 269.431C96.6203 269.196 96.8659 268.794 96.9442 268.224C96.9727 268.046 97.0296 267.911 97.1151 267.819C97.2076 267.726 97.3464 267.68 97.5315 267.68C97.7166 267.68 97.8554 267.733 97.948 267.84C98.0476 267.94 98.0868 268.082 98.0654 268.267C97.9729 269.164 97.6134 269.826 96.9869 270.253C96.3605 270.68 95.4492 270.894 94.2533 270.894H92.502C91.1708 270.894 90.1955 270.588 89.5762 269.976C88.9568 269.356 88.6472 268.385 88.6472 267.061V264.647C88.6472 263.302 88.9568 262.323 89.5762 261.711C90.1955 261.091 91.1708 260.789 92.502 260.803H94.2533C95.5845 260.803 96.5562 261.113 97.1684 261.732C97.7878 262.344 98.0975 263.316 98.0975 264.647V265.715C98.0975 266.092 97.9124 266.281 97.5422 266.281H89.7684ZM92.502 261.924C91.484 261.91 90.7721 262.106 90.3664 262.512C89.9677 262.91 89.7684 263.622 89.7684 264.647V265.16H96.9762V264.647C96.9762 263.629 96.7769 262.921 96.3783 262.522C95.9796 262.124 95.2713 261.924 94.2533 261.924H92.502ZM107.73 270.894C107.352 270.894 107.164 270.705 107.164 270.328V257.696C107.164 257.318 107.352 257.13 107.73 257.13H113.304C114.35 257.13 115.14 257.397 115.674 257.931C116.215 258.457 116.486 259.233 116.486 260.258V260.835C116.486 261.953 116.126 262.743 115.407 263.206C116.653 263.718 117.276 264.829 117.276 266.537V267.21C117.276 268.42 116.963 269.339 116.336 269.965C115.717 270.584 114.799 270.894 113.581 270.894H107.73ZM108.285 269.773H113.581C114.485 269.773 115.14 269.57 115.546 269.164C115.952 268.758 116.155 268.107 116.155 267.21V266.537C116.155 265.64 115.952 264.992 115.546 264.594C115.147 264.195 114.493 263.996 113.581 263.996H108.285V269.773ZM108.285 262.875H113.464C114.112 262.875 114.589 262.711 114.895 262.383C115.208 262.049 115.365 261.533 115.365 260.835V260.258C115.365 259.547 115.201 259.034 114.873 258.721C114.553 258.408 114.03 258.251 113.304 258.251H108.285V262.875ZM121.24 266.281V267.061C121.24 268.064 121.44 268.769 121.838 269.175C122.244 269.573 122.956 269.773 123.974 269.773H125.725C126.622 269.773 127.273 269.659 127.679 269.431C128.092 269.196 128.338 268.794 128.416 268.224C128.444 268.046 128.501 267.911 128.587 267.819C128.679 267.726 128.818 267.68 129.003 267.68C129.188 267.68 129.327 267.733 129.42 267.84C129.519 267.94 129.559 268.082 129.537 268.267C129.445 269.164 129.085 269.826 128.459 270.253C127.832 270.68 126.921 270.894 125.725 270.894H123.974C122.643 270.894 121.667 270.588 121.048 269.976C120.429 269.356 120.119 268.385 120.119 267.061V264.647C120.119 263.302 120.429 262.323 121.048 261.711C121.667 261.091 122.643 260.789 123.974 260.803H125.725C127.056 260.803 128.028 261.113 128.64 261.732C129.26 262.344 129.569 263.316 129.569 264.647V265.715C129.569 266.092 129.384 266.281 129.014 266.281H121.24ZM123.974 261.924C122.956 261.91 122.244 262.106 121.838 262.512C121.44 262.91 121.24 263.622 121.24 264.647V265.16H128.448V264.647C128.448 263.629 128.249 262.921 127.85 262.522C127.451 262.124 126.743 261.924 125.725 261.924H123.974ZM136.276 270.894C135.166 270.894 134.35 270.638 133.831 270.125C133.318 269.606 133.062 268.79 133.062 267.68C133.062 266.569 133.322 265.754 133.841 265.235C134.361 264.715 135.173 264.455 136.276 264.455H141.135C141.12 263.515 140.907 262.86 140.494 262.49C140.088 262.113 139.394 261.924 138.412 261.924H137.173C136.269 261.924 135.607 262.02 135.187 262.213C134.767 262.405 134.507 262.732 134.407 263.195C134.358 263.373 134.29 263.505 134.204 263.59C134.126 263.668 133.998 263.708 133.82 263.708C133.635 263.708 133.489 263.658 133.382 263.558C133.283 263.451 133.247 263.309 133.275 263.131C133.368 262.319 133.735 261.728 134.375 261.358C135.023 260.988 135.956 260.803 137.173 260.803H138.412C139.743 260.803 140.715 261.113 141.327 261.732C141.946 262.344 142.256 263.316 142.256 264.647V270.328C142.256 270.705 142.071 270.894 141.701 270.894C141.323 270.894 141.135 270.705 141.135 270.328V269.271C140.451 270.353 139.23 270.894 137.472 270.894H136.276ZM136.276 269.773H137.472C138.163 269.773 138.768 269.698 139.287 269.549C139.814 269.392 140.238 269.143 140.558 268.801C140.878 268.459 141.071 268.004 141.135 267.434V265.576H136.276C135.486 265.576 134.938 265.729 134.632 266.035C134.333 266.334 134.183 266.883 134.183 267.68C134.183 268.47 134.333 269.018 134.632 269.324C134.938 269.623 135.486 269.773 136.276 269.773ZM146.626 270.894C146.249 270.894 146.06 270.705 146.06 270.328V261.358C146.06 260.988 146.249 260.803 146.626 260.803C146.996 260.803 147.181 260.988 147.181 261.358V263.003C147.552 262.291 148.086 261.746 148.783 261.369C149.488 260.992 150.321 260.803 151.282 260.803C151.659 260.803 151.848 260.988 151.848 261.358C151.848 261.736 151.659 261.924 151.282 261.924C150.015 261.924 149.032 262.213 148.335 262.789C147.637 263.359 147.253 264.174 147.181 265.235V270.328C147.181 270.705 146.996 270.894 146.626 270.894ZM152.851 274.407C152.708 274.407 152.584 274.354 152.477 274.247C152.377 274.147 152.327 274.026 152.327 273.884C152.327 273.734 152.377 273.61 152.477 273.51C152.584 273.411 152.708 273.361 152.851 273.361C153.869 273.361 154.584 273.094 154.997 272.56C155.41 272.026 155.616 271.086 155.616 269.741V261.518C155.616 260.572 155.527 259.817 155.349 259.255C155.171 258.692 154.88 258.29 154.474 258.048C154.068 257.806 153.527 257.685 152.851 257.685C152.708 257.685 152.584 257.635 152.477 257.535C152.377 257.429 152.327 257.304 152.327 257.162C152.327 257.012 152.377 256.888 152.477 256.788C152.584 256.688 152.708 256.639 152.851 256.639C154.189 256.639 155.157 257.026 155.755 257.802C156.36 258.578 156.663 259.817 156.663 261.518V269.741C156.663 271.357 156.36 272.539 155.755 273.286C155.157 274.033 154.189 274.407 152.851 274.407Z" fill="white"/>
<path d="M15.1382 13.1851L27.346 71.7824L56.1563 126.473L111.335 157.237M111.335 157.237L172.863 162.608L166.026 204.603L100.104 189.954L111.335 157.237Z" stroke="#AA7E41" stroke-width="0.3"/>
<g filter="url(#filter0_f_99_7179)">
<circle cx="14.6502" cy="14.6502" r="4.3948" fill="#FAFFB3"/>
</g>
<circle cx="14.6506" cy="14.6501" r="2.92986" fill="#D9D9D9"/>
<g filter="url(#filter1_f_99_7179)">
<circle cx="27.3465" cy="73.2473" r="4.3948" fill="#FAFFB3"/>
</g>
<circle cx="27.3469" cy="73.2472" r="2.92986" fill="#D9D9D9"/>
<g filter="url(#filter2_f_99_7179)">
<circle cx="57.6214" cy="127.938" r="4.3948" fill="#FAFFB3"/>
</g>
<circle cx="57.6218" cy="127.939" r="2.92986" fill="#D9D9D9"/>
<g filter="url(#filter3_f_99_7179)">
<circle cx="110.359" cy="157.237" r="4.3948" fill="#FAFFB3"/>
</g>
<circle cx="110.36" cy="157.237" r="2.92986" fill="#D9D9D9"/>
<g filter="url(#filter4_f_99_7179)">
<circle cx="172.863" cy="162.12" r="4.3948" fill="#FAFFB3"/>
</g>
<circle cx="172.863" cy="162.12" r="2.92986" fill="#D9D9D9"/>
<g filter="url(#filter5_f_99_7179)">
<circle cx="166.026" cy="204.115" r="4.3948" fill="#FAFFB3"/>
</g>
<circle cx="166.027" cy="204.115" r="2.92986" fill="#D9D9D9"/>
<g filter="url(#filter6_f_99_7179)">
<circle cx="99.6165" cy="189.466" r="4.3948" fill="#FAFFB3"/>
</g>
<circle cx="99.6169" cy="189.466" r="2.92986" fill="#D9D9D9"/>
<defs>
<filter id="filter0_f_99_7179" x="8.58307e-06" y="8.58307e-06" width="29.3003" height="29.3003" filterUnits="userSpaceOnUse" color-interpolation-filters="sRGB">
<feFlood flood-opacity="0" result="BackgroundImageFix"/>
<feBlend mode="normal" in="SourceGraphic" in2="BackgroundImageFix" result="shape"/>
<feGaussianBlur stdDeviation="5.12768" result="effect1_foregroundBlur_99_7179"/>
</filter>
<filter id="filter1_f_99_7179" x="12.6963" y="58.5972" width="29.3003" height="29.3003" filterUnits="userSpaceOnUse" color-interpolation-filters="sRGB">
<feFlood flood-opacity="0" result="BackgroundImageFix"/>
<feBlend mode="normal" in="SourceGraphic" in2="BackgroundImageFix" result="shape"/>
<feGaussianBlur stdDeviation="5.12768" result="effect1_foregroundBlur_99_7179"/>
</filter>
<filter id="filter2_f_99_7179" x="42.9712" y="113.288" width="29.3003" height="29.3003" filterUnits="userSpaceOnUse" color-interpolation-filters="sRGB">
<feFlood flood-opacity="0" result="BackgroundImageFix"/>
<feBlend mode="normal" in="SourceGraphic" in2="BackgroundImageFix" result="shape"/>
<feGaussianBlur stdDeviation="5.12768" result="effect1_foregroundBlur_99_7179"/>
</filter>
<filter id="filter3_f_99_7179" x="95.709" y="142.587" width="29.3003" height="29.3003" filterUnits="userSpaceOnUse" color-interpolation-filters="sRGB">
<feFlood flood-opacity="0" result="BackgroundImageFix"/>
<feBlend mode="normal" in="SourceGraphic" in2="BackgroundImageFix" result="shape"/>
<feGaussianBlur stdDeviation="5.12768" result="effect1_foregroundBlur_99_7179"/>
</filter>
<filter id="filter4_f_99_7179" x="158.213" y="147.47" width="29.3003" height="29.3003" filterUnits="userSpaceOnUse" color-interpolation-filters="sRGB">
<feFlood flood-opacity="0" result="BackgroundImageFix"/>
<feBlend mode="normal" in="SourceGraphic" in2="BackgroundImageFix" result="shape"/>
<feGaussianBlur stdDeviation="5.12768" result="effect1_foregroundBlur_99_7179"/>
</filter>
<filter id="filter5_f_99_7179" x="151.376" y="189.464" width="29.3003" height="29.3003" filterUnits="userSpaceOnUse" color-interpolation-filters="sRGB">
<feFlood flood-opacity="0" result="BackgroundImageFix"/>
<feBlend mode="normal" in="SourceGraphic" in2="BackgroundImageFix" result="shape"/>
<feGaussianBlur stdDeviation="5.12768" result="effect1_foregroundBlur_99_7179"/>
</filter>
<filter id="filter6_f_99_7179" x="84.9663" y="174.815" width="29.3003" height="29.3003" filterUnits="userSpaceOnUse" color-interpolation-filters="sRGB">
<feFlood flood-opacity="0" result="BackgroundImageFix"/>
<feBlend mode="normal" in="SourceGraphic" in2="BackgroundImageFix" result="shape"/>
<feGaussianBlur stdDeviation="5.12768" result="effect1_foregroundBlur_99_7179"/>
</filter>
</defs>
</svg>
