<svg width="223" height="255" viewBox="0 0 223 255" fill="none" xmlns="http://www.w3.org/2000/svg">
<path d="M37.569 227.526C36.1319 227.526 35.0823 227.195 34.4201 226.533C33.7579 225.87 33.4268 224.821 33.4268 223.384V215.248C33.4268 215.089 33.4731 214.964 33.5658 214.871C33.6652 214.772 33.7943 214.722 33.9532 214.722C34.1122 214.722 34.238 214.772 34.3307 214.871C34.4234 214.964 34.4698 215.089 34.4698 215.248V223.384C34.4698 224.152 34.5691 224.761 34.7678 225.211C34.9664 225.662 35.2909 225.986 35.7412 226.185C36.1915 226.384 36.8008 226.483 37.569 226.483H39.953C40.7145 226.483 41.3204 226.384 41.7707 226.185C42.2211 225.986 42.5455 225.662 42.7442 225.211C42.9429 224.761 43.0422 224.152 43.0422 223.384V215.248C43.0422 215.089 43.0886 214.964 43.1813 214.871C43.2806 214.772 43.4097 214.722 43.5687 214.722C43.7276 214.722 43.8534 214.772 43.9461 214.871C44.0389 214.964 44.0852 215.089 44.0852 215.248V223.384C44.0852 224.821 43.7541 225.87 43.0919 226.533C42.4363 227.195 41.39 227.526 39.953 227.526H37.569ZM48.2347 227.526C47.8837 227.526 47.7082 227.35 47.7082 226.999V218.655C47.7082 218.311 47.8837 218.139 48.2347 218.139C48.579 218.139 48.7512 218.311 48.7512 218.655V220.185C49.0956 219.523 49.5922 219.016 50.2412 218.665C50.8968 218.314 51.6716 218.139 52.5656 218.139C52.9166 218.139 53.0921 218.311 53.0921 218.655C53.0921 219.006 52.9166 219.182 52.5656 219.182C51.3869 219.182 50.473 219.45 49.824 219.987C49.175 220.516 48.8174 221.275 48.7512 222.261V226.999C48.7512 227.35 48.579 227.526 48.2347 227.526ZM56.8652 227.506C56.0506 227.506 55.4282 227.334 54.9977 226.989C54.5673 226.639 54.309 226.105 54.2229 225.39C54.2031 225.218 54.2395 225.086 54.3322 224.993C54.4249 224.894 54.5607 224.844 54.7395 224.844C54.905 224.844 55.0275 224.887 55.107 224.973C55.1931 225.059 55.2494 225.188 55.2759 225.36C55.3355 225.771 55.4845 226.059 55.7228 226.225C55.9679 226.384 56.3486 226.463 56.8652 226.463H60.1233C60.7392 226.463 61.163 226.347 61.3948 226.115C61.6265 225.884 61.7424 225.46 61.7424 224.844C61.7424 224.221 61.6265 223.794 61.3948 223.562C61.163 223.331 60.7392 223.215 60.1233 223.215H56.9049C56.044 223.215 55.4017 223.01 54.9779 222.599C54.5607 222.182 54.3521 221.543 54.3521 220.682C54.3521 219.801 54.5607 219.155 54.9779 218.745C55.3951 218.328 56.0374 218.119 56.9049 218.119H60.024C61.5206 218.119 62.3517 218.781 62.5172 220.106C62.5437 220.278 62.5073 220.414 62.408 220.513C62.3153 220.606 62.1828 220.652 62.0106 220.652C61.8451 220.652 61.7193 220.609 61.6332 220.523C61.5537 220.437 61.4974 220.311 61.4643 220.145C61.4179 219.775 61.2822 219.52 61.057 219.381C60.8385 219.235 60.4941 219.162 60.024 219.162H56.9049C56.3288 219.162 55.9314 219.268 55.7129 219.48C55.501 219.692 55.3951 220.092 55.3951 220.682C55.3951 221.245 55.5043 221.635 55.7228 221.854C55.9414 222.066 56.3354 222.172 56.9049 222.172H60.1233C61.0372 222.172 61.7093 222.39 62.1398 222.827C62.5702 223.258 62.7854 223.93 62.7854 224.844C62.7854 225.751 62.5702 226.423 62.1398 226.86C61.7093 227.291 61.0372 227.506 60.1233 227.506H56.8652ZM68.6976 227.526C67.6645 227.526 66.9063 227.287 66.4229 226.811C65.9461 226.327 65.7077 225.569 65.7077 224.536C65.7077 223.503 65.9494 222.745 66.4328 222.261C66.9162 221.778 67.6712 221.536 68.6976 221.536H73.2173C73.204 220.662 73.0053 220.053 72.6213 219.708C72.2438 219.357 71.5981 219.182 70.6843 219.182H69.532C68.691 219.182 68.0751 219.271 67.6844 219.45C67.2937 219.629 67.052 219.934 66.9593 220.364C66.9129 220.53 66.85 220.652 66.7705 220.731C66.6977 220.804 66.5785 220.841 66.4129 220.841C66.2408 220.841 66.105 220.794 66.0057 220.702C65.913 220.602 65.8799 220.47 65.9063 220.304C65.9924 219.549 66.3335 219 66.9295 218.655C67.5321 218.311 68.3996 218.139 69.532 218.139H70.6843C71.9226 218.139 72.8266 218.427 73.3961 219.003C73.9722 219.573 74.2603 220.477 74.2603 221.715V226.999C74.2603 227.35 74.0881 227.526 73.7437 227.526C73.3927 227.526 73.2173 227.35 73.2173 226.999V226.016C72.5815 227.023 71.4458 227.526 69.8101 227.526H68.6976ZM68.6976 226.483H69.8101C70.4525 226.483 71.0154 226.413 71.4988 226.274C71.9888 226.129 72.3829 225.897 72.6809 225.579C72.9789 225.261 73.1577 224.837 73.2173 224.307V222.579H68.6976C67.9625 222.579 67.4526 222.721 67.1679 223.006C66.8897 223.284 66.7507 223.794 66.7507 224.536C66.7507 225.271 66.8897 225.781 67.1679 226.066C67.4526 226.344 67.9625 226.483 68.6976 226.483ZM83.3117 227.526C82.9607 227.526 82.7852 227.35 82.7852 226.999V215.248C82.7852 214.897 82.9607 214.722 83.3117 214.722C83.5633 214.722 83.762 214.838 83.9077 215.07L88.8545 222.629L88.6161 222.659L93.5628 215.07C93.7019 214.838 93.9105 214.722 94.1886 214.722C94.4999 214.722 94.6555 214.897 94.6555 215.248V226.999C94.6555 227.35 94.4833 227.526 94.139 227.526C93.788 227.526 93.6125 227.35 93.6125 226.999V216.291L93.9204 216.391L89.3313 223.384C89.1856 223.609 88.977 223.721 88.7055 223.721C88.4671 223.721 88.275 223.609 88.1293 223.384L83.5401 216.391L83.8282 216.5V226.999C83.8282 227.35 83.656 227.526 83.3117 227.526ZM101.155 227.526C100.122 227.526 99.3641 227.287 98.8807 226.811C98.4039 226.327 98.1655 225.569 98.1655 224.536C98.1655 223.503 98.4072 222.745 98.8907 222.261C99.3741 221.778 100.129 221.536 101.155 221.536H105.675C105.662 220.662 105.463 220.053 105.079 219.708C104.702 219.357 104.056 219.182 103.142 219.182H101.99C101.149 219.182 100.533 219.271 100.142 219.45C99.7515 219.629 99.5098 219.934 99.4171 220.364C99.3708 220.53 99.3079 220.652 99.2284 220.731C99.1555 220.804 99.0363 220.841 98.8708 220.841C98.6986 220.841 98.5629 220.794 98.4635 220.702C98.3708 220.602 98.3377 220.47 98.3642 220.304C98.4503 219.549 98.7913 219 99.3873 218.655C99.9899 218.311 100.857 218.139 101.99 218.139H103.142C104.38 218.139 105.284 218.427 105.854 219.003C106.43 219.573 106.718 220.477 106.718 221.715V226.999C106.718 227.35 106.546 227.526 106.202 227.526C105.851 227.526 105.675 227.35 105.675 226.999V226.016C105.039 227.023 103.904 227.526 102.268 227.526H101.155ZM101.155 226.483H102.268C102.91 226.483 103.473 226.413 103.957 226.274C104.447 226.129 104.841 225.897 105.139 225.579C105.437 225.261 105.616 224.837 105.675 224.307V222.579H101.155C100.42 222.579 99.9105 222.721 99.6257 223.006C99.3476 223.284 99.2085 223.794 99.2085 224.536C99.2085 225.271 99.3476 225.781 99.6257 226.066C99.9105 226.344 100.42 226.483 101.155 226.483ZM110.555 216.331C110.105 216.331 109.88 216.096 109.88 215.626V215.179C109.88 214.722 110.105 214.493 110.555 214.493H111.012C111.456 214.493 111.677 214.722 111.677 215.179V215.626C111.677 216.096 111.456 216.331 111.012 216.331H110.555ZM108.598 231.499C108.433 231.499 108.3 231.453 108.201 231.36C108.101 231.274 108.052 231.145 108.052 230.973C108.052 230.801 108.105 230.671 108.211 230.585C108.31 230.499 108.439 230.456 108.598 230.456C109.234 230.456 109.668 230.337 109.899 230.099C110.138 229.86 110.257 229.423 110.257 228.787V218.655C110.257 218.311 110.432 218.139 110.783 218.139C111.128 218.139 111.3 218.311 111.3 218.655V228.787C111.3 229.715 111.081 230.397 110.644 230.834C110.207 231.277 109.525 231.499 108.598 231.499ZM118.328 227.526C117.09 227.526 116.182 227.241 115.606 226.672C115.03 226.095 114.742 225.192 114.742 223.96V221.715C114.742 220.463 115.03 219.553 115.606 218.983C116.182 218.407 117.09 218.126 118.328 218.139H119.957C121.195 218.139 122.099 218.427 122.669 219.003C123.245 219.573 123.533 220.477 123.533 221.715V223.94C123.533 225.178 123.245 226.086 122.669 226.662C122.099 227.238 121.195 227.526 119.957 227.526H118.328ZM115.785 223.96C115.785 224.894 115.97 225.549 116.341 225.927C116.719 226.297 117.381 226.483 118.328 226.483H119.957C120.904 226.483 121.563 226.297 121.934 225.927C122.305 225.549 122.49 224.887 122.49 223.94V221.715C122.49 220.768 122.305 220.109 121.934 219.738C121.563 219.367 120.904 219.182 119.957 219.182H118.328C117.692 219.175 117.189 219.251 116.818 219.41C116.447 219.569 116.182 219.834 116.023 220.205C115.865 220.576 115.785 221.079 115.785 221.715V223.96ZM127.507 227.526C127.156 227.526 126.981 227.35 126.981 226.999V218.655C126.981 218.311 127.156 218.139 127.507 218.139C127.851 218.139 128.024 218.311 128.024 218.655V220.185C128.368 219.523 128.865 219.016 129.514 218.665C130.169 218.314 130.944 218.139 131.838 218.139C132.189 218.139 132.364 218.311 132.364 218.655C132.364 219.006 132.189 219.182 131.838 219.182C130.659 219.182 129.745 219.45 129.096 219.987C128.447 220.516 128.09 221.275 128.024 222.261V226.999C128.024 227.35 127.851 227.526 127.507 227.526ZM142.207 230.794C140.969 230.794 140.068 230.446 139.505 229.751C138.942 229.056 138.661 227.956 138.661 226.453V218.804C138.661 217.222 138.942 216.069 139.505 215.348C140.068 214.626 140.969 214.265 142.207 214.265C142.346 214.265 142.462 214.311 142.555 214.404C142.647 214.497 142.694 214.613 142.694 214.752C142.694 214.884 142.647 215 142.555 215.099C142.462 215.192 142.346 215.238 142.207 215.238C141.578 215.238 141.075 215.351 140.697 215.576C140.32 215.801 140.048 216.175 139.883 216.699C139.717 217.222 139.634 217.924 139.634 218.804V226.453C139.634 227.705 139.826 228.579 140.21 229.075C140.601 229.572 141.267 229.82 142.207 229.82C142.346 229.82 142.462 229.867 142.555 229.96C142.647 230.052 142.694 230.168 142.694 230.307C142.694 230.44 142.647 230.552 142.555 230.645C142.462 230.744 142.346 230.794 142.207 230.794ZM148.537 227.536C148.378 227.536 148.248 227.489 148.149 227.397C148.056 227.304 148.01 227.178 148.01 227.019V215.755H143.788C143.629 215.755 143.5 215.709 143.401 215.616C143.308 215.523 143.262 215.397 143.262 215.238C143.262 215.079 143.308 214.954 143.401 214.861C143.5 214.762 143.629 214.712 143.788 214.712H153.285C153.444 214.712 153.569 214.762 153.662 214.861C153.755 214.954 153.801 215.079 153.801 215.238C153.801 215.397 153.755 215.523 153.662 215.616C153.569 215.709 153.444 215.755 153.285 215.755H149.053V227.019C149.053 227.172 149.003 227.297 148.904 227.397C148.811 227.489 148.689 227.536 148.537 227.536ZM156.162 227.526C155.811 227.526 155.636 227.35 155.636 226.999V214.265C155.636 213.921 155.811 213.748 156.162 213.748C156.507 213.748 156.679 213.921 156.679 214.265V219.609C157.308 218.629 158.447 218.139 160.096 218.139H160.652C161.891 218.139 162.795 218.427 163.364 219.003C163.94 219.573 164.228 220.477 164.228 221.715V226.999C164.228 227.35 164.056 227.526 163.712 227.526C163.361 227.526 163.185 227.35 163.185 226.999V221.715C163.185 220.768 162.996 220.109 162.619 219.738C162.248 219.367 161.593 219.182 160.652 219.182H160.096C159.07 219.182 158.262 219.344 157.672 219.669C157.083 219.993 156.752 220.5 156.679 221.188V226.999C156.679 227.35 156.507 227.526 156.162 227.526ZM168.536 223.235V223.96C168.536 224.894 168.722 225.549 169.093 225.927C169.47 226.297 170.132 226.483 171.079 226.483H172.708C173.543 226.483 174.149 226.377 174.526 226.165C174.91 225.946 175.139 225.572 175.211 225.043C175.238 224.877 175.291 224.751 175.37 224.665C175.457 224.579 175.586 224.536 175.758 224.536C175.93 224.536 176.059 224.586 176.145 224.685C176.238 224.778 176.274 224.91 176.254 225.082C176.168 225.917 175.834 226.533 175.251 226.93C174.668 227.327 173.821 227.526 172.708 227.526H171.079C169.841 227.526 168.934 227.241 168.358 226.672C167.781 226.095 167.493 225.192 167.493 223.96V221.715C167.493 220.463 167.781 219.553 168.358 218.983C168.934 218.407 169.841 218.126 171.079 218.139H172.708C173.947 218.139 174.851 218.427 175.42 219.003C175.996 219.573 176.284 220.477 176.284 221.715V222.708C176.284 223.059 176.112 223.235 175.768 223.235H168.536ZM171.079 219.182C170.132 219.169 169.47 219.351 169.093 219.728C168.722 220.099 168.536 220.761 168.536 221.715V222.192H175.241V221.715C175.241 220.768 175.056 220.109 174.685 219.738C174.314 219.367 173.655 219.182 172.708 219.182H171.079ZM57.8681 251.526C56.4311 251.526 55.3815 251.195 54.7193 250.533C54.0571 249.87 53.7259 248.821 53.7259 247.384V242.864C53.7259 241.414 54.0537 240.361 54.7093 239.705C55.3716 239.05 56.4179 238.722 57.8483 238.722H60.2521C61.4706 238.722 62.3779 238.977 62.9739 239.487C63.5698 239.99 63.8976 240.801 63.9572 241.92C63.9771 242.099 63.9407 242.235 63.848 242.328C63.7619 242.42 63.6328 242.467 63.4606 242.467C63.1295 242.467 62.9474 242.291 62.9143 241.94C62.8679 241.119 62.6427 240.553 62.2388 240.242C61.8348 239.924 61.1726 239.765 60.2521 239.765H57.8483C57.0867 239.765 56.4808 239.864 56.0305 240.063C55.5802 240.255 55.2557 240.579 55.057 241.036C54.865 241.487 54.7689 242.096 54.7689 242.864V247.384C54.7689 248.152 54.8683 248.761 55.0669 249.211C55.2656 249.662 55.5901 249.986 56.0404 250.185C56.4907 250.384 57.1 250.483 57.8681 250.483H60.2521C60.9276 250.483 61.4607 250.4 61.8514 250.235C62.2487 250.069 62.5302 249.791 62.6957 249.4C62.8613 249.009 62.9441 248.47 62.9441 247.781V246.539L60.7687 246.519C60.4243 246.519 60.2521 246.344 60.2521 245.993C60.2521 245.649 60.4243 245.476 60.7687 245.476L63.4705 245.496C63.8149 245.496 63.987 245.669 63.987 246.013V247.781C63.987 249.092 63.6924 250.046 63.103 250.642C62.5136 251.231 61.5633 251.526 60.2521 251.526H57.8681ZM67.7521 251.526C67.4011 251.526 67.2256 251.35 67.2256 250.999V242.655C67.2256 242.311 67.4011 242.139 67.7521 242.139C68.0964 242.139 68.2686 242.311 68.2686 242.655V244.185C68.613 243.523 69.1096 243.016 69.7586 242.665C70.4142 242.314 71.189 242.139 72.083 242.139C72.434 242.139 72.6095 242.311 72.6095 242.655C72.6095 243.006 72.434 243.182 72.083 243.182C70.9042 243.182 69.9904 243.45 69.3414 243.987C68.6924 244.516 68.3348 245.275 68.2686 246.261V250.999C68.2686 251.35 68.0964 251.526 67.7521 251.526ZM75.1012 247.235V247.96C75.1012 248.894 75.2866 249.549 75.6574 249.927C76.0349 250.297 76.6971 250.483 77.6441 250.483H79.2732C80.1076 250.483 80.7135 250.377 81.091 250.165C81.475 249.946 81.7035 249.572 81.7764 249.043C81.8028 248.877 81.8558 248.751 81.9353 248.665C82.0214 248.579 82.1505 248.536 82.3227 248.536C82.4949 248.536 82.624 248.586 82.7101 248.685C82.8028 248.778 82.8392 248.91 82.8194 249.082C82.7333 249.917 82.3988 250.533 81.8161 250.93C81.2333 251.327 80.3857 251.526 79.2732 251.526H77.6441C76.4057 251.526 75.4985 251.241 74.9224 250.672C74.3462 250.095 74.0582 249.192 74.0582 247.96V245.715C74.0582 244.463 74.3462 243.553 74.9224 242.983C75.4985 242.407 76.4057 242.126 77.6441 242.139H79.2732C80.5115 242.139 81.4154 242.427 81.985 243.003C82.5611 243.573 82.8492 244.477 82.8492 245.715V246.708C82.8492 247.059 82.677 247.235 82.3326 247.235H75.1012ZM77.6441 243.182C76.6971 243.169 76.0349 243.351 75.6574 243.728C75.2866 244.099 75.1012 244.761 75.1012 245.715V246.192H81.8062V245.715C81.8062 244.768 81.6207 244.109 81.2499 243.738C80.879 243.367 80.2201 243.182 79.2732 243.182H77.6441ZM89.088 251.526C88.055 251.526 87.2967 251.287 86.8133 250.811C86.3365 250.327 86.0981 249.569 86.0981 248.536C86.0981 247.503 86.3398 246.745 86.8232 246.261C87.3067 245.778 88.0616 245.536 89.088 245.536H93.6077C93.5945 244.662 93.3958 244.053 93.0117 243.708C92.6342 243.357 91.9886 243.182 91.0747 243.182H89.9224C89.0814 243.182 88.4656 243.271 88.0748 243.45C87.6841 243.629 87.4424 243.934 87.3497 244.364C87.3034 244.53 87.2404 244.652 87.161 244.731C87.0881 244.804 86.9689 244.841 86.8034 244.841C86.6312 244.841 86.4954 244.794 86.3961 244.702C86.3034 244.602 86.2703 244.47 86.2968 244.304C86.3829 243.549 86.7239 243 87.3199 242.655C87.9225 242.311 88.79 242.139 89.9224 242.139H91.0747C92.3131 242.139 93.217 242.427 93.7865 243.003C94.3626 243.573 94.6507 244.477 94.6507 245.715V250.999C94.6507 251.35 94.4785 251.526 94.1342 251.526C93.7832 251.526 93.6077 251.35 93.6077 250.999V250.016C92.972 251.023 91.8363 251.526 90.2006 251.526H89.088ZM89.088 250.483H90.2006C90.8429 250.483 91.4058 250.413 91.8892 250.274C92.3793 250.129 92.7733 249.897 93.0713 249.579C93.3693 249.261 93.5481 248.837 93.6077 248.307V246.579H89.088C88.353 246.579 87.8431 246.721 87.5583 247.006C87.2802 247.284 87.1411 247.794 87.1411 248.536C87.1411 249.271 87.2802 249.781 87.5583 250.066C87.8431 250.344 88.353 250.483 89.088 250.483ZM102.024 251.526C100.805 251.526 99.9147 251.244 99.3518 250.682C98.7889 250.119 98.5075 249.231 98.5075 248.019V243.182H97.3254C96.9744 243.182 96.7989 243.006 96.7989 242.655C96.7989 242.311 96.9744 242.139 97.3254 242.139H98.5075V240.003C98.5075 239.652 98.6796 239.477 99.024 239.477C99.375 239.477 99.5505 239.652 99.5505 240.003V242.139H102.044C102.388 242.139 102.56 242.311 102.56 242.655C102.56 243.006 102.388 243.182 102.044 243.182H99.5505V248.019C99.5505 248.947 99.7293 249.589 100.087 249.946C100.451 250.304 101.097 250.483 102.024 250.483C102.216 250.483 102.352 250.526 102.431 250.612C102.517 250.698 102.56 250.827 102.56 250.999C102.56 251.35 102.381 251.526 102.024 251.526ZM110.822 251.526C110.471 251.526 110.296 251.35 110.296 250.999V239.248C110.296 238.897 110.471 238.722 110.822 238.722H116.007C116.981 238.722 117.716 238.97 118.213 239.467C118.716 239.957 118.968 240.679 118.968 241.632V242.169C118.968 243.208 118.633 243.943 117.964 244.374C119.123 244.851 119.703 245.884 119.703 247.473V248.099C119.703 249.225 119.411 250.079 118.829 250.662C118.252 251.238 117.398 251.526 116.266 251.526H110.822ZM111.339 250.483H116.266C117.107 250.483 117.716 250.294 118.093 249.917C118.471 249.539 118.66 248.933 118.66 248.099V247.473C118.66 246.639 118.471 246.036 118.093 245.665C117.723 245.294 117.113 245.109 116.266 245.109H111.339V250.483ZM111.339 244.066H116.156C116.759 244.066 117.203 243.914 117.488 243.609C117.779 243.298 117.925 242.818 117.925 242.169V241.632C117.925 240.97 117.772 240.493 117.468 240.202C117.17 239.911 116.683 239.765 116.007 239.765H111.339V244.066ZM123.39 247.235V247.96C123.39 248.894 123.576 249.549 123.946 249.927C124.324 250.297 124.986 250.483 125.933 250.483H127.562C128.397 250.483 129.003 250.377 129.38 250.165C129.764 249.946 129.993 249.572 130.065 249.043C130.092 248.877 130.145 248.751 130.224 248.665C130.31 248.579 130.44 248.536 130.612 248.536C130.784 248.536 130.913 248.586 130.999 248.685C131.092 248.778 131.128 248.91 131.108 249.082C131.022 249.917 130.688 250.533 130.105 250.93C129.522 251.327 128.675 251.526 127.562 251.526H125.933C124.695 251.526 123.788 251.241 123.211 250.672C122.635 250.095 122.347 249.192 122.347 247.96V245.715C122.347 244.463 122.635 243.553 123.211 242.983C123.788 242.407 124.695 242.126 125.933 242.139H127.562C128.801 242.139 129.704 242.427 130.274 243.003C130.85 243.573 131.138 244.477 131.138 245.715V246.708C131.138 247.059 130.966 247.235 130.622 247.235H123.39ZM125.933 243.182C124.986 243.169 124.324 243.351 123.946 243.728C123.576 244.099 123.39 244.761 123.39 245.715V246.192H130.095V245.715C130.095 244.768 129.91 244.109 129.539 243.738C129.168 243.367 128.509 243.182 127.562 243.182H125.933ZM137.377 251.526C136.344 251.526 135.586 251.287 135.102 250.811C134.626 250.327 134.387 249.569 134.387 248.536C134.387 247.503 134.629 246.745 135.112 246.261C135.596 245.778 136.351 245.536 137.377 245.536H141.897C141.883 244.662 141.685 244.053 141.301 243.708C140.923 243.357 140.278 243.182 139.364 243.182H138.211C137.37 243.182 136.755 243.271 136.364 243.45C135.973 243.629 135.731 243.934 135.639 244.364C135.592 244.53 135.529 244.652 135.45 244.731C135.377 244.804 135.258 244.841 135.092 244.841C134.92 244.841 134.784 244.794 134.685 244.702C134.592 244.602 134.559 244.47 134.586 244.304C134.672 243.549 135.013 243 135.609 242.655C136.212 242.311 137.079 242.139 138.211 242.139H139.364C140.602 242.139 141.506 242.427 142.076 243.003C142.652 243.573 142.94 244.477 142.94 245.715V250.999C142.94 251.35 142.768 251.526 142.423 251.526C142.072 251.526 141.897 251.35 141.897 250.999V250.016C141.261 251.023 140.125 251.526 138.49 251.526H137.377ZM137.377 250.483H138.49C139.132 250.483 139.695 250.413 140.178 250.274C140.668 250.129 141.062 249.897 141.36 249.579C141.658 249.261 141.837 248.837 141.897 248.307V246.579H137.377C136.642 246.579 136.132 246.721 135.847 247.006C135.569 247.284 135.43 247.794 135.43 248.536C135.43 249.271 135.569 249.781 135.847 250.066C136.132 250.344 136.642 250.483 137.377 250.483ZM147.005 251.526C146.654 251.526 146.479 251.35 146.479 250.999V242.655C146.479 242.311 146.654 242.139 147.005 242.139C147.349 242.139 147.522 242.311 147.522 242.655V244.185C147.866 243.523 148.363 243.016 149.012 242.665C149.667 242.314 150.442 242.139 151.336 242.139C151.687 242.139 151.862 242.311 151.862 242.655C151.862 243.006 151.687 243.182 151.336 243.182C150.157 243.182 149.243 243.45 148.594 243.987C147.945 244.516 147.588 245.275 147.522 246.261V250.999C147.522 251.35 147.349 251.526 147.005 251.526ZM152.795 254.794C152.663 254.794 152.547 254.744 152.448 254.645C152.355 254.552 152.309 254.44 152.309 254.307C152.309 254.168 152.355 254.052 152.448 253.96C152.547 253.867 152.663 253.82 152.795 253.82C153.742 253.82 154.408 253.572 154.792 253.075C155.176 252.579 155.368 251.705 155.368 250.453V242.804C155.368 241.924 155.285 241.222 155.12 240.699C154.954 240.175 154.683 239.801 154.305 239.576C153.928 239.351 153.424 239.238 152.795 239.238C152.663 239.238 152.547 239.192 152.448 239.099C152.355 239 152.309 238.884 152.309 238.752C152.309 238.613 152.355 238.497 152.448 238.404C152.547 238.311 152.663 238.265 152.795 238.265C154.04 238.265 154.941 238.626 155.497 239.348C156.06 240.069 156.341 241.222 156.341 242.804V250.453C156.341 251.956 156.06 253.056 155.497 253.751C154.941 254.446 154.04 254.794 152.795 254.794Z" fill="white"/>
<path d="M15.9233 71.1973L44.7641 70.3498L58.805 82.348L79.19 95.6652M79.19 95.6652L79.6405 115.664M79.19 95.6652L123.533 101.511M79.6405 115.664L69.7301 138.849L84.5681 165.17M79.6405 115.664L113.75 121.174M84.5681 165.17L114.752 193.43M84.5681 165.17L121.308 188.88M113.75 121.174L150.565 145.403M113.75 121.174L123.533 101.511M150.565 145.403L163.733 159.437M150.565 145.403L155.37 124.331L200.122 117.591L167.104 107.891L123.533 101.511M163.733 159.437L180.343 179.666M163.733 159.437L185.164 176.32" stroke="#AA7E41" stroke-width="0.3"/>
<g filter="url(#filter0_f_99_7051)">
<ellipse cx="17.9168" cy="70.3821" rx="4.49247" ry="4.49247" fill="#FAFFB3"/>
</g>
<ellipse cx="17.9173" cy="70.3822" rx="2.99498" ry="2.99498" fill="#D9D9D9"/>
<g filter="url(#filter1_f_99_7051)">
<ellipse cx="44.4122" cy="69.9225" rx="4.03283" ry="4.03282" fill="#FAFFB3"/>
</g>
<ellipse cx="44.4122" cy="69.9224" rx="2.68855" ry="2.68855" fill="#D9D9D9"/>
<g filter="url(#filter2_f_99_7051)">
<ellipse cx="58.0229" cy="81.7211" rx="2.22993" ry="2.22993" fill="#FAFFB3"/>
</g>
<ellipse cx="58.0228" cy="81.721" rx="1.48662" ry="1.48662" fill="#D9D9D9"/>
<g filter="url(#filter3_f_99_7051)">
<ellipse cx="70.5246" cy="90.0451" rx="3.19058" ry="3.19058" fill="#FAFFB3"/>
</g>
<ellipse cx="70.5245" cy="90.045" rx="2.12705" ry="2.12705" fill="#D9D9D9"/>
<g filter="url(#filter4_f_99_7051)">
<ellipse cx="79.2072" cy="95.1008" rx="3.3449" ry="3.3449" fill="#FAFFB3"/>
</g>
<ellipse cx="79.2075" cy="95.1005" rx="2.22993" ry="2.22993" fill="#D9D9D9"/>
<g filter="url(#filter5_f_99_7051)">
<ellipse cx="122.691" cy="101.791" rx="3.3449" ry="3.3449" fill="#FAFFB3"/>
</g>
<ellipse cx="122.691" cy="101.791" rx="2.22993" ry="2.22993" fill="#D9D9D9"/>
<g filter="url(#filter6_f_99_7051)">
<ellipse cx="113.771" cy="120.745" rx="3.3449" ry="3.3449" fill="#FAFFB3"/>
</g>
<ellipse cx="113.771" cy="120.745" rx="2.22993" ry="2.22993" fill="#D9D9D9"/>
<g filter="url(#filter7_f_99_7051)">
<ellipse cx="79.2072" cy="115.17" rx="3.3449" ry="3.3449" fill="#FAFFB3"/>
</g>
<ellipse cx="79.2075" cy="115.17" rx="2.22993" ry="2.22993" fill="#D9D9D9"/>
<g filter="url(#filter8_f_99_7051)">
<ellipse cx="70.2878" cy="138.584" rx="3.3449" ry="3.3449" fill="#FAFFB3"/>
</g>
<ellipse cx="70.2876" cy="138.584" rx="2.22993" ry="2.22993" fill="#D9D9D9"/>
<g filter="url(#filter9_f_99_7051)">
<ellipse cx="84.7819" cy="165.343" rx="3.3449" ry="3.3449" fill="#FAFFB3"/>
</g>
<ellipse cx="84.7817" cy="165.343" rx="2.22993" ry="2.22993" fill="#D9D9D9"/>
<g filter="url(#filter10_f_99_7051)">
<ellipse cx="113.771" cy="193.218" rx="3.3449" ry="3.3449" fill="#FAFFB3"/>
</g>
<ellipse cx="113.771" cy="193.218" rx="2.22993" ry="2.22993" fill="#D9D9D9"/>
<g filter="url(#filter11_f_99_7051)">
<ellipse cx="120.461" cy="188.758" rx="3.3449" ry="3.3449" fill="#FAFFB3"/>
</g>
<ellipse cx="120.461" cy="188.758" rx="2.22993" ry="2.22993" fill="#D9D9D9"/>
<g filter="url(#filter12_f_99_7051)">
<ellipse cx="179.554" cy="179.838" rx="3.3449" ry="3.3449" fill="#FAFFB3"/>
</g>
<ellipse cx="179.555" cy="179.838" rx="2.22993" ry="2.22993" fill="#D9D9D9"/>
<g filter="url(#filter13_f_99_7051)">
<ellipse cx="185.129" cy="175.379" rx="3.3449" ry="3.3449" fill="#FAFFB3"/>
</g>
<ellipse cx="185.129" cy="175.378" rx="2.22993" ry="2.22993" fill="#D9D9D9"/>
<g filter="url(#filter14_f_99_7051)">
<ellipse cx="150.565" cy="145.274" rx="3.3449" ry="3.3449" fill="#FAFFB3"/>
</g>
<ellipse cx="150.565" cy="145.274" rx="2.22993" ry="2.22993" fill="#D9D9D9"/>
<g filter="url(#filter15_f_99_7051)">
<ellipse cx="156.14" cy="124.09" rx="3.3449" ry="3.3449" fill="#FAFFB3"/>
</g>
<ellipse cx="156.14" cy="124.09" rx="2.22993" ry="2.22993" fill="#D9D9D9"/>
<g filter="url(#filter16_f_99_7051)">
<ellipse cx="199.624" cy="117.4" rx="3.3449" ry="3.3449" fill="#FAFFB3"/>
</g>
<ellipse cx="199.624" cy="117.4" rx="2.22993" ry="2.22993" fill="#D9D9D9"/>
<g filter="url(#filter17_f_99_7051)">
<ellipse cx="167.289" cy="108.48" rx="3.3449" ry="3.3449" fill="#FAFFB3"/>
</g>
<ellipse cx="167.29" cy="108.48" rx="2.22993" ry="2.22993" fill="#D9D9D9"/>
<defs>
<filter id="filter0_f_99_7051" x="0.00012207" y="52.4655" width="35.8333" height="35.8333" filterUnits="userSpaceOnUse" color-interpolation-filters="sRGB">
<feFlood flood-opacity="0" result="BackgroundImageFix"/>
<feBlend mode="normal" in="SourceGraphic" in2="BackgroundImageFix" result="shape"/>
<feGaussianBlur stdDeviation="6.7121" result="effect1_foregroundBlur_99_7051"/>
</filter>
<filter id="filter1_f_99_7051" x="26.9552" y="52.4655" width="34.9138" height="34.9138" filterUnits="userSpaceOnUse" color-interpolation-filters="sRGB">
<feFlood flood-opacity="0" result="BackgroundImageFix"/>
<feBlend mode="normal" in="SourceGraphic" in2="BackgroundImageFix" result="shape"/>
<feGaussianBlur stdDeviation="6.7121" result="effect1_foregroundBlur_99_7051"/>
</filter>
<filter id="filter2_f_99_7051" x="46.8436" y="70.5419" width="22.3586" height="22.3586" filterUnits="userSpaceOnUse" color-interpolation-filters="sRGB">
<feFlood flood-opacity="0" result="BackgroundImageFix"/>
<feBlend mode="normal" in="SourceGraphic" in2="BackgroundImageFix" result="shape"/>
<feGaussianBlur stdDeviation="4.47466" result="effect1_foregroundBlur_99_7051"/>
</filter>
<filter id="filter3_f_99_7051" x="58.3845" y="77.905" width="24.2803" height="24.2803" filterUnits="userSpaceOnUse" color-interpolation-filters="sRGB">
<feFlood flood-opacity="0" result="BackgroundImageFix"/>
<feBlend mode="normal" in="SourceGraphic" in2="BackgroundImageFix" result="shape"/>
<feGaussianBlur stdDeviation="4.47473" result="effect1_foregroundBlur_99_7051"/>
</filter>
<filter id="filter4_f_99_7051" x="62.4381" y="78.3317" width="33.5383" height="33.5383" filterUnits="userSpaceOnUse" color-interpolation-filters="sRGB">
<feFlood flood-opacity="0" result="BackgroundImageFix"/>
<feBlend mode="normal" in="SourceGraphic" in2="BackgroundImageFix" result="shape"/>
<feGaussianBlur stdDeviation="6.7121" result="effect1_foregroundBlur_99_7051"/>
</filter>
<filter id="filter5_f_99_7051" x="105.922" y="85.0216" width="33.5383" height="33.5383" filterUnits="userSpaceOnUse" color-interpolation-filters="sRGB">
<feFlood flood-opacity="0" result="BackgroundImageFix"/>
<feBlend mode="normal" in="SourceGraphic" in2="BackgroundImageFix" result="shape"/>
<feGaussianBlur stdDeviation="6.7121" result="effect1_foregroundBlur_99_7051"/>
</filter>
<filter id="filter6_f_99_7051" x="97.0021" y="103.976" width="33.5383" height="33.5383" filterUnits="userSpaceOnUse" color-interpolation-filters="sRGB">
<feFlood flood-opacity="0" result="BackgroundImageFix"/>
<feBlend mode="normal" in="SourceGraphic" in2="BackgroundImageFix" result="shape"/>
<feGaussianBlur stdDeviation="6.7121" result="effect1_foregroundBlur_99_7051"/>
</filter>
<filter id="filter7_f_99_7051" x="62.4381" y="98.401" width="33.5383" height="33.5383" filterUnits="userSpaceOnUse" color-interpolation-filters="sRGB">
<feFlood flood-opacity="0" result="BackgroundImageFix"/>
<feBlend mode="normal" in="SourceGraphic" in2="BackgroundImageFix" result="shape"/>
<feGaussianBlur stdDeviation="6.7121" result="effect1_foregroundBlur_99_7051"/>
</filter>
<filter id="filter8_f_99_7051" x="53.5187" y="121.815" width="33.5383" height="33.5383" filterUnits="userSpaceOnUse" color-interpolation-filters="sRGB">
<feFlood flood-opacity="0" result="BackgroundImageFix"/>
<feBlend mode="normal" in="SourceGraphic" in2="BackgroundImageFix" result="shape"/>
<feGaussianBlur stdDeviation="6.7121" result="effect1_foregroundBlur_99_7051"/>
</filter>
<filter id="filter9_f_99_7051" x="68.0128" y="148.574" width="33.5383" height="33.5383" filterUnits="userSpaceOnUse" color-interpolation-filters="sRGB">
<feFlood flood-opacity="0" result="BackgroundImageFix"/>
<feBlend mode="normal" in="SourceGraphic" in2="BackgroundImageFix" result="shape"/>
<feGaussianBlur stdDeviation="6.7121" result="effect1_foregroundBlur_99_7051"/>
</filter>
<filter id="filter10_f_99_7051" x="97.0021" y="176.449" width="33.5383" height="33.5383" filterUnits="userSpaceOnUse" color-interpolation-filters="sRGB">
<feFlood flood-opacity="0" result="BackgroundImageFix"/>
<feBlend mode="normal" in="SourceGraphic" in2="BackgroundImageFix" result="shape"/>
<feGaussianBlur stdDeviation="6.7121" result="effect1_foregroundBlur_99_7051"/>
</filter>
<filter id="filter11_f_99_7051" x="103.692" y="171.989" width="33.5383" height="33.5383" filterUnits="userSpaceOnUse" color-interpolation-filters="sRGB">
<feFlood flood-opacity="0" result="BackgroundImageFix"/>
<feBlend mode="normal" in="SourceGraphic" in2="BackgroundImageFix" result="shape"/>
<feGaussianBlur stdDeviation="6.7121" result="effect1_foregroundBlur_99_7051"/>
</filter>
<filter id="filter12_f_99_7051" x="162.785" y="163.069" width="33.5383" height="33.5383" filterUnits="userSpaceOnUse" color-interpolation-filters="sRGB">
<feFlood flood-opacity="0" result="BackgroundImageFix"/>
<feBlend mode="normal" in="SourceGraphic" in2="BackgroundImageFix" result="shape"/>
<feGaussianBlur stdDeviation="6.7121" result="effect1_foregroundBlur_99_7051"/>
</filter>
<filter id="filter13_f_99_7051" x="168.36" y="158.609" width="33.5383" height="33.5383" filterUnits="userSpaceOnUse" color-interpolation-filters="sRGB">
<feFlood flood-opacity="0" result="BackgroundImageFix"/>
<feBlend mode="normal" in="SourceGraphic" in2="BackgroundImageFix" result="shape"/>
<feGaussianBlur stdDeviation="6.7121" result="effect1_foregroundBlur_99_7051"/>
</filter>
<filter id="filter14_f_99_7051" x="133.796" y="128.505" width="33.5383" height="33.5383" filterUnits="userSpaceOnUse" color-interpolation-filters="sRGB">
<feFlood flood-opacity="0" result="BackgroundImageFix"/>
<feBlend mode="normal" in="SourceGraphic" in2="BackgroundImageFix" result="shape"/>
<feGaussianBlur stdDeviation="6.7121" result="effect1_foregroundBlur_99_7051"/>
</filter>
<filter id="filter15_f_99_7051" x="139.371" y="107.321" width="33.5383" height="33.5383" filterUnits="userSpaceOnUse" color-interpolation-filters="sRGB">
<feFlood flood-opacity="0" result="BackgroundImageFix"/>
<feBlend mode="normal" in="SourceGraphic" in2="BackgroundImageFix" result="shape"/>
<feGaussianBlur stdDeviation="6.7121" result="effect1_foregroundBlur_99_7051"/>
</filter>
<filter id="filter16_f_99_7051" x="182.855" y="100.631" width="33.5383" height="33.5383" filterUnits="userSpaceOnUse" color-interpolation-filters="sRGB">
<feFlood flood-opacity="0" result="BackgroundImageFix"/>
<feBlend mode="normal" in="SourceGraphic" in2="BackgroundImageFix" result="shape"/>
<feGaussianBlur stdDeviation="6.7121" result="effect1_foregroundBlur_99_7051"/>
</filter>
<filter id="filter17_f_99_7051" x="150.52" y="91.7111" width="33.5383" height="33.5383" filterUnits="userSpaceOnUse" color-interpolation-filters="sRGB">
<feFlood flood-opacity="0" result="BackgroundImageFix"/>
<feBlend mode="normal" in="SourceGraphic" in2="BackgroundImageFix" result="shape"/>
<feGaussianBlur stdDeviation="6.7121" result="effect1_foregroundBlur_99_7051"/>
</filter>
</defs>
</svg>
